<svg width="119" height="22" viewBox="0 0 119 22" fill="none" xmlns="http://www.w3.org/2000/svg">
<path d="M5.4559 10.7168C5.4559 14.2817 6.7845 17.1823 10.0523 17.3354C10.1425 17.3396 10.2341 17.3418 10.3272 17.3418C10.4107 17.3418 107.919 17.3401 108 17.3367C111.288 17.1987 112.624 14.2918 112.624 10.7168C112.624 7.14189 111.288 4.23501 108 4.09701C107.919 4.0936 10.4107 4.09188 10.3272 4.09188C10.2341 4.09188 10.1425 4.09402 10.0523 4.09824C6.7845 4.25138 5.4559 7.15195 5.4559 10.7168ZM0 10.7168C0 4.87529 3.5626 0.132835 10.0523 0.00274219C10.1434 0.000917296 10.235 0 10.3272 0C10.41 0 107.918 0.00074066 108 0.00221494C114.508 0.119342 118.08 4.86698 118.08 10.7168C118.08 16.5667 114.508 21.3143 108 21.4315C107.918 21.4329 10.41 21.4337 10.3272 21.4337C10.235 21.4337 10.1434 21.4327 10.0523 21.4309C3.5626 21.3008 0 16.5584 0 10.7168Z" fill="#FF5656"/>
</svg>
