<svg width="32" height="33" viewBox="0 0 32 33" fill="none" xmlns="http://www.w3.org/2000/svg">
<path d="M1.97631 2.65795C1.35119 3.28307 1 4.13092 1 5.01497V6.68164C1 20.4883 12.1933 31.6816 26 31.6816H27.6667C28.5507 31.6816 29.3986 31.3305 30.0237 30.7053C30.6488 30.0802 31 29.2324 31 28.3483V22.8833C31.0001 22.5334 30.89 22.1923 30.6854 21.9084C30.4808 21.6245 30.192 21.4122 29.86 21.3016L22.3717 18.805C21.9911 18.6785 21.5777 18.6934 21.2073 18.8471C20.8368 19.0008 20.5342 19.2829 20.355 19.6416L18.4717 23.4033C14.3908 21.5594 11.1222 18.2909 9.27833 14.21L13.04 12.3266C13.3988 12.1474 13.6808 11.8448 13.8345 11.4744C13.9882 11.104 14.0032 10.6905 13.8767 10.31L11.38 2.82164C11.2695 2.4899 11.0575 2.20131 10.7739 1.99672C10.4904 1.79213 10.1497 1.68191 9.8 1.68164H4.33333C3.44928 1.68164 2.60143 2.03283 1.97631 2.65795Z" stroke="#FF5656" stroke-width="2" stroke-linecap="round" stroke-linejoin="round"/>
</svg>
