<svg width="32" height="26" viewBox="0 0 32 26" fill="none" xmlns="http://www.w3.org/2000/svg">
<path d="M1 6.01514L14.15 14.7818C14.6978 15.1473 15.3415 15.3423 16 15.3423C16.6585 15.3423 17.3022 15.1473 17.85 14.7818L31 6.01514M4.33333 24.3485H27.6667C28.5507 24.3485 29.3986 23.9973 30.0237 23.3722C30.6488 22.747 31 21.8992 31 21.0151V4.34847C31 3.46441 30.6488 2.61657 30.0237 1.99145C29.3986 1.36633 28.5507 1.01514 27.6667 1.01514H4.33333C3.44928 1.01514 2.60143 1.36633 1.97631 1.99145C1.35119 2.61657 1 3.46441 1 4.34847V21.0151C1 21.8992 1.35119 22.747 1.97631 23.3722C2.60143 23.9973 3.44928 24.3485 4.33333 24.3485Z" stroke="#FF5656" stroke-width="2" stroke-linecap="round" stroke-linejoin="round"/>
</svg>
