<svg width="171" height="54" viewBox="0 0 171 54" fill="none" xmlns="http://www.w3.org/2000/svg">
<path d="M150.369 43.1914C150.369 37.268 153.876 32.4746 160.501 32.4746C169.465 32.4746 170.049 40.4635 170.049 40.4635H164.593C164.593 40.4635 164.398 36.5665 160.501 36.5665C157.033 36.5665 155.825 39.5282 155.825 43.1914C155.825 46.8547 157.033 49.8164 160.501 49.8164C164.398 49.8164 164.593 45.9194 164.593 45.9194H170.049C170.049 45.9194 169.465 53.9083 160.501 53.9083C153.876 53.9083 150.369 49.1149 150.369 43.1914Z" fill="black"/>
<path d="M136.159 39.2944H130.703C131.014 34.1114 135.184 32.4746 139.861 32.4746C144.732 32.4746 148.629 34.2283 148.629 39.4893V53.3237H143.173V49.4267H142.978C142.978 49.4267 141.731 53.9083 136.548 53.9083C132.846 53.9083 130.118 52.1936 130.118 48.4524C130.118 44.6723 133.236 42.9576 136.587 42.1003C139.978 41.2429 143.173 40.9701 143.173 38.7099C143.173 37.1121 142.004 36.1768 139.861 36.1768C137.523 36.1768 136.237 37.1121 136.159 39.2944ZM143.173 43.1135C142.277 43.9319 140.445 44.3606 138.886 44.7503C137.133 45.1789 135.652 46.0752 135.652 47.8679C135.652 49.4267 136.743 50.4009 138.497 50.4009C142.199 50.4009 143.173 46.1142 143.173 43.1135Z" fill="black"/>
<path d="M113.739 43.7764C113.739 47.0499 115.142 49.8168 118.61 49.8168C122.078 49.8168 123.481 47.0499 123.481 43.7764C123.481 40.5029 122.078 37.736 118.61 37.736C115.142 37.736 113.739 40.5029 113.739 43.7764ZM118.61 53.9087C113.154 53.9087 108.088 50.7911 108.088 41.0485C108.088 27.9934 114.284 26.0449 119.935 26.0449H127.378V30.5265H119.467C115.064 30.5265 113.427 32.475 112.764 36.7618H112.959C112.959 36.7618 114.713 33.6441 119.389 33.6441C125.43 33.6441 128.937 38.1257 128.937 43.7764C128.937 49.2323 125.43 53.9087 118.61 53.9087Z" fill="black"/>
<path d="M87.5659 53.3251L94.8534 33.0605H101.011L108.298 53.3251H102.453L97.7761 38.9451L93.0997 53.3251H87.5659Z" fill="black"/>
<path d="M24.804 43.1914C24.804 46.7563 26.1326 49.6569 29.4004 49.81C29.4906 49.8143 29.5822 49.8164 29.6753 49.8164C29.7589 49.8164 78.5541 49.8147 78.6353 49.8113C81.9233 49.6733 83.2594 46.7664 83.2594 43.1914C83.2594 39.6165 81.9233 36.7096 78.6353 36.5716C78.5541 36.5682 29.7589 36.5665 29.6753 36.5665C29.5822 36.5665 29.4906 36.5686 29.4004 36.5728C26.1326 36.726 24.804 39.6266 24.804 43.1914ZM19.3481 43.1914C19.3481 37.3499 22.9107 32.6074 29.4004 32.4774C29.4915 32.4755 29.5831 32.4746 29.6753 32.4746C29.7581 32.4746 78.5534 32.4754 78.6353 32.4768C85.1426 32.594 88.7153 37.3416 88.7153 43.1914C88.7153 49.0413 85.1426 53.7889 78.6353 53.9061C78.5534 53.9075 29.7581 53.9083 29.6753 53.9083C29.5831 53.9083 29.4915 53.9074 29.4004 53.9055C22.9107 53.7754 19.3481 49.033 19.3481 43.1914Z" fill="#FF5656"/>
<path d="M0.628906 53.3251V33.0605H6.08475V41.2443L13.2943 33.0605H19.7244L12.0862 40.9715L20.1141 53.3251H13.4501L8.30606 44.8685L6.08475 47.1678V53.3251H0.628906Z" fill="black"/>
<path d="M57.2791 10.7168C57.2791 14.2817 58.6077 17.1823 61.8755 17.3354C61.9657 17.3396 62.0573 17.3418 62.1504 17.3418C62.2339 17.3418 159.742 17.3401 159.823 17.3367C163.111 17.1987 164.447 14.2918 164.447 10.7168C164.447 7.14189 163.111 4.23501 159.823 4.09701C159.742 4.0936 62.2339 4.09188 62.1504 4.09188C62.0573 4.09188 61.9657 4.09402 61.8755 4.09824C58.6077 4.25138 57.2791 7.15195 57.2791 10.7168ZM51.8232 10.7168C51.8232 4.87529 55.3858 0.132835 61.8755 0.00274219C61.9666 0.000917296 62.0582 0 62.1504 0C62.2332 0 159.741 0.00074066 159.823 0.00221494C166.331 0.119342 169.903 4.86698 169.903 10.7168C169.903 16.5667 166.331 21.3143 159.823 21.4315C159.741 21.4329 62.2332 21.4337 62.1504 21.4337C62.0582 21.4337 61.9666 21.4327 61.8755 21.4309C55.3858 21.3008 51.8232 16.5584 51.8232 10.7168Z" fill="#FF5656"/>
<path d="M33.3166 21.1733V9.87194C33.3166 6.36461 32.6151 4.8058 30.4718 4.8058C28.1336 4.8058 26.8865 6.55947 26.8865 10.6513V21.1733H21.4307V0.908773H26.6917V4.22125H26.8865C26.8865 4.22125 28.2505 0.324219 32.3423 0.324219C35.6159 0.324219 37.3695 1.88303 38.1489 4.26022L38.1879 4.22125H38.3827C38.3827 4.22125 40.1364 0.324219 44.2283 0.324219C49.2944 0.324219 50.6584 4.0264 50.6584 8.70283V21.1733H45.2026V9.87194C45.2026 6.36461 44.5011 4.8058 42.3577 4.8058C40.0195 4.8058 38.7724 6.55947 38.7724 10.6513V21.1733H33.3166Z" fill="black"/>
<path d="M0 11.0411C0 5.11757 3.50733 0.324219 10.1323 0.324219C19.0955 0.324219 19.68 8.31313 19.68 8.31313H14.2242C14.2242 8.31313 14.0293 4.4161 10.1323 4.4161C6.66392 4.4161 5.45584 7.37784 5.45584 11.0411C5.45584 14.7043 6.66392 17.666 10.1323 17.666C14.0293 17.666 14.2242 13.769 14.2242 13.769H19.68C19.68 13.769 19.0955 21.7579 10.1323 21.7579C3.50733 21.7579 0 16.9645 0 11.0411Z" fill="black"/>
</svg>
