<svg width="158" height="211" viewBox="0 0 158 211" fill="none" xmlns="http://www.w3.org/2000/svg">
<path fill-rule="evenodd" clip-rule="evenodd" d="M14.0292 121.935H141.352L141.277 145.728C140.313 158.176 133.176 169.32 123.378 178.778C110.186 191.512 92.2021 201.203 77.7594 207.014C63.094 200.896 44.9717 191.215 31.7591 178.491C22.0564 169.161 15.0047 158.176 14.0292 145.802V121.924V121.935Z" fill="#FED69D"/>
<path fill-rule="evenodd" clip-rule="evenodd" d="M14.0292 43.5784V145.791C15.0153 158.176 22.0564 169.15 31.7591 178.491C44.9717 191.215 63.094 200.895 77.7594 207.013C92.2021 201.203 110.186 191.512 123.378 178.777C133.176 169.32 140.313 158.176 141.277 145.728L141.596 43.4936C139.604 42.2344 137.867 40.6123 136.474 38.7116C135.219 36.8589 134.304 34.7982 133.77 32.6255H115.838L115.488 31.5334C112.127 20.994 105.86 13.4658 98.2994 8.83233C91.9785 4.98184 84.6932 3.00717 77.2928 3.13851C70.0078 3.24454 62.7653 5.33334 56.5301 9.33067C49.1285 14.0808 43.1478 21.5347 40.2317 31.5758L39.8924 32.7103H22.3851C21.0066 38.2875 19.0237 39.7931 14.7396 43.0377L14.0292 43.5784ZM10.8904 145.844V42.041L11.5054 41.5744C11.6539 41.4472 12.2795 40.9807 12.8521 40.546C16.7756 37.5665 18.4511 36.3047 19.5963 30.823L19.8614 29.5718H37.5701C40.8362 19.3081 47.1137 11.6527 54.8335 6.69052C61.539 2.42258 69.3022 0.109285 77.2504 0.0106214C85.1186 -0.106012 93.0292 1.91916 99.9324 6.16037C107.832 11.0059 114.417 18.7461 118.108 29.487H136.23L136.516 30.7064C137.131 33.3147 137.895 35.2763 139.04 36.9091C140.384 38.6982 142.071 40.2013 144.003 41.3306L144.734 41.7971V42.6453L144.416 145.844V145.961C143.377 159.279 135.859 171.09 125.552 181.036C111.851 194.258 93.167 204.257 78.3214 210.152L77.7382 210.396L77.1549 210.152C62.0972 203.938 43.3069 193.961 29.5853 180.76C19.3524 170.899 11.919 159.236 10.8904 145.961V145.855V145.844Z" fill="#00543F"/>
<path fill-rule="evenodd" clip-rule="evenodd" d="M17.9102 48.0635V144.816C18.8222 156.479 25.4391 166.775 34.5903 175.533C46.997 187.43 64.0483 196.442 77.7487 202.093C91.2583 196.728 108.182 187.705 120.589 175.798C129.804 166.944 136.506 156.501 137.418 144.795L137.725 47.9468C135.814 46.8007 134.146 45.2914 132.815 43.5042C131.597 41.6895 130.733 39.6603 130.27 37.5241H113.643L113.527 37.1424C110.828 28.4893 105.714 20.7866 98.7871 14.9396C92.1914 9.5109 84.4081 6.47843 76.7201 6.7117C69.2761 6.93436 61.9063 10.2531 55.756 15.6712C49.3027 21.4358 44.5996 28.8977 42.1828 37.206L42.0662 37.5983H25.8208C24.612 43.0058 22.8729 44.31 18.9282 47.2894L17.9102 48.0635ZM16.818 144.837V47.5333L17.0301 47.3743L18.2707 46.4412C22.0882 43.5466 23.7212 42.3166 24.8558 36.9515L24.9513 36.5168H41.2497C43.7581 28.1658 48.5294 20.672 55.0349 14.8654C61.3655 9.28823 68.9898 5.87406 76.6883 5.6408C84.6519 5.39693 92.6898 8.50361 99.487 14.1126C106.47 20.0038 111.652 27.7426 114.439 36.4426H131.119L131.225 36.8667C131.651 39.0169 132.494 41.0628 133.706 42.8892C135.018 44.6364 136.665 46.1036 138.552 47.2046L138.807 47.3637V47.6499L138.499 144.837V144.869C137.566 156.882 130.726 167.549 121.342 176.572C108.766 188.659 91.5976 197.778 77.9502 203.186L77.7487 203.26L77.5472 203.175C63.709 197.492 46.4244 188.373 33.8375 176.307C24.5059 167.379 17.7511 156.84 16.818 144.869V144.837Z" fill="#00543F"/>
<path fill-rule="evenodd" clip-rule="evenodd" d="M19.7554 136.97C20.1265 136.005 20.6461 135.634 21.6959 135.411V122.221C21.2293 122.136 20.0523 121.903 19.7554 120.662C22.2261 120.662 24.7074 120.524 27.1464 120.524C27.8993 120.524 28.6309 120.577 29.352 120.683C30.0625 120.789 30.6987 120.991 31.2607 121.267C31.8015 121.553 32.2469 121.945 32.5862 122.444C32.915 122.953 33.0846 123.599 33.0846 124.395C33.0879 124.862 32.9976 125.324 32.8192 125.756C32.6407 126.188 32.3776 126.579 32.0454 126.907C31.7273 127.226 31.3456 127.501 30.9108 127.724C30.4616 127.946 29.9832 128.103 29.4899 128.19V128.286C29.9989 128.349 30.5079 128.466 31.0274 128.636C31.5364 128.805 32.003 129.06 32.4166 129.378C32.8663 129.728 33.2273 130.18 33.4704 130.695C33.7136 131.211 33.8321 131.777 33.8163 132.347C33.8163 133.174 33.6254 133.895 33.2437 134.499C32.7641 135.239 32.103 135.844 31.3234 136.256C30.5437 136.668 29.6716 136.874 28.79 136.853L19.7554 136.97ZM29.2778 134.722C29.808 134.096 30.1261 133.365 30.1261 132.41C30.1261 131.817 30.0413 131.329 29.8504 130.947C29.6715 130.584 29.4011 130.273 29.0657 130.046C28.7064 129.81 28.302 129.651 27.8781 129.579C27.4221 129.495 26.9237 129.452 26.3829 129.452H25.121V135.432C27.2948 135.549 28.6203 135.517 29.2778 134.722ZM25.8845 127.936C26.41 127.941 26.935 127.902 27.4539 127.819C28.0689 127.565 28.5673 127.183 28.9385 126.664C29.3308 126.133 29.5217 125.55 29.5217 124.882C29.5217 123.907 29.2778 123.154 28.737 122.73C27.9735 122.125 26.7646 122.03 25.1316 122.136V127.936H25.8739H25.8845ZM48.365 120.662L47.8878 124.925C45.9473 124.395 46.1488 123.175 45.8201 122.168H41.3558V127.894H44.2613C44.6642 126.6 45.099 126.345 46.064 126.091V131.244C44.9823 131.106 44.6536 130.555 44.2613 129.399H41.3664V135.464H46.0003C46.8168 133.524 46.6048 132.877 48.2272 132.495L48.7044 136.97H35.8629C35.9583 136.026 36.8385 135.443 37.814 135.411V122.221C37.0081 122.2 35.9795 121.829 35.8629 120.662H48.3544H48.365ZM55.4167 122.465C54.0594 122.242 52.9036 122.062 52.9036 120.662H66.6146C66.6146 121.956 65.9995 122.009 64.6634 122.221V135.411C65.9571 135.634 66.6146 135.719 66.6146 136.97H59.2978C59.2978 135.708 59.8068 135.729 61.1005 135.411V122.178H57.2194C57.1993 124.151 57.0932 126.121 56.9013 128.084C56.7694 129.398 56.5533 130.701 56.2544 131.986C55.9999 133.015 55.7242 133.821 55.4061 134.425C54.685 135.814 53.7307 137.256 51.9704 137.256L50.2844 134.011C51.3448 132.548 52.4688 133.269 53.7519 133.799C53.964 133.375 54.1654 132.845 54.3563 132.23C54.5684 131.615 54.7381 130.852 54.8865 129.961C55.0562 129.06 55.1834 128 55.2789 126.77C55.3743 125.54 55.4167 124.108 55.4167 122.454V122.465ZM75.4053 136.97H68.2476C68.2476 135.729 68.9156 135.591 70.1987 135.411V122.221C68.852 121.903 68.2476 122.041 68.2476 120.662H75.4053C75.4053 121.892 74.9069 121.998 73.6238 122.221L73.3799 132.898L74.5464 130.99L80.5376 122.783V122.221C79.1591 121.903 78.6607 121.966 78.6607 120.662H85.8078C85.8078 122.03 85.214 121.924 83.8567 122.221V135.411C85.1716 135.634 85.8078 135.697 85.8078 136.97H78.6607C78.6607 135.75 79.1485 135.697 80.4422 135.411V126.579L80.6755 124.744L79.6151 126.579L73.5284 134.902V135.411C74.8327 135.687 75.4053 135.719 75.4053 136.97ZM96.4543 120.662H102.817C102.817 121.935 102.255 122.009 100.95 122.221L96.4331 127.841C97.3447 129.086 98.296 130.303 99.2856 131.488C100.321 132.744 101.374 133.984 102.446 135.21C103.421 136.323 103.845 135.549 103.845 136.97H99.7097C97.5178 134.65 95.5967 132.089 93.9836 129.336H92.9656V135.411C94.238 135.644 94.6516 135.772 94.6516 136.97H87.4409C87.4409 135.697 88.0983 135.666 89.4026 135.411V122.221C88.0771 122.051 87.4515 121.935 87.4515 120.662H94.6516C94.6516 121.892 94.2487 121.924 92.955 122.221V128.148L94.3653 127.819L98.1827 122.221C96.9103 121.977 96.4543 121.86 96.4543 120.662ZM104.439 128.827C104.439 127.607 104.609 126.494 104.969 125.455C105.272 124.458 105.794 123.542 106.497 122.774C107.2 122.005 108.065 121.403 109.031 121.012C110.027 120.588 111.173 120.376 112.466 120.376C113.771 120.376 114.916 120.588 115.913 121.012C116.909 121.436 117.747 122.019 118.426 122.772C119.112 123.553 119.632 124.466 119.953 125.455C120.303 126.483 120.483 127.607 120.483 128.816C120.491 129.961 120.312 131.1 119.953 132.188C119.63 133.173 119.111 134.082 118.426 134.86C117.732 135.629 116.873 136.231 115.913 136.62C114.916 137.044 113.771 137.256 112.466 137.256C111.173 137.256 110.027 137.044 109.02 136.62C108.056 136.23 107.191 135.63 106.488 134.863C105.786 134.096 105.263 133.182 104.959 132.188C104.602 131.1 104.427 129.961 104.439 128.816V128.827ZM108.469 128.827C108.469 129.813 108.553 130.735 108.713 131.583C108.872 132.432 109.126 133.153 109.455 133.768C109.767 134.353 110.219 134.852 110.77 135.22C111.3 135.559 111.936 135.74 112.678 135.74C113.368 135.74 113.951 135.559 114.418 135.21C114.895 134.86 115.276 134.383 115.584 133.768C115.881 133.153 116.104 132.421 116.231 131.583C116.514 129.752 116.507 127.888 116.21 126.059C116.089 125.295 115.849 124.554 115.499 123.864C115.181 123.249 114.757 122.772 114.227 122.422C113.686 122.072 113.039 121.892 112.275 121.892C111.627 121.872 110.988 122.058 110.452 122.422C109.964 122.772 109.571 123.249 109.275 123.864C108.958 124.56 108.751 125.3 108.66 126.059C108.543 126.907 108.479 127.83 108.479 128.816L108.469 128.827ZM135.085 120.662L134.618 124.925C133.303 124.67 133.346 124.182 132.55 122.168H128.097V127.894H131.002C131.384 127.013 131.469 126.303 132.805 126.091V131.244C131.84 131.106 131.564 130.544 131.002 129.399H128.107V135.464H132.741C133.028 134.637 132.826 132.813 134.968 132.495L135.445 136.97H122.593C122.593 135.697 123.229 135.634 124.544 135.411V122.221C123.208 121.966 122.593 121.977 122.593 120.662H135.095H135.085ZM25.63 139.79H30.3594C30.3594 140.734 29.9352 140.787 28.9703 140.956L25.6194 145.123C26.2962 146.048 27.0036 146.95 27.7402 147.827C28.5694 148.833 29.4143 149.827 30.2746 150.807C31.0805 151.284 31.0168 151.104 31.1229 151.899H28.0477C26.3829 150.754 24.8029 147.923 23.8061 146.226H23.0426V150.743C23.997 150.913 24.2939 151.008 24.2939 151.899H18.9495C18.9495 150.944 19.4266 150.923 20.3916 150.732V140.946C19.416 140.819 18.9495 140.734 18.9495 139.79H24.2939C24.2939 140.702 23.9864 140.723 23.0426 140.956V145.346L24.0818 145.102L26.9237 140.946C25.9693 140.766 25.63 140.681 25.63 139.79ZM37.3262 151.899H31.9818C31.9818 150.944 32.4484 150.934 33.424 150.732V140.946C32.4272 140.787 31.9818 140.755 31.9818 139.79H37.3262C37.3262 140.66 37.0081 140.808 36.075 140.956V145.134H40.7407V140.946C39.8076 140.787 39.5001 140.681 39.5001 139.79H44.8339C44.8339 140.776 44.3885 140.766 43.3917 140.956V150.743C44.3779 150.913 44.8339 150.955 44.8339 151.899H39.5001C39.5001 151.019 39.8182 150.923 40.7513 150.732V146.258H36.0538V150.743C36.9763 150.923 37.305 150.997 37.305 151.899H37.3262ZM57.5163 139.79C57.5163 140.766 57.0921 140.744 56.0742 140.956V150.743C57.0497 150.923 57.5163 150.955 57.5163 151.899H52.0552C52.0552 150.955 52.4688 150.944 53.4338 150.732V146.937H51.9492C51.1327 148.76 50.4752 150.648 48.8422 151.899H45.7883C45.767 151.422 45.5656 151.432 46.5729 150.891C47.3152 150.096 47.9303 149.365 48.3968 148.697L49.6905 146.83C49.3694 146.721 49.0603 146.579 48.768 146.406C48.2489 146.103 47.8231 145.662 47.537 145.133C47.2509 144.604 47.1155 144.006 47.1456 143.406C47.1274 142.83 47.2683 142.26 47.5526 141.759C47.8369 141.257 48.2537 140.844 48.7574 140.564C49.2346 140.267 49.7966 140.055 50.4328 139.928C51.2285 139.77 52.0403 139.71 52.8505 139.748L53.4762 139.769L54.1336 139.779L54.7381 139.79H57.5163ZM52.3521 145.919C52.7144 145.911 53.0757 145.879 53.4338 145.823V140.946C53.1185 140.891 52.7993 140.863 52.4794 140.861C52.1401 140.861 51.8113 140.903 51.525 140.999C51.2273 141.084 50.9526 141.234 50.7212 141.44C50.4899 141.646 50.3079 141.901 50.1889 142.186C50.0405 142.494 49.9768 142.865 49.9768 143.321C49.9768 144.18 50.1889 144.837 50.6131 145.261C51.0372 145.696 51.6205 145.919 52.3521 145.919ZM66.1586 140.946C65.2466 140.734 65.0134 140.66 65.0134 139.79H69.6049C69.6049 140.67 69.4564 140.638 68.5657 140.956V145.357L69.764 145.102L72.3089 140.946C71.3546 140.723 71.0152 140.691 71.0152 139.79H75.681C75.681 140.691 75.3629 140.723 74.4085 140.956L71.2379 145.187C71.556 145.579 71.8742 146.014 72.2241 146.481L73.2951 147.944C74.0542 148.961 74.8573 149.944 75.7022 150.891C76.4445 151.316 76.3809 151.167 76.4233 151.899H73.4542C71.503 150.393 70.7077 148.262 69.5095 146.194H68.5551V150.743C69.4883 151.008 69.6897 150.987 69.6897 151.899H64.9285C64.9285 150.987 65.2254 150.955 66.1586 150.732V146.035L65.1618 146.29C64.112 148.262 63.1683 150.499 61.3656 151.899H58.3858C58.3646 151.549 58.1419 151.453 59.1069 150.891C59.5311 150.436 59.9446 149.958 60.3476 149.46C61.0988 148.529 61.8202 147.574 62.5108 146.597L63.3909 145.357L60.2415 140.946C59.319 140.723 59.0539 140.67 59.0539 139.79H63.7197C63.7197 140.691 63.4333 140.723 62.4896 140.956L65.0346 145.198H66.1586V140.956V140.946ZM86.5713 139.79L86.2214 142.96H85.4897L84.6838 140.914H81.386V145.155H83.5386C83.8461 144.519 83.7295 144.01 84.8747 143.819V147.636C83.9309 147.636 83.8779 146.958 83.5386 146.279H81.386V150.775H84.8217L85.7548 148.58H86.4759L86.8364 151.899H77.2928C77.2928 150.955 77.77 150.902 78.735 150.732V140.946C77.7488 140.755 77.2928 140.766 77.2928 139.79H86.5713ZM98.3418 148.273L98.6599 151.411C98.257 151.665 97.748 151.846 97.1223 151.941C96.5073 152.047 95.8711 152.111 95.2348 152.111C94.2486 152.111 93.3685 151.984 92.5838 151.75C91.8275 151.538 91.1307 151.153 90.5478 150.626C89.9712 150.085 89.5283 149.417 89.2542 148.675C88.9243 147.762 88.7661 146.795 88.7876 145.823C88.7876 144.731 88.9572 143.787 89.2966 143.003C89.5893 142.279 90.0388 141.629 90.6126 141.099C91.1865 140.569 91.8705 140.173 92.6156 139.939C93.3579 139.705 94.1426 139.589 94.9697 139.589C95.7438 139.589 96.4437 139.642 97.0693 139.748C97.7056 139.854 98.2146 140.002 98.6175 140.193L98.2146 143.512C97.1754 143.491 97.0799 142.462 96.4967 140.893C96.3907 140.84 96.221 140.787 95.9877 140.755C95.7487 140.724 95.5077 140.71 95.2666 140.713C94.7858 140.699 94.3086 140.8 93.875 141.009C93.4415 141.217 93.0641 141.526 92.7747 141.911C92.4566 142.314 92.1915 142.844 92.0006 143.501C91.8002 144.266 91.7075 145.054 91.7249 145.844C91.7249 147.488 92.0536 148.76 92.7217 149.651C93.4003 150.542 94.3123 150.976 95.4575 150.976C95.7862 150.976 96.0619 150.955 96.3058 150.902C96.5179 150.849 96.677 150.775 96.7618 150.69C97.3026 149.174 96.9739 148.315 98.3524 148.262L98.3418 148.273ZM108.543 151.899H102.477C102.477 150.838 103.008 150.923 104.185 150.732V140.914H102.149C101.778 142.208 101.958 143.544 100.293 143.872L99.9006 139.79H111.141L110.749 143.872C109.603 143.597 109.476 142.483 108.882 140.914H106.836V150.743C108.108 150.976 108.543 150.722 108.543 151.899ZM112.265 151.899C112.265 150.987 112.774 150.838 113.718 150.732V140.946C112.731 140.755 112.265 140.755 112.265 139.79H115.107C115.552 139.79 115.976 139.769 116.379 139.737C116.782 139.705 117.228 139.684 117.758 139.684C118.32 139.684 118.861 139.726 119.391 139.811C119.921 139.886 120.398 140.023 120.801 140.235C121.225 140.447 121.543 140.744 121.787 141.115C122.042 141.487 122.158 141.964 122.158 142.557C122.163 142.904 122.097 143.247 121.966 143.568C121.835 143.889 121.641 144.18 121.395 144.424C121.147 144.67 120.861 144.875 120.547 145.028C120.229 145.198 119.879 145.304 119.497 145.378V145.442C119.879 145.495 120.25 145.579 120.631 145.707C121.013 145.834 121.363 146.025 121.671 146.258C122.004 146.517 122.271 146.85 122.452 147.232C122.632 147.613 122.721 148.031 122.71 148.453C122.71 149.078 122.572 149.619 122.286 150.064C122 150.516 121.611 150.894 121.151 151.167C120.674 151.464 120.133 151.665 119.518 151.803C118.628 152.001 117.712 152.062 116.803 151.984L115.923 151.952C115.404 151.935 114.884 151.918 114.364 151.899H112.265ZM119.338 150.234C119.762 149.81 119.974 149.227 119.974 148.506C119.974 148.071 119.91 147.711 119.762 147.424C119.629 147.155 119.428 146.925 119.179 146.756C118.912 146.58 118.613 146.461 118.299 146.406C117.931 146.34 117.558 146.308 117.185 146.311H116.252V150.764C117.418 150.764 118.659 150.902 119.338 150.234ZM116.814 145.187C117.205 145.191 117.595 145.162 117.98 145.102C118.436 144.922 118.808 144.636 119.094 144.254C119.38 143.862 119.518 143.416 119.518 142.918C119.518 142.197 119.348 141.73 118.988 141.37C118.224 140.628 116.835 140.946 116.252 140.882V145.187H116.814ZM124.555 145.844C124.555 144.943 124.693 144.116 124.947 143.342C125.175 142.605 125.563 141.928 126.083 141.36C126.604 140.792 127.245 140.346 127.959 140.055C128.701 139.737 129.549 139.589 130.525 139.589C131.479 139.589 132.338 139.737 133.07 140.055C133.788 140.34 134.431 140.784 134.953 141.353C135.475 141.922 135.86 142.602 136.082 143.342C136.336 144.116 136.463 144.943 136.463 145.844C136.463 146.746 136.336 147.573 136.082 148.347C135.816 149.11 135.445 149.768 134.936 150.329C134.424 150.898 133.789 151.344 133.081 151.634C132.338 151.952 131.49 152.111 130.525 152.111C129.56 152.111 128.701 151.952 127.969 151.634C127.253 151.345 126.61 150.9 126.087 150.331C125.564 149.763 125.175 149.085 124.947 148.347C124.684 147.539 124.555 146.694 124.566 145.844H124.555ZM127.556 145.844C127.556 146.587 127.62 147.265 127.736 147.891C127.853 148.527 128.033 149.057 128.288 149.524C128.542 149.98 128.871 150.33 129.263 150.584C129.655 150.849 130.133 150.976 130.684 150.976C131.142 150.991 131.592 150.857 131.967 150.595C132.317 150.329 132.603 149.98 132.837 149.524C133.049 149.068 133.218 148.527 133.314 147.891C133.525 146.534 133.521 145.153 133.303 143.798C133.197 143.162 133.017 142.632 132.773 142.165C132.561 141.716 132.222 141.338 131.798 141.078C131.374 140.818 130.884 140.687 130.387 140.702C129.836 140.702 129.39 140.84 129.019 141.094C128.659 141.359 128.372 141.709 128.15 142.165C127.938 142.621 127.779 143.162 127.694 143.798C127.609 144.424 127.556 145.102 127.556 145.844Z" fill="white"/>
<path fill-rule="evenodd" clip-rule="evenodd" d="M52.4051 163.128C52.5748 163.128 52.702 163.128 52.7869 163.17C52.8717 163.202 52.9247 163.276 52.9459 163.371C52.9671 163.477 52.9777 163.636 52.9777 163.849V168.705C52.9777 168.864 52.9777 168.991 52.9565 169.086C52.9536 169.163 52.9278 169.237 52.8823 169.299C52.8399 169.352 52.7763 169.373 52.6808 169.394L52.3097 169.415V169.839H54.8971V169.415C54.7062 169.415 54.5577 169.415 54.4517 169.394C54.3457 169.383 54.2608 169.352 54.2184 169.299C54.1654 169.256 54.1336 169.182 54.123 169.086C54.1124 168.98 54.1018 168.843 54.1124 168.662V163.721L54.123 163.318C54.1442 163.212 54.176 163.149 54.229 163.106C54.2953 163.052 54.3767 163.018 54.4623 163.011L54.8971 162.99V162.566H47.7181V162.99C47.8984 162.99 48.0363 162.99 48.1529 163.011C48.2589 163.022 48.3438 163.053 48.3968 163.096C48.4498 163.138 48.4816 163.212 48.5028 163.308L48.524 163.721V168.673C48.524 168.843 48.524 168.991 48.5028 169.076C48.4948 169.16 48.4572 169.239 48.3968 169.299C48.3305 169.353 48.2491 169.386 48.1635 169.394L47.7181 169.415V169.839H50.3161V169.415C50.104 169.415 49.9556 169.405 49.8602 169.373C49.8148 169.358 49.7741 169.332 49.7424 169.297C49.7107 169.261 49.6891 169.218 49.6799 169.171C49.6481 169.065 49.6375 168.917 49.6481 168.705V163.827C49.6481 163.615 49.6481 163.467 49.6799 163.361C49.7011 163.255 49.7541 163.191 49.8389 163.159C49.9238 163.138 50.051 163.117 50.2207 163.128H52.4051ZM57.4102 165.906C57.4152 166.634 57.5629 167.354 57.845 168.026C58.004 168.355 58.2055 168.652 58.4706 168.906C58.7251 169.161 59.0432 169.373 59.425 169.511C59.8067 169.659 60.2521 169.744 60.7611 169.744C61.2913 169.744 61.7791 169.638 62.2138 169.447C62.6402 169.265 63.0179 168.985 63.3167 168.631C63.4969 168.376 63.6454 168.1 63.7726 167.803C64.0109 167.2 64.1263 166.554 64.112 165.906C64.1076 165.182 63.9523 164.467 63.656 163.806C63.4969 163.477 63.2849 163.181 63.0197 162.926C62.7462 162.659 62.4216 162.45 62.0654 162.311C61.6492 162.152 61.2067 162.073 60.7611 162.078C60.2627 162.078 59.8173 162.163 59.4462 162.322C59.0893 162.464 58.7647 162.677 58.4918 162.947C58.2315 163.207 58.0164 163.508 57.8556 163.838C57.5606 164.488 57.4053 165.192 57.3996 165.906H57.4102ZM58.5873 165.906C58.5877 165.21 58.7134 164.521 58.9584 163.87C59.0644 163.637 59.1917 163.424 59.3508 163.234C59.5224 163.028 59.7385 162.864 59.9828 162.753C60.2271 162.643 60.4932 162.59 60.7611 162.597C61.0898 162.597 61.3973 162.682 61.6624 162.831C61.9406 162.987 62.1799 163.205 62.3623 163.467C62.888 164.592 63.0368 165.856 62.7865 167.072C62.6943 167.495 62.5481 167.905 62.3517 168.291C62.1102 168.649 61.7666 168.926 61.3655 169.086C60.967 169.244 60.5234 169.244 60.1249 169.086C59.7219 168.914 59.3788 168.626 59.1387 168.259C58.9304 167.883 58.787 167.475 58.7145 167.051C58.6373 166.674 58.5947 166.29 58.5873 165.906ZM72.7755 162.555H70.6228V162.99C70.7607 162.99 70.8773 163.011 70.941 163.032C71.0258 163.053 71.0576 163.096 71.0576 163.159C71.0576 163.212 71.0258 163.287 70.9622 163.382C70.9091 163.488 70.8137 163.594 70.6971 163.743L68.7247 165.99V163.7C68.7247 163.488 68.7353 163.318 68.7671 163.212C68.7989 163.106 68.8732 163.053 68.9792 163.022C69.0747 163 69.2443 162.99 69.4564 162.99V162.566H66.8054V162.99C66.9857 162.99 67.1341 162.99 67.2508 163.011C67.3568 163.022 67.4416 163.043 67.484 163.096C67.5371 163.138 67.5689 163.202 67.5901 163.308L67.6007 163.69V168.705L67.5901 169.086C67.5689 169.192 67.5371 169.256 67.484 169.299C67.4162 169.349 67.3351 169.378 67.2508 169.383L66.7948 169.394V169.85H69.5094V169.394L69.0853 169.383C69.0008 169.379 68.9195 169.349 68.852 169.299C68.7915 169.243 68.7537 169.168 68.7459 169.086C68.7288 168.96 68.7217 168.832 68.7247 168.705V166.945L69.3928 166.149L71.5772 169.85H73.2208V169.415C73.0936 169.415 72.9875 169.415 72.9027 169.394C72.8166 169.382 72.7337 169.353 72.6588 169.309C72.5739 169.25 72.4988 169.179 72.4361 169.097C72.3513 168.991 72.2665 168.853 72.1604 168.684L70.1881 165.354L71.7681 163.499C71.8847 163.361 71.9802 163.255 72.0862 163.181C72.1741 163.112 72.2751 163.061 72.3831 163.032C72.4891 163 72.6164 162.99 72.7649 163V162.566L72.7755 162.555ZM75.0447 166.192C75.0447 166.552 75.0871 166.913 75.1508 167.284C75.225 167.644 75.331 167.984 75.4901 168.312C75.6491 168.641 75.8506 168.938 76.1157 169.192C76.3702 169.458 76.6883 169.659 77.0701 169.807C77.4412 169.956 77.8866 170.03 78.4062 170.03C78.9364 170.03 79.4242 169.935 79.8589 169.744C80.2863 169.558 80.6641 169.275 80.9618 168.917C81.142 168.673 81.2905 168.387 81.4071 168.09C81.6488 167.487 81.7677 166.841 81.7571 166.192C81.7497 165.467 81.5908 164.752 81.2905 164.092C80.9763 163.408 80.4048 162.874 79.6999 162.608C79.287 162.45 78.8482 162.371 78.4062 162.375C77.8972 162.375 77.4518 162.46 77.0807 162.608C76.7096 162.767 76.3914 162.969 76.1263 163.234C75.8697 163.494 75.6583 163.795 75.5007 164.124C75.2063 164.774 75.051 165.478 75.0447 166.192ZM76.2324 166.192C76.2341 165.5 76.3598 164.814 76.6035 164.167C76.7095 163.933 76.8368 163.711 76.9959 163.53C77.1675 163.325 77.3836 163.16 77.6279 163.05C77.8722 162.94 78.1383 162.887 78.4062 162.894C78.7243 162.894 79.0318 162.969 79.3075 163.117C79.5857 163.274 79.825 163.491 80.0074 163.753C80.5316 164.878 80.6803 166.142 80.4316 167.358C80.34 167.785 80.1939 168.198 79.9968 168.588C79.7534 168.944 79.4104 169.221 79.0106 169.383C78.6121 169.541 78.1685 169.541 77.7699 169.383C77.573 169.304 77.3903 169.193 77.2291 169.055C77.0565 168.912 76.9063 168.744 76.7838 168.556C76.5744 168.177 76.4309 167.764 76.3596 167.337C76.2825 166.96 76.2399 166.577 76.2324 166.192ZM85.7442 168.906H85.776C85.9457 169.076 86.1259 169.224 86.3168 169.341C86.7395 169.613 87.2352 169.75 87.7377 169.733C88.1195 169.733 88.48 169.659 88.8193 169.521C89.1587 169.383 89.4556 169.161 89.7207 168.853C89.9752 168.535 90.1767 168.143 90.3251 167.644C90.6409 166.514 90.6409 165.318 90.3251 164.188C90.2082 163.765 90.0101 163.369 89.7419 163.022C89.5131 162.731 89.2219 162.495 88.8896 162.331C88.5574 162.168 88.1928 162.081 87.8226 162.078C87.409 162.078 87.0379 162.173 86.6985 162.343C86.3698 162.513 86.0517 162.767 85.7442 163.096H85.723L85.67 162.194L85.5321 162.088C85.0033 162.435 84.407 162.667 83.7824 162.767V163.159C83.9839 163.159 84.143 163.159 84.2596 163.191C84.3657 163.212 84.4505 163.255 84.5035 163.329C84.5565 163.403 84.5989 163.509 84.6095 163.647L84.6308 164.209V171.811L84.6095 172.373C84.6033 172.487 84.5667 172.597 84.5035 172.691C84.4375 172.766 84.3474 172.815 84.249 172.829C84.1324 172.851 83.9733 172.861 83.7824 172.861V173.285H86.5925V172.861C86.4016 172.861 86.2426 172.851 86.1365 172.829C86.0382 172.815 85.9481 172.766 85.882 172.691C85.8169 172.598 85.78 172.487 85.776 172.373C85.7548 172.236 85.7442 172.055 85.7442 171.833V168.906ZM85.7442 163.774C85.9032 163.583 86.0623 163.414 86.2532 163.244C86.4228 163.085 86.6243 162.958 86.8364 162.852C87.0485 162.756 87.2712 162.703 87.5257 162.703C87.8905 162.703 88.2422 162.839 88.5118 163.085C88.6709 163.223 88.8087 163.403 88.936 163.647C89.0848 163.923 89.192 164.22 89.2541 164.527C89.4233 165.438 89.4233 166.373 89.2541 167.284C89.1587 167.676 89.042 168.016 88.8936 168.281C88.7769 168.493 88.6391 168.641 88.4906 168.768C88.2134 168.997 87.8641 169.121 87.5044 169.118C87.1545 169.118 86.8364 169.033 86.5501 168.864C86.2532 168.694 85.9881 168.44 85.7442 168.122V163.774ZM95.2984 168.291C95.2136 168.44 95.1287 168.556 95.0545 168.652C94.9954 168.73 94.9237 168.798 94.8424 168.853C94.771 168.896 94.6917 168.925 94.6091 168.938C94.5243 168.959 94.4077 168.959 94.291 168.959V169.415H95.8922L97.8328 166.096H98.6917V168.27L98.6811 168.662C98.6744 168.742 98.6407 168.817 98.5857 168.874C98.5181 168.925 98.4368 168.955 98.3524 168.959L97.9282 168.98V169.405H100.622V168.98C100.441 168.98 100.293 168.98 100.176 168.959C100.092 168.954 100.011 168.925 99.943 168.874C99.8899 168.821 99.8581 168.758 99.8369 168.662C99.8278 168.532 99.8278 168.401 99.8369 168.27V162.873C99.8465 162.792 99.884 162.717 99.943 162.661C100.011 162.61 100.092 162.581 100.176 162.576L100.622 162.555V162.131H97.7691C97.1435 162.131 96.6133 162.216 96.1997 162.375C95.7756 162.534 95.4575 162.767 95.2454 163.053C95.0333 163.34 94.9273 163.668 94.9273 164.05C94.9273 164.347 94.9803 164.633 95.1181 164.898C95.2348 165.174 95.4363 165.397 95.712 165.587C95.9771 165.778 96.3376 165.906 96.7724 165.969L95.2984 168.302V168.291ZM98.469 162.65C98.5326 162.65 98.5751 162.65 98.6175 162.682C98.6493 162.714 98.6705 162.767 98.6811 162.841L98.6917 163.202V165.587H98.0236C97.6737 165.587 97.3768 165.545 97.1435 165.471C96.8996 165.397 96.7193 165.301 96.5815 165.174C96.4504 165.07 96.3421 164.94 96.2634 164.792C96.1107 164.423 96.0738 164.016 96.1573 163.626C96.2088 163.437 96.305 163.263 96.4379 163.119C96.5708 162.975 96.7365 162.865 96.9208 162.799C97.1435 162.693 97.451 162.65 97.8116 162.65H98.469ZM104.248 168.291L104.004 168.652C103.945 168.73 103.874 168.798 103.792 168.853C103.721 168.896 103.642 168.925 103.559 168.938C103.474 168.959 103.357 168.959 103.23 168.959V169.415H104.842L106.783 166.096H107.641V168.27C107.641 168.429 107.641 168.567 107.62 168.662C107.617 168.741 107.587 168.815 107.535 168.874C107.468 168.925 107.387 168.955 107.302 168.959L106.878 168.98V169.405H109.571V168.98C109.381 168.98 109.243 168.98 109.126 168.959C109.042 168.954 108.961 168.925 108.893 168.874C108.834 168.818 108.796 168.743 108.787 168.662C108.778 168.532 108.778 168.401 108.787 168.27V162.873C108.796 162.792 108.834 162.717 108.893 162.661C108.96 162.61 109.042 162.581 109.126 162.576L109.571 162.555V162.131H106.719C106.083 162.131 105.563 162.216 105.139 162.375C104.715 162.534 104.397 162.767 104.185 163.053C103.972 163.34 103.866 163.668 103.866 164.05C103.866 164.347 103.93 164.633 104.057 164.898C104.185 165.174 104.386 165.397 104.662 165.587C104.927 165.778 105.277 165.906 105.722 165.969L104.248 168.302V168.291ZM107.419 162.65C107.482 162.65 107.525 162.65 107.567 162.682C107.599 162.714 107.62 162.767 107.631 162.841L107.641 163.202V165.587H106.973C106.624 165.587 106.327 165.545 106.083 165.471C105.849 165.397 105.659 165.301 105.521 165.174C105.394 165.069 105.289 164.939 105.213 164.792C105.06 164.423 105.023 164.016 105.107 163.626C105.16 163.439 105.255 163.267 105.386 163.124C105.517 162.98 105.679 162.869 105.86 162.799C106.093 162.693 106.39 162.65 106.761 162.65H107.419ZM53.6988 180.114C54.0275 180.039 54.3032 179.923 54.5471 179.764C54.761 179.608 54.935 179.404 55.0548 179.168C55.1746 178.932 55.2368 178.671 55.2364 178.406C55.2364 178.12 55.1834 177.887 55.0879 177.696C54.9819 177.505 54.8547 177.346 54.6956 177.219C54.5259 177.102 54.3457 177.007 54.1442 176.933C53.6247 176.779 53.0845 176.708 52.543 176.721H49.8071V177.155C49.998 177.155 50.1465 177.155 50.2525 177.177C50.3585 177.187 50.4434 177.219 50.4964 177.261C50.5494 177.304 50.5812 177.378 50.6024 177.473V183.252C50.5812 183.337 50.5494 183.411 50.4964 183.464C50.4246 183.513 50.3395 183.539 50.2525 183.538C50.1465 183.56 49.998 183.56 49.8071 183.56V184.005H52.9459C53.3017 183.999 53.6564 183.964 54.0063 183.899C54.1972 183.856 54.3987 183.793 54.5895 183.697C54.7963 183.61 54.9829 183.481 55.1379 183.319C55.2929 183.157 55.4131 182.964 55.4909 182.754C55.5757 182.531 55.6287 182.245 55.6287 181.927C55.6323 181.721 55.5947 181.516 55.5182 181.325C55.4418 181.134 55.3279 180.96 55.1834 180.813C55.048 180.68 54.8945 180.565 54.7274 180.474C54.4106 180.295 54.0605 180.184 53.6988 180.145V180.114ZM51.7371 179.944V177.579C51.7371 177.473 51.7371 177.389 51.7689 177.336C51.8007 177.293 51.8643 177.272 51.9598 177.272H52.6808C52.8293 177.272 52.9883 177.283 53.1474 177.314C53.3171 177.346 53.4655 177.41 53.6034 177.495C53.7518 177.579 53.8685 177.707 53.9533 177.866C54.0381 178.035 54.0912 178.247 54.0912 178.523C54.0956 178.736 54.0476 178.947 53.9515 179.138C53.8553 179.328 53.714 179.492 53.5398 179.615C53.3807 179.721 53.2004 179.806 53.0096 179.859C52.8187 179.912 52.6278 179.944 52.4369 179.944H51.7371ZM52.034 183.454C51.9491 183.454 51.8855 183.454 51.8431 183.422C51.8007 183.401 51.7689 183.358 51.7583 183.305C51.7402 183.218 51.7331 183.129 51.7371 183.04V180.442H52.6172C52.9883 180.442 53.2959 180.495 53.5398 180.591C53.773 180.697 53.9639 180.813 54.0912 180.972C54.229 181.121 54.3138 181.28 54.3669 181.439C54.4199 181.609 54.4517 181.757 54.4411 181.895C54.4411 182.393 54.3138 182.775 54.07 183.04C53.8155 183.316 53.4337 183.464 52.9353 183.464H52.034V183.454ZM65.9677 176.721H63.8257V177.155C63.9635 177.155 64.0802 177.166 64.1438 177.198C64.2286 177.219 64.2604 177.261 64.2604 177.314C64.2604 177.378 64.2286 177.452 64.165 177.548C64.112 177.654 64.0165 177.76 63.8999 177.908L61.9275 180.156V177.866C61.9275 177.643 61.9381 177.484 61.9699 177.378C62.0018 177.272 62.076 177.219 62.182 177.187C62.2881 177.166 62.4471 177.155 62.6592 177.155V176.731H60.0082V177.155C60.1885 177.155 60.3369 177.155 60.4536 177.177C60.5596 177.177 60.6444 177.208 60.6869 177.251C60.7399 177.304 60.7717 177.367 60.7929 177.463C60.7929 177.569 60.8141 177.686 60.8035 177.855V182.86L60.7929 183.252C60.7717 183.358 60.7399 183.422 60.6869 183.464C60.619 183.514 60.5379 183.544 60.4536 183.549L59.9976 183.56V184.005H62.7122V183.56L62.2881 183.549C62.2036 183.545 62.1223 183.515 62.0548 183.464C61.9943 183.409 61.9565 183.333 61.9487 183.252C61.9311 183.122 61.924 182.991 61.9275 182.86V181.11L62.5956 180.315L64.78 184.005H66.4236V183.581L66.1055 183.56C66.0187 183.544 65.9358 183.512 65.8616 183.464C65.7769 183.405 65.7018 183.334 65.6389 183.252L65.3632 182.849L63.3909 179.52L64.9709 177.664C65.0875 177.526 65.1936 177.42 65.289 177.346C65.3769 177.277 65.4779 177.227 65.5859 177.198C65.692 177.166 65.8192 177.155 65.9677 177.155V176.731V176.721ZM73.1254 183.931L72.4891 185.818C72.3456 186.158 72.1791 186.487 71.9908 186.804C71.8847 186.974 71.7575 187.101 71.6302 187.196C71.5136 187.293 71.3683 187.349 71.2167 187.355C71.1569 187.356 71.0977 187.344 71.0429 187.321C70.988 187.297 70.9389 187.262 70.8985 187.218C70.8137 187.122 70.7395 187.006 70.6759 186.878C70.6321 186.797 70.5825 186.719 70.5274 186.645C70.4761 186.573 70.4113 186.512 70.3365 186.465C70.2517 186.42 70.1567 186.398 70.0608 186.401C69.9548 186.401 69.87 186.444 69.7957 186.528C69.7178 186.628 69.6766 186.752 69.6791 186.878C69.6791 186.974 69.7003 187.08 69.7533 187.196C69.7957 187.302 69.8699 187.408 69.976 187.525C70.082 187.631 70.2199 187.727 70.4002 187.801C70.7582 187.931 71.1487 187.942 71.5136 187.833C71.6832 187.79 71.8529 187.684 72.0226 187.546C72.2028 187.408 72.3831 187.196 72.5528 186.921C72.733 186.645 72.9133 186.285 73.083 185.829L75.893 177.876C75.9673 177.664 76.0415 177.516 76.1051 177.41C76.1687 177.304 76.243 177.24 76.3384 177.198C76.4479 177.163 76.563 177.148 76.6777 177.155V176.731H74.8008V177.155C75.0129 177.155 75.172 177.177 75.2674 177.208C75.3628 177.251 75.4053 177.314 75.4053 177.41C75.4053 177.46 75.3981 177.51 75.384 177.558L75.3204 177.739L73.6662 182.478H73.6344L71.9483 178.004L71.8423 177.685C71.8228 177.613 71.8121 177.538 71.8105 177.463C71.8105 177.357 71.8529 177.272 71.9589 177.219C72.065 177.177 72.224 177.155 72.4573 177.155V176.731H69.8593V177.155C69.9866 177.155 70.0926 177.166 70.1775 177.187C70.2517 177.208 70.3259 177.24 70.3895 177.314C70.4426 177.378 70.5062 177.484 70.5698 177.611C70.6334 177.76 70.7183 177.929 70.8031 178.173L73.1254 183.92V183.931ZM83.9203 182.308C83.6764 182.743 83.3901 183.072 83.0826 183.273C82.8185 183.457 82.5101 183.566 82.1894 183.591C81.8687 183.615 81.5473 183.553 81.2587 183.411C80.9998 183.276 80.7778 183.079 80.6118 182.839C80.4026 182.529 80.2516 182.184 80.1665 181.821C80.0604 181.397 80.0074 180.898 79.9968 180.315C79.9968 179.711 80.0604 179.191 80.1771 178.778C80.3043 178.353 80.4528 178.025 80.6436 177.781C80.8345 177.526 81.0466 177.346 81.2693 177.23C81.492 177.124 81.7146 177.071 81.9267 177.071C82.0858 177.066 82.2439 177.096 82.3904 177.158C82.5368 177.22 82.668 177.313 82.775 177.431C82.8705 177.537 82.9553 177.664 83.0295 177.813C83.1563 178.045 83.2871 178.275 83.4219 178.502C83.4643 178.555 83.5173 178.597 83.5598 178.608C83.6128 178.629 83.6658 178.64 83.7294 178.64C83.8673 178.64 83.9627 178.587 84.0369 178.491C84.1006 178.385 84.143 178.258 84.143 178.088C84.143 177.908 84.0899 177.728 83.9839 177.558C83.8773 177.362 83.7332 177.189 83.5598 177.049C83.3583 176.901 83.1356 176.774 82.8493 176.678C82.5442 176.582 82.2255 176.535 81.9055 176.54C81.479 176.535 81.0568 176.627 80.671 176.808C80.2852 176.99 79.9458 177.258 79.6787 177.59C79.403 177.919 79.1909 178.322 79.0424 178.778C78.894 179.234 78.8197 179.753 78.8197 180.315C78.8197 180.707 78.8516 181.089 78.9258 181.471C78.9788 181.842 79.0955 182.192 79.2439 182.531C79.3818 182.849 79.5726 183.135 79.8059 183.379C80.0498 183.634 80.3361 183.825 80.6542 183.973C81.3317 184.245 82.0848 184.264 82.775 184.026C83.0401 183.931 83.2734 183.803 83.4643 183.644C83.6552 183.485 83.8248 183.316 83.9627 183.135C84.1006 182.945 84.2172 182.775 84.3126 182.605L83.9203 182.308ZM88.1619 180.506C88.1619 180.866 88.1937 181.227 88.2573 181.587C88.3316 181.948 88.4376 182.298 88.5967 182.627C88.7557 182.945 88.9572 183.241 89.2223 183.507C89.4768 183.761 89.7949 183.962 90.1767 184.111C90.5478 184.259 90.9932 184.344 91.5128 184.344C92.043 184.344 92.5308 184.238 92.9655 184.047C93.3918 183.865 93.7695 183.585 94.0683 183.231C94.5978 182.421 94.8746 181.473 94.8636 180.506C94.8577 179.778 94.6988 179.059 94.3971 178.396C94.0829 177.711 93.5114 177.178 92.8065 176.911C92.3936 176.754 91.9548 176.675 91.5128 176.678C91.0038 176.678 90.5584 176.763 90.1873 176.911C89.8295 177.057 89.5049 177.273 89.2329 177.548C88.9763 177.808 88.7649 178.109 88.6073 178.438C88.3132 179.088 88.1579 179.793 88.1513 180.506H88.1619ZM89.3389 180.506C89.3394 179.811 89.4651 179.121 89.7101 178.47C89.8161 178.237 89.9434 178.025 90.1024 177.834C90.2735 177.627 90.4895 177.463 90.7339 177.353C90.9784 177.242 91.2448 177.189 91.5128 177.198C91.8309 177.198 92.1384 177.283 92.4141 177.431C92.6923 177.588 92.9316 177.805 93.114 178.067C93.6375 179.193 93.7862 180.456 93.5381 181.672C93.4455 182.095 93.2994 182.505 93.1034 182.892C92.859 183.247 92.5163 183.523 92.1172 183.687C91.7185 183.843 91.2752 183.843 90.8765 183.687C90.4735 183.514 90.1305 183.227 89.8904 182.86C89.6811 182.484 89.5377 182.075 89.4662 181.651C89.389 181.274 89.3464 180.891 89.3389 180.506ZM104.291 177.007L101.767 182.807H101.746L99.1371 177.018H97.2708V177.442L97.6949 177.463C97.801 177.473 97.8858 177.505 97.9388 177.548C97.9812 177.601 98.013 177.664 98.0342 177.76C98.0342 177.855 98.0555 177.972 98.0448 178.141V183.135L98.0342 183.538C98.023 183.619 97.9858 183.693 97.9282 183.75C97.8661 183.807 97.7886 183.844 97.7055 183.856H97.2708V184.302H99.4128V183.867C99.2325 183.867 99.0946 183.867 98.9886 183.846C98.8932 183.835 98.8189 183.803 98.7765 183.761C98.7228 183.702 98.6894 183.628 98.6811 183.549C98.6705 183.443 98.6599 183.305 98.6705 183.135V178.544H98.6917L101.332 184.344H101.682L104.216 178.587H104.248V183.146L104.238 183.538C104.23 183.618 104.197 183.692 104.142 183.75C104.077 183.809 103.996 183.846 103.909 183.856H103.485V184.302H106.168V183.867C105.987 183.867 105.839 183.867 105.722 183.846C105.634 183.842 105.55 183.812 105.478 183.761C105.425 183.708 105.393 183.634 105.372 183.549V177.76C105.393 177.654 105.425 177.59 105.478 177.548C105.548 177.492 105.633 177.458 105.722 177.452C105.828 177.442 105.977 177.431 106.168 177.442V177.007H104.291Z" fill="#00543F"/>
<path fill-rule="evenodd" clip-rule="evenodd" d="M137.503 117.418L17.3695 118.521L17.8997 48.0635L18.9177 47.2895C22.873 44.31 24.6121 42.9953 25.8209 37.5983H42.0663L42.1723 37.206C44.5909 28.9016 49.2939 21.4436 55.7455 15.6819C61.8958 10.2532 69.2762 6.93442 76.7202 6.71175C84.4082 6.47849 92.2021 9.51095 98.7766 14.9503C105.702 20.794 110.816 28.493 113.516 37.1424L113.643 37.5241H130.271C130.733 39.6605 131.597 41.6897 132.816 43.5042C134.146 45.2915 135.814 46.8008 137.725 47.9469L137.513 117.418H137.503Z" fill="#FFFCF0"/>
<path fill-rule="evenodd" clip-rule="evenodd" d="M76.7626 40.0479L79.1379 45.1903L84.249 53.6727L90.3994 64.615L95.4363 72.4825L96.6981 73.617L96.1361 70.3301L98.7871 65.4315L99.7203 63.3109L100.07 61.6992L101.332 59.4938L103.803 52.3261L104.736 51.287L106.21 53.0684L107.928 58.741L111.841 68.0716L113.94 71.8463L113.675 73.2671L112.689 74.4652L112.912 79.5865L112.116 85.7362L111.819 91.5679L111.66 98.2372L118.288 98.2902L118.458 95.0775L115.531 93.5401L115.499 86.7541L118.659 86.7859L118.574 88.8005H120.79L120.578 87.0192L124.163 86.9132L124.131 88.6097L126.039 88.7475L126.326 87.5069H129.221L128.987 88.8853L130.833 88.7263L130.79 87.2419L133.123 87.2949L133.176 92.9145L130.493 95.5652L130.26 117.991L26.139 119.019L24.7286 113.209L25.3649 102.69L24.8983 97.495L22.0776 94.7594L21.7383 88.4294L26.3828 90.0305L26.245 88.1219L27.9628 88.1113L29.6807 88.0901L29.7549 90.3274L32.1302 90.0835L32.2469 88.4082H34.9191L34.813 89.935L37.0505 89.67L36.849 85.2167L36.0007 82.3539L35.8098 78.8231L34.3995 77.9854L34.0283 76.7449L36.8066 72.79L40.1363 65.7178L42.8933 55.8145L44.0916 58.02L45.1944 62.5156L46.9653 68.0398L49.0118 71.1359L49.542 72.9172L51.5144 77.5401L56.9967 69.0789L57.0921 68.8987L64.674 58.5077L70.485 48.7211L71.7045 46.8974L72.7543 46.6005L76.7732 40.0479H76.7626Z" fill="#FED69D"/>
<path fill-rule="evenodd" clip-rule="evenodd" d="M63.7833 100.729L63.8151 98.6082L63.9 96.424L63.8681 95.5334L64.0802 93.0841L64.1545 90.3485L64.2393 88.2067L63.8681 83.0112L64.1014 79.3744L64.0696 76.66L63.8469 73.9032L63.8151 71.9629L63.8681 69.8422L63.5288 69.047L63.2107 68.2518L62.4472 67.7641L62.2457 66.9158L62.8502 66.0676C62.8502 66.0676 64.0166 64.5195 64.2393 64.3711C64.4726 64.2332 65.3845 62.4413 65.3845 62.4413L66.201 60.2995L67.3463 57.8502L67.9189 56.0477L68.8732 53.2273L69.5095 51.6899L70.1351 49.2088L70.5593 47.5229L71.2167 45.0206L71.2698 43.1332L71.5879 35.5309L71.344 35.3188L71.1955 35.0431L71.2485 34.6508L71.4394 34.3009L71.6621 34.1419L71.5879 27.2499L71.8636 27.2075L71.906 28.6071L73.6557 30.452L72.7861 30.8019L73.3481 31.735L73.6345 32.7529L72.8498 32.1697L72.0544 31.5654L71.9484 32.7529L71.8742 34.0995L72.1923 34.2797L72.4044 34.619L72.3302 35.0431L72.012 35.3612L71.8742 35.4355L71.8636 37.5773L72.012 43.7376L72.3832 45.2963L72.8285 46.8867L73.5708 48.8907L73.8253 49.951L74.6206 52.4851L75.681 55.4964L77.3883 60.607L78.7032 63.0669L79.5833 64.0318L80.4104 64.9755L81.0679 65.6116L81.3754 66.4917L81.3648 67.446L80.9512 68.4002L80.6119 69.1849L80.3998 70.1921L80.2938 73.5639L80.0393 76.7448L80.0181 78.1232L79.9332 80.371L79.8696 82.3114L80.0393 83.8488L79.8166 84.5274L79.7106 90.0092L79.6469 94.7699L79.3076 89.7441L79.1592 87.8992L79.1379 84.8455C79.1379 84.8455 79.1061 82.0251 79.1379 81.654L79.244 79.8833L79.3288 75.9178L79.2758 74.3803L79.5303 72.7051L79.6363 70.224L79.7636 68.22L79.403 67.2657L78.0669 66.4387L76.5718 66.2584L75.1084 66.6295L74.5994 69.1955L73.7829 66.6825L72.5847 65.9721L71.2485 65.8661C71.2485 65.8661 70.5063 66.1736 70.3366 66.2902C70.1669 66.3963 69.308 67.3717 69.308 67.3717V68.6335L69.3716 70.436C69.3716 70.436 69.3928 73.0762 69.5095 74.1259C69.6155 75.1862 69.4777 76.607 69.4777 76.607C69.4777 76.607 69.0853 74.2955 69.0005 74.0941C68.9157 73.9032 68.6824 72.3976 68.6824 72.3976L68.6506 69.5984L68.4279 66.8734L66.8903 66.7144L64.6104 67.5626L66.1798 65.9721L67.8341 65.4844L69.5307 65.4314L72.7543 65.4844L76.1158 65.7177L77.823 65.8555L79.3076 66.6295L80.3574 67.4248L80.5589 66.2266L79.8166 65.2299L79.0425 64.5831L78.1412 64.1378L76.8687 63.7455L75.4583 63.5334L73.4118 63.5759L74.5252 63.226L76.1476 63.2048L77.4943 63.4592L78.6183 63.8091L77.9397 62.7488L77.0596 61.6355L76.3173 58.5076L75.4053 56.8217L74.9812 55.507L74.3237 53.0259L73.4966 50.8628C73.4966 50.8628 72.8073 49.7283 72.8073 49.5269C72.8073 49.3148 71.959 47.1942 71.959 47.1942L70.8774 48.4454L70.5381 50.1843C70.5381 50.1843 70.0503 51.552 69.9973 51.7429C69.9336 51.955 69.1702 53.7999 69.1702 53.7999L68.5975 55.4858L68.3112 56.8217L67.7386 58.5606L67.2296 60.1511L66.3813 61.9218L65.5542 63.4592L65.2997 64.0636L66.254 63.6607L67.6326 63.1517L69.8594 63.4062L67.6644 63.5865L66.0526 64.2226L64.3983 65.0497L63.5818 65.9191L63.1047 66.7462L63.1259 67.5096L64.1226 66.937L66.1798 65.9827L64.6104 67.5732L63.9318 68.5063L64.3877 69.9059L64.2181 73.5851L65.3103 75.9072L65.0134 78.4943L65.0452 85.3014L65.3845 89.7441L64.9285 92.819L64.5574 96.7633L64.3347 99.0748L64.0378 101.376L63.7833 106.741L63.8681 110.961L63.6985 113.071L63.2743 109.678L63.4122 105.649L63.7833 100.729Z" fill="#00543F"/>
<path fill-rule="evenodd" clip-rule="evenodd" d="M65.7875 71.6659L65.7345 70.8176L65.6284 70.0118L65.6496 69.3544L65.7769 68.8561L66.2328 68.4319H66.8267L67.166 68.75L67.4841 69.1742L67.6326 70.1284L67.6432 70.8812L67.0069 71.0721L66.1904 71.4326L65.7875 71.6659ZM70.7077 71.0933L71.6091 71.0403L72.8816 70.913L72.9558 69.7149V68.4956L72.6695 67.7109H72.0757L71.4924 67.8594L70.941 68.2835L70.6441 69.5877L70.7077 71.1039V71.0933ZM76.2006 70.86L76.1264 69.4498L76.2643 68.6016L76.5506 68.2411L76.9959 68.082L77.3883 68.2941L77.611 68.5592L77.823 69.0363L77.77 69.7891L77.6428 70.8494H76.2006V70.86Z" fill="#00543F"/>
<path fill-rule="evenodd" clip-rule="evenodd" d="M64.3346 80.5298L63.2 80.8373L61.0156 81.5795L58.5236 82.5126L55.9363 83.4032L53.3595 84.1773L50.7403 84.9831L47.9726 86.2342L46.3608 86.5735L46.7744 87.8247L46.838 98.0778L47.2304 101.185L46.3078 105.712L46.223 108.967L45.9579 112.148L45.8518 107.112L46.1275 102.467L45.5973 91.2283L45.767 87.2097L44.7384 86.669L46.1593 84.7922C46.3078 84.5802 47.4742 83.1912 47.6121 83.0215C47.7606 82.8519 52.9247 74.3907 52.9247 74.3907L55.4697 70.4039L58.916 66.0885L61.4822 62.1548L62.076 61.6353L63.3803 59.1966L65.2678 56.2595L66.5615 54.3086L67.3038 53.2801L70.3047 48.5405L69.7427 51.4776L68.5126 52.856L67.5795 54.0859L66.9963 54.9978L65.2996 57.5637L60.9414 63.8619L59.2341 66.6611L57.1769 68.9089L56.3816 70.2237L55.7242 71.1037L54.1866 73.394L51.8855 77.0308L50.0086 80.4238L48.524 82.6504L46.8486 84.7074L48.3862 84.5272L51.3977 83.4457L53.7942 82.7671L56.3816 81.5689L61.164 79.7134L64.3028 78.229L64.3346 80.5298Z" fill="#00543F"/>
<path fill-rule="evenodd" clip-rule="evenodd" d="M58.1631 76.1298L59.2235 75.6103L60.4005 75.2922L60.7187 75.1968L60.6975 73.6487L60.4854 72.6945L59.9764 72.3022L59.2341 72.2703L58.6721 72.6308L58.3328 73.2246L58.1843 74.3379L58.1631 76.1192V76.1298ZM83.846 75.0483V73.7124L83.7718 72.546L83.8778 71.666L84.249 71.1146L84.7792 70.8813L85.3624 71.1358L85.5851 71.772L85.7866 72.6627V74.5076L85.935 75.7375L83.846 75.0377V75.0483ZM91.4597 76.9569L91.5128 75.2816L91.5446 74.1153L91.9051 73.1928L92.4035 72.8111H93.0397L93.4639 73.5957L93.6972 74.2955L93.729 75.0589L93.6654 76.4161L93.6017 77.2007L92.255 77.2856L91.4597 76.9675V76.9569Z" fill="#00543F"/>
<path fill-rule="evenodd" clip-rule="evenodd" d="M79.8166 78.8016L81.9374 78.6637L86.9637 79.9149L92.7959 81.622L101.279 84.3788L101.088 85.5027L100.855 91.2919L100.653 93.7942L100.749 95.1938L100.569 98.0461L100.484 99.9546L100.463 101.927L100.113 102.552V104.853L99.7733 106.624L99.6355 113.272L100.314 108.076L100.95 105.585L101.269 103.316L101.629 101.153L101.735 94.9818L101.915 91.0905L102.106 86.054L102.361 84.347L103.485 84.3682L102.34 82.2476L101.226 80.6783L99.5295 78.3456L98.9462 77.1157L96.4119 73.3516L94.7364 70.8175L93.4958 68.2728L90.7705 64.5193L89.9646 62.8758L87.8438 59.6207L84.6308 53.3649L82.7751 50.9263L80.7603 47.7241L78.7668 43.8752L77.8548 41.9667L77.2186 40.4823L76.9429 38.6798L76.8793 36.6652L76.9959 34.4704L77.2822 31.4485L77.1444 29.1689L77.367 26.4863L77.1125 22.8389L76.9641 27.7375L76.8262 32.2755L76.4869 35.7533L76.4233 39.8885L75.0766 42.4332L73.6132 44.3206L72.6058 46.4624L72.7861 47.2788L73.5284 45.6884L74.1434 45.0734C74.1434 45.0734 74.5994 43.8752 74.6736 43.854C74.7691 43.8222 76.1794 41.9667 76.1794 41.9667L76.0415 43.9495L75.3841 46.0489L75.2462 47.1834L75.8825 45.3279L76.5399 43.0376L77.0383 41.7865L77.9291 43.642L78.8834 45.5399L80.1241 47.8408L82.0328 50.5233L83.5598 53.015L84.1854 54.6479L84.7156 55.7294L85.4579 57.2669L86.3805 58.9209L88.0029 61.4656L89.1905 63.1409L89.9964 64.4769L92.3293 67.9547L93.7184 69.8632L94.5668 71.7188L96.0832 73.341L96.9633 75.0587L98.4478 77.4762L98.9568 78.3244L101.184 81.675L101.947 82.6293L102.764 83.0216L100.728 82.6823L99.1583 82.0037L96.7512 81.2615L92.6156 80.18L90.1767 79.4802L87.6636 78.844L83.1144 77.5398L80.8876 77.1157L80.0499 76.734L79.8272 78.791L79.8166 78.8016Z" fill="#00543F"/>
<path fill-rule="evenodd" clip-rule="evenodd" d="M82.9765 86.5522L83.0084 85.8949L83.0508 85.2375L83.1462 84.4953C83.1462 84.4953 83.3477 83.9863 83.4325 83.9439C83.5173 83.9015 83.7824 83.5092 83.7824 83.5092L84.1218 83.2971L84.5035 83.2653L85.0337 83.4456L85.4049 83.9969L85.4155 84.7073V86.4144L85.3837 87.2202C85.3837 87.2202 84.8322 87.093 84.7474 87.093C84.6626 87.093 83.6022 86.8597 83.6022 86.8597L82.9765 86.5522ZM89.7525 87.9624C89.7525 87.8564 89.9646 86.7113 89.9646 86.7113L90.2615 85.6616L90.4736 85.0572L90.8765 84.6649L91.3325 84.4847L92.0112 84.4422L92.3929 84.7391L92.658 85.0572L92.9443 85.5874L92.8913 86.9234L92.2975 88.5774L91.1628 88.2487L89.7525 87.9624ZM96.5921 89.3833L96.6982 88.2063L96.9102 87.1672L97.1965 86.5416L97.7055 86.0327L98.1615 85.8631L98.7341 85.9903L98.9674 86.5735L98.9886 87.3687L98.7765 88.429L98.5751 89.7332L97.1753 89.6059L96.5921 89.3833ZM62.3835 87.7504C62.4153 87.6868 62.1714 85.7358 62.1926 85.3223L61.6943 84.5165L60.9308 84.4422L60.5066 84.9406L60.3688 86.2766L60.2627 88.4608C61.1004 88.2487 61.5776 87.9625 62.3835 87.7504ZM57.792 89.2772V86.9446L57.7071 86.1599L57.3678 85.7888L56.9012 85.6828L56.4877 86.0221L56.0741 86.6689L55.9257 87.3687L55.9045 88.5138L56.0105 90.1891L56.7104 89.8074L57.792 89.2772ZM53.5079 90.7086L53.4443 89.6695L53.3913 88.5456L53.3701 87.655L53.052 87.2308L52.6596 87.1248L52.0658 87.3581L51.6947 87.9094L51.5144 88.6516L51.4826 89.5423L51.4932 90.7086L51.5992 91.4508L53.5079 90.7086ZM49.6799 92.14L49.5739 91.0797V89.9664L49.4148 89.1606L49.1179 88.6623L48.5877 88.429L48.2696 88.4184L47.8136 88.9697C47.6015 90.2633 47.7075 91.7795 47.7818 93.1049L48.5029 92.7444L49.6799 92.14ZM96.327 73.2243L96.4012 72.4608L95.8498 72.2912L95.4575 71.4854L95.4469 70.5947L95.7332 69.7677L96.4755 68.8664L97.7904 66.3429L99.031 63.6709L99.9218 61.2535L101.215 58.7087L102.541 54.9447L103.092 53.3542L103.813 51.2866L104.556 49.5689L104.471 47.5013L104.216 44.7022L104.386 43.2177L104.036 43.0375L103.803 42.5709L103.824 42.0196L104.206 41.7015H104.45L104.386 40.2701L104.407 38.3615L104.333 35.7744L104.704 37.2588L105.128 37.5451L105.521 37.7784L106.03 37.9586L106.454 38.5736H105.277L106.062 39.1356L106.358 39.8354L105.828 39.8778C105.828 39.8778 105.468 39.7717 105.34 39.6763L104.672 39.178L104.619 41.7757L104.916 42.1574L105.054 42.6134L105.012 42.9527L104.694 43.2495L104.662 44.0448L104.704 45.1051L104.8 46.8334L104.884 49.2721L104.831 50.1521L105.256 50.9367L105.637 51.5835L105.977 52.6438L106.422 53.4921L106.592 54.3615L107.058 55.1037L107.673 56.3761L109.9 62.0063L110.939 64.3601L112 66.8731L112.827 68.7392L113.463 69.9267L113.93 70.8492L114.407 71.9307L114.301 72.938L113.866 73.6802L112.986 74.4966L113.156 78.5576L113.134 80.7206L112.784 82.873L112.731 84.6967L112.445 86.8703L112.244 90.3163L111.766 93.5608L111.427 90.9843L111.745 87.8776L111.989 85.8949L112.021 83.2229L112.445 81.0281L112.53 78.4303L112.498 75.8644L112.413 74.1785L113.071 73.044L113.325 72.2488L112.731 71.6126L111.533 70.987L110.452 71.7292C110.452 71.7292 110.027 72.5563 110.027 72.7577C110.027 72.9592 109.826 74.9844 109.826 74.9844L109.656 75.981L109.603 73.1818L109.688 71.0506L108.426 70.0752L106.73 69.6829C106.73 69.6829 105.722 69.598 105.531 69.6829C105.319 69.7677 104.418 71.1355 104.418 71.1355L104.216 73.2137L103.898 70.8174L103.135 69.4814L102.286 68.9406L100.887 69.1951L98.1827 69.7889L98.4054 69.333L100.484 68.8558L102.997 68.7392L104.842 69.0573L106.242 69.0785L107.981 69.6192L110.027 70.0221L111.788 70.5947L113.357 71.5278L113.156 70.6795L112.36 69.2799L111.056 66.3111L109.423 62.441L108.288 59.7902L107.069 56.7154L105.362 52.1137L104.725 51.2866L103.93 52.8029L103.082 55.2521L102.138 57.9029L101.65 58.9844L101.375 60.1295L100.229 62.0699L99.7733 63.4907L98.8402 65.6325L97.5571 68.1772L96.6769 69.4814L96.274 70.16L97.4086 69.3966L98.4054 69.333L98.1827 69.7889L97.3026 69.9055L96.73 70.5099L96.6451 71.6444L96.9314 74.4012L96.327 73.2349V73.2243Z" fill="#00543F"/>
<path fill-rule="evenodd" clip-rule="evenodd" d="M99.275 74.9633L99.5613 72.8639L99.8476 71.6128L100.145 71.0826L100.728 70.9554L101.237 71.072L101.523 71.4961L101.703 72.1323L101.64 73.797L101.65 74.4862L99.275 74.9739V74.9633ZM105.828 74.7512L105.85 73.6803L105.977 72.7897L106.327 72.302L106.963 72.0899L107.525 72.0793L108.023 72.2595L108.373 72.8003L108.331 74.677L108.225 74.9421L107.61 74.9845L106.496 75.0163H105.818L105.839 74.7406L105.828 74.7512ZM36.7961 109.593V105.076L36.7643 102.828L36.6794 100.114L36.7855 96.8691L36.7112 95.0136L36.8491 93.1051L36.8173 90.7088L36.7961 87.7399L36.8385 85.2164L35.9372 84.3682L35.5342 83.3291L35.3751 79.459L35.1631 79.1091L34.6117 78.791L34.0921 78.2184L33.6997 77.2854L34.1027 76.119L34.9934 74.6134L35.6508 73.4153L36.584 72.6094L37.549 71.1674L38.7154 68.3788L39.8712 65.9932L40.4333 64.5936L40.7514 62.9713L41.1755 61.2536L41.5997 59.1224L42.1193 57.8076L42.4374 55.9839L42.6495 54.5631L42.6919 51.6473L42.7131 49.8554L42.9464 42.0728L43.2645 42.2106L43.2857 44.0661L44.59 45.1264L45.3641 45.6884L44.484 46.0065V46.6002L45.2793 47.915L45.5338 48.5512L44.5688 47.7772L43.7947 46.8335L43.1691 46.6002L42.9676 49.1662L43.0313 52.7076L43.1691 54.754L44.3143 58.0091L44.8233 59.9176L45.2263 61.4763L45.9792 63.6711L46.2549 65.7917L46.7427 66.799L47.2304 68.0077L47.6334 69.068L48.6726 70.6267L49.733 72.567L50.7086 74.5286L51.769 77.2323L51.2388 77.8261L49.8602 79.9573L48.4393 82.0779V80.4451L48.153 78.4729L47.3259 77.6247L46.0534 77.1687L44.7385 77.2536L43.7735 78.1972L43.7417 81.1873C43.7417 81.1873 43.4766 79.3105 43.4766 79.2257C43.4766 79.1409 43.1585 77.6565 43.1585 77.6565L42.3632 77.2323L41.5679 77.0521L40.7408 77.1157L39.5425 77.2217L38.9593 77.4656L38.4503 77.8579L38.0792 78.3139L37.9413 80.127L37.5596 78.4941L37.0612 78.176L36.3931 78.3139L35.9902 79.0349L35.8735 77.9746L36.5416 77.3278L38.2382 76.7234L39.85 76.3735L41.5679 76.2039L43.4554 76.2251L45.3959 76.3947L47.6546 76.9779L48.715 77.349L50.1996 78.3139L50.8252 77.2536L50.5071 76.3523L49.7118 74.3589L47.4637 70.7963L46.3821 68.3682C46.3821 68.3682 45.2475 64.4769 45.5338 64.4345C45.7989 64.3921 44.7279 61.7201 44.7279 61.7201L44.2719 60.2675L43.1055 56.2384L42.7025 57.4153L41.9921 59.2496L41.4619 61.6883L41.0377 63.0455L40.5499 65.357L39.8288 67.011L38.4291 70.51L38.1746 71.4749L37.4111 72.5034L36.2659 73.7227L35.5554 74.9527C34.9722 76.0978 34.495 75.8328 34.3678 77.1157L35.619 76.5856L37.4641 75.9176L39.0017 75.5253L40.4227 75.239L41.9921 75.133L44.0386 75.0693L45.9262 75.239L47.3471 75.6949L48.7998 76.2357L50.1359 76.7764L46.573 75.8115C46.573 75.8115 44.0174 75.4086 43.869 75.4086C43.7311 75.4086 41.4512 75.3556 41.3346 75.4086C41.2286 75.4616 39.2032 75.8115 39.2032 75.8115L36.6158 76.6068L35.3857 77.349L35.2797 78.1124L35.7887 78.8228L35.9902 79.0349L36.128 81.5372L36.2659 83.1594L37.3263 85.0998L37.761 84.9407L38.9169 84.7287L40.253 85.015L38.9063 85.0892L38.0261 85.2906L37.2096 85.6405L37.2627 86.8387L37.3263 93.2005L37.2627 95.8194L37.6444 98.0885L37.3263 99.8698C37.3263 99.8698 37.5914 102.521 37.5914 102.658L37.549 106.931L36.7855 109.582L36.7961 109.593Z" fill="#00543F"/>
<path fill-rule="evenodd" clip-rule="evenodd" d="M45.1308 80.5407L45.0884 79.7985L45.1945 78.9926L45.4383 78.5473L45.9792 78.3564L46.4033 78.4413L46.5624 78.876L46.7002 79.4698L46.5942 80.1378L46.6366 80.6891L45.7565 80.6467L45.1202 80.5407H45.1308ZM39.9773 81.2617L39.9243 80.3816L39.8924 79.597L40.0833 79.0244L40.4545 78.6533L40.8574 78.6745L41.2604 78.8018L41.4618 79.3637L41.43 80.2226L41.4088 80.8375L40.7514 81.1556L39.9667 81.2617H39.9773ZM37.5171 81.601L37.5277 80.8269L37.549 79.7879L37.3899 79.5334L37.1566 79.4167L36.9233 79.3849L36.7643 79.5334L36.6688 79.7985L36.7749 80.6467L36.7961 81.601H37.5171ZM51.6099 114.926L51.6417 113.611V110.876L51.472 108.299L51.366 105.903L51.5357 104.313L52.0977 102.818L53.1263 102.075L53.8686 102.871L54.4412 104.822L54.7805 106.879L54.6745 110.017L54.7275 113.442L54.8229 115.064L51.6099 114.926ZM73.38 111.438L74.3025 109.784L75.6068 107.504L76.699 104.249L78.0033 101.503L79.6045 98.0781L80.6331 100.241L81.2588 102.701L82.2873 106.359L84.3975 111.332L80.4634 111.385H75.7128L73.38 111.448L74.5464 110.621L76.593 111.046L78.8941 110.961L82.7433 110.876L83.5916 110.59L82.4782 108.395L81.6829 105.967L80.315 100.898L79.6363 99.2126L78.9471 101.015L78.0669 102.319L77.4731 103.751L76.9323 105.49L76.2749 107.281L75.3099 108.702L74.5358 110.611L73.3694 111.448L73.38 111.438ZM111.024 107.483V105.797L110.876 102.849L110.939 99.8806L110.844 97.7069L112.922 97.7494L115.128 98.0462L118.309 97.9614L118.224 96.6148V95.4273L117.768 94.7805L116.432 94.208L115.52 93.5506L114.884 91.2179L114.937 85.6937L118.606 85.6513L118.733 87.6977L120.663 87.6553L120.515 85.7149L124.099 85.821L124.12 87.984L126.008 88.0582L125.902 85.8846L129.019 86.1709L129.253 88.4187L130.822 88.4823L130.663 86.2345H133.674L133.653 93.1689L133.102 94.3352L131.045 95.2046L130.949 96.3179L130.811 98.7991L130.843 101.651L130.674 103.899L130.578 107.631L130.186 110.993V107.43L130.239 104.493L130.069 101.312L130.101 98.5128C130.101 98.0569 130.324 96.2013 130.324 96.2013L130.642 94.9502L132.296 93.4127L132.858 92.9568L132.773 90.1894V87.8779L131.214 87.8461L131.151 89.2245L129.072 89.4154L128.733 87.6129L126.655 87.7401L126.421 89.1079L123.887 88.9595L123.632 87.1888H121.013L121.045 88.8216H118.564L118.171 87.1675L115.892 87.0827L115.605 90.9316L115.711 92.8084L116.835 93.6566L118.426 94.8865L118.882 96.2331L118.596 98.2477L116.835 98.5446L115.033 98.7354L113.76 98.8839L111.904 98.481L111.682 101.195V103.358L111.024 107.494V107.483ZM71.7469 84.5698L71.7151 83.5095L71.7045 82.4704L71.6939 81.7494L71.8848 81.145L72.2135 80.8269L72.7649 80.7527L73.083 81.3889L73.1043 82.4492L72.924 84.4638L71.7469 84.5698ZM75.7447 94.8335L75.6598 93.7414L75.5856 92.3948L75.7341 91.6314L76.0522 91.3027L76.6354 91.2815L76.9959 91.7056L77.1232 93.0204L77.0808 94.7487L75.7447 94.8335Z" fill="#00543F"/>
<path fill-rule="evenodd" clip-rule="evenodd" d="M122.636 103.751V102.266L122.614 100.464L122.954 99.467L123.579 99.0747L124.29 99.2125L124.746 100.124V102.033L124.693 103.666L122.636 103.751ZM122.72 111.544V110.155L122.827 108.67L123.007 107.695L123.463 107.048L124.173 107.101L124.703 107.759L124.831 108.67L124.884 111.639L122.72 111.544ZM31.0699 103.698L31.1653 102.277L31.1865 101.121L31.2183 100.029L30.8366 99.2868L30.2003 99.1277L29.6701 99.4882L29.3944 100.146L29.2354 101.503L29.2142 103.867H30.1791L31.0805 103.698H31.0699ZM30.8684 113.474V111.671L30.9532 110.303L30.6669 108.766L29.8186 108.363L29.0445 108.904L28.8536 110.759L28.8748 113.834L30.8684 113.474Z" fill="#00543F"/>
<path fill-rule="evenodd" clip-rule="evenodd" d="M24.718 113.208L24.6968 111.618V109.932L24.665 108.278L24.718 107.08L25.0362 105.033L24.8347 102.489L24.3045 99.9438L23.8803 98.417L23.2547 97.3567L22.576 96.1585L21.3566 95.0982L21.0278 87.5701H24.2939L24.3681 89.7119L26.3404 89.5741L26.2344 87.3686L29.7762 87.3156L29.9458 89.5211L31.7591 89.5529L31.8227 87.305L35.216 87.4429L35.3221 89.3302L37.0187 89.2666L37.0293 90.2102L34.601 90.0618L34.6328 88.4926L32.2363 88.4077L32.2469 90.4965L29.5959 90.7086L29.3838 88.4926L26.7116 88.3865L27.0297 90.7086L24.3257 90.8252L23.7531 90.3481L23.5304 89.2878L21.9186 89.1287L22.0988 93.5396L22.3003 94.7377L23.5198 94.8756L26.9873 94.7377L30.2109 95.0134L32.6711 94.7801L36.9445 94.6423L36.7854 96.6145L34.9191 96.4872L32.4908 96.5615L29.0975 96.6145L25.8102 96.4766L24.2939 96.6569L25.28 98.2049L25.4285 99.5833L25.6618 104.1L25.736 106.571L25.6194 109.434L24.718 113.208ZM115.976 93.3699L119.104 93.2851L121.469 93.1155L124.46 93.2215L126.909 93.4336L129.072 93.1367L131.776 93.2003L132.858 92.9458L130.758 95.0134L127.535 95.2467H122.158L118.511 95.1407L116.994 94.0273L115.976 93.3699ZM110.653 75.5675L110.685 75.0373L110.653 74.2951L110.812 73.712L111.13 73.3515L111.576 73.3621L111.83 73.765L111.862 74.2633V75.9386L110.653 75.5675ZM91.587 76.1931L87.3666 75.0903L87.1333 74.486C88.7239 74.7617 90.1661 75.2494 91.7355 75.5145L91.587 76.1931ZM80.2725 71.1142L81.6935 71.6974L84.0158 72.429L83.9415 72.8849L83.178 72.5562L81.3753 72.1109L80.3362 71.9094L80.2831 71.1142H80.2725ZM80.6331 68.824L82.054 69.1314L84.5565 69.8206L87.9817 70.6901L90.1449 71.1884L92.202 71.3899L94.9803 71.7398L95.3621 72.3866L93.1988 72.0685L90.3039 71.6232L87.2924 70.7961L83.4537 70.1387L81.1951 69.4707L80.4316 69.3329L80.6331 68.824ZM91.8309 74.7298L90.3888 74.3481L88.8512 74.03L86.3486 73.5529L86.1366 73.1182L89.8161 73.7968L91.2583 73.9982L91.9794 74.0831L91.8309 74.7298ZM81.0572 68.5377L82.3297 68.6967L83.6446 68.9618C83.6446 68.9618 85.0231 69.4283 85.0761 69.4283L86.0093 69.5556L88.374 69.9055L89.1693 69.651L87.1015 69.2905L85.7972 69.0042L84.249 68.5377L82.16 68.1348L80.9512 67.6258L80.6013 68.0499L80.8133 68.5801L81.0572 68.5377ZM93.0928 68.824L89.5298 68.4529L87.197 67.8485L84.8641 67.6152L82.6478 67.2971L83.072 67.594L85.8715 68.0711L87.8862 68.6437L91.2265 69.2587L93.4533 69.3965L93.0928 68.824ZM92.3823 67.3714L90.5478 67.2229L88.0029 66.6822L84.4611 66.714L84.9171 67.0321L87.5363 67.1381L88.777 67.594L90.2297 67.8061C90.2297 67.8061 92.5626 68.0924 92.6474 68.1242C92.7323 68.1454 92.3823 67.3714 92.3823 67.3714ZM78.894 63.5331L79.9544 63.4482L81.5238 63.7133L82.8705 64.0526L85.6488 64.3707L86.1259 64.2329L83.8249 63.8087L81.5238 63.2998L79.8908 63.0559L78.5865 62.9499L78.8834 63.5331H78.894ZM87.9074 63.6603L85.2882 63.215L83.3795 62.8333L81.4708 62.3985L79.3924 61.8896L77.717 61.5185L77.9821 62.4303L78.7986 62.4516L80.0923 62.5576L81.7889 63.0347L84.0794 63.4694L85.7124 63.6073L86.8682 63.8724L87.9074 63.6603ZM89.1905 62.7908L86.4971 62.3455L84.5565 62.0062L82.8281 61.7518L81.4602 61.6457L79.7635 61.4761L80.527 61.9214L82.2873 62.1017L85.2458 62.494L87.2076 62.8969L89.6041 63.6073L89.1905 62.7908Z" fill="#00543F"/>
<path fill-rule="evenodd" clip-rule="evenodd" d="M78.0563 59.6524L79.2228 59.7584L80.6649 59.9493L83.1463 60.4264L85.2459 60.893L87.8439 61.2429L87.6954 61.0096L85.1823 60.3522L81.4072 59.5994L80.1347 59.3025L79.0743 58.9314L80.421 59.0056L81.5875 59.2177L82.966 59.3661L84.6096 59.663L86.0518 59.9811L87.144 60.331L86.7516 59.6736L85.3731 59.3555L84.0688 59.048L82.9236 58.836L81.8314 58.5709L80.0605 58.221L80.771 58.1362L82.4994 58.3801L83.7189 58.5921L84.949 58.995L86.4229 59.2071L86.0306 58.4119L85.0232 57.8499L82.0541 57.2137L80.0393 56.7154L78.6078 56.4609L77.102 55.8459L76.593 55.5278L79.4985 56.1428L80.8028 56.4821L82.3934 56.8002L84.0158 57.1183L85.458 57.2773L83.369 56.7154L81.333 56.0792L78.788 55.5066L77.3671 55.1355L79.35 55.4112L81.4072 55.9202C82.2996 56.1747 83.2016 56.394 84.1112 56.5775L85.1716 56.726L84.5884 55.4854L82.9978 55.2098L80.262 54.6372L77.9927 54.2131L74.8963 53.3648L74.7267 52.8665L76.0416 53.2588L76.8051 53.4603L77.9503 53.7147L79.7318 54.1813L81.9162 54.7538L83.931 55.1037L84.3551 54.7538L84.1006 54.0434L83.4644 53.4497L82.7327 53.0467L79.1592 51.9864L75.2357 50.6929L79.5091 51.6577L83.2099 52.7711L82.9342 52.3469L79.0107 51.276L78.5653 50.9367L81.4921 51.5835L82.9554 51.9546L82.6373 51.1064L84.2491 53.6723L85.3943 55.7611L86.5608 58.0408L87.8015 60.1083L88.618 61.4973L89.2118 62.547L89.9541 63.7134L90.357 64.5298L90.8978 65.4841L90.1768 64.7737L89.7102 63.9042L88.7452 62.6213L88.5013 61.773L87.3031 61.6882L84.9702 61.3807L82.0965 60.7233L80.1665 60.2568L78.4699 60.0023L78.0563 59.6524Z" fill="#00543F"/>
<path fill-rule="evenodd" clip-rule="evenodd" d="M76.3809 49.3573L76.9111 49.7178L78.5547 50.0253L79.9014 50.4918L81.036 50.8099L82.0752 51.0962L82.563 51.1386L82.2237 50.3009L80.5377 50.2055L79.3924 49.7814L78.332 49.6117L76.3809 49.3573ZM81.7783 49.5587L81.0785 48.8271L79.2758 48.4348L78.0033 48.1591L76.4869 47.894L76.8369 48.1061L78.9789 48.6681L79.8696 49.0922L81.036 49.4633L81.7783 49.5693V49.5587ZM75.9037 46.8444L77.0277 47.1412L77.823 47.5017L80.5589 48.2121L80.2195 47.5123L78.5229 47.2897L77.6215 47.067L76.4021 46.7489L75.9037 46.8444ZM75.7022 45.4766L77.2398 45.9325L78.0245 46.293L76.752 45.9325L75.6704 45.8053L75.7022 45.4766Z" fill="#00543F"/>
<path fill-rule="evenodd" clip-rule="evenodd" d="M77.1656 45.2962L77.9184 45.5506L78.7668 45.7627L79.456 46.049L79.244 45.487H78.8622L77.1444 45.0417L76.9111 44.7448L77.7594 44.8508L78.5335 45.0841L79.0955 45.2219L78.6819 44.7236L77.1974 44.3207L76.9429 44.0556L77.6639 44.0662L78.6183 44.3101L78.1623 43.5997L77.2186 43.5149L77.0701 43.1756L77.9821 43.2604L77.4731 42.2849L77.1125 41.4473L77.8548 42.4546L78.4592 43.4512L78.9895 44.3949L79.5727 45.5082L80.0711 46.5367L80.5589 47.491L81.0572 48.3392L81.3542 48.9224L80.5907 47.8303L79.9014 46.7912L79.35 46.3989L78.3426 46.0808L77.367 45.7309L77.155 45.3068L77.1656 45.2962ZM74.2813 51.5625L77.6746 52.8667L79.7848 53.1636L82.0858 53.8316L80.9724 53.7786L77.1231 53.0152L74.0904 52.2093L74.2813 51.5625ZM56.7846 71.0721L58.2374 70.7222L57.6011 70.5207L56.0848 70.8176L56.2756 70.5631L56.6786 70.0224L57.1452 69.8739L57.7708 69.7679L57.3466 69.4922L56.7422 69.6301L57.8344 68.591L59.4038 68.2305L58.4707 68.0184L57.4315 68.4213L57.0285 68.9833L56.0742 70.4995L55.4379 71.2947L54.9819 71.9946L56.7846 71.0721ZM62.7229 67.8276L62.0548 67.7215L61.2065 68.082L60.496 68.1563L61.3762 67.5731L61.8852 67.3822L62.9456 67.2126L62.7229 67.8276ZM67.3993 58.2636L66.3707 58.6454L65.0982 58.868L64.0802 59.0695L63.6348 59.9813L64.4089 59.4618L65.1512 59.3133L66.3389 59.1013L67.0811 59.1119L66.4979 59.9707L65.4693 59.9283L64.9285 60.2252L64.4831 60.5327L65.6072 60.2464L66.1692 60.4797L65.9677 61.1053L65.745 61.6036L65.2784 63.0456L66.148 61.2961L66.6358 60.1934L67.2614 59.1861L67.3993 58.2636Z" fill="#00543F"/>
<path fill-rule="evenodd" clip-rule="evenodd" d="M63.6348 59.9814L63.2106 60.3632L62.7229 61.0842L62.2457 61.5719L61.9276 61.9536L61.5246 62.1445L61.1535 62.6958L60.9096 63.385L60.4324 64.106L59.8386 65.0285L58.8948 66.4917L58.1525 67.4672L57.7072 68.0821L58.5979 67.5626L59.4462 67.2763L60.5066 67.1173L61.4292 66.8416L60.7611 66.7992L59.425 66.9052L58.9266 66.99L59.2978 66.4705L59.9658 66.2266L61.058 65.8767L62.0018 65.6965L62.988 65.4844L62.3517 65.3572L61.058 65.336L60.0825 65.6329L59.6265 65.8025L60.2097 65.0285L61.6943 64.8058L63.1364 64.7316L64.2817 64.6468L64.7694 63.9152L63.5394 64.159L61.9488 64.4559L60.6763 64.7104H60.3582L60.7929 64.0742L60.9838 63.8197L64.4831 63.332L63.9211 62.9715C62.9455 63.1199 62.1927 63.226 61.2065 63.3214C61.2065 63.3214 61.3231 63.1517 61.461 62.9927L61.7791 62.6322L61.97 62.4519C63.0092 62.3777 63.8999 62.2717 64.9603 62.2399L65.5753 62.1233L65.745 61.5931L63.041 61.8158L62.2881 61.9112L62.8819 61.275L63.4333 60.4904L63.6454 59.9814H63.6348ZM101.809 83.9124L101.703 84.591L100.335 84.1669L98.3206 83.87L97.5041 83.4035L96.1467 83.0006L93.8351 82.2372L92.7429 81.601L92.7853 81.3465L94.3547 81.7706L95.4469 82.0887L96.73 82.3432L97.7692 82.5553L98.6811 82.7461L99.6037 82.9476L100.325 83.2657L101.809 83.9124Z" fill="#00543F"/>
<path fill-rule="evenodd" clip-rule="evenodd" d="M91.3008 65.8765L92.2127 67.117L93.4534 68.9301L94.7365 70.8705L96.1574 72.832L97.1754 74.3483L98.5115 76.3098L99.678 77.614L100.643 79.4695L101.534 80.5404L102.446 81.9188L103.697 83.7425L104.153 84.8029C103.358 84.3045 96.4649 82.1839 102.403 83.6365L102.138 83.1912L100.622 83.0215L98.6812 82.0249L94.4184 80.8797L93.0398 80.604L91.4917 80.0315L93.6973 80.2223L96.1362 80.9327L98.0874 81.5053L100.452 82.2263L101.937 82.8201L101.661 82.2899L100.102 81.6856L97.2178 80.9115L93.7715 79.7982L93.2731 79.3741L96.4013 79.9785L98.713 80.6677L100.547 81.1872L100.07 80.7313L97.2284 79.9679L91.2159 78.2714L90.6009 77.9215L95.447 78.8121L97.8965 79.2893L99.7098 79.9785L99.1584 79.2575L94.5986 78.0063L93.8564 77.508L98.713 78.4516L98.2676 77.7094L94.9274 77.0626L94.6623 76.4901L97.8223 76.9672L97.4193 76.066L95.8075 75.5782L93.4322 75.1541L93.411 74.6664L95.2773 74.9314L96.9739 75.1965L96.8255 74.6452L96.3695 73.9029L94.4714 71.0613L92.6475 68.2515L91.2902 65.8765H91.3008ZM46.8169 84.8453L48.6726 84.0712L50.0299 83.3396L52.0659 82.5974L54.2291 81.7386L55.9894 81.113L57.9511 80.445L60.1037 79.7452L62.373 79.4483L64.3666 78.3774L64.2605 77.4974L60.687 78.6107L57.5588 79.6816L52.6597 81.4629L49.3513 82.9155L47.0078 84.3893L46.8169 84.8453ZM64.2711 76.999L58.3965 78.6213L56.9862 78.7803L60.8036 77.2111L62.8396 76.5113L64.3241 75.9493L64.2711 77.0096V76.999ZM54.2503 80.0527L51.419 81.2508L48.1212 82.6928L49.224 81.4205L50.0723 81.0494L52.8612 79.9467L54.2397 80.0527H54.2503ZM49.4149 80.9433L51.0055 80.2436L53.0415 79.6074L51.5993 79.5437L50.0299 80.1057L49.4149 80.9539V80.9433ZM50.1147 79.8724L53.6777 78.5153L55.9258 77.7837L54.3245 77.6776L51.8962 78.4622L50.5601 79.109L50.1147 79.8724ZM51.1327 77.9957L57.124 75.7161L55.8197 75.8009L52.6703 76.734L51.716 77.052L51.1327 77.9957ZM57.1028 77.5398L58.5025 77.2853L64.2287 75.6206L64.1015 74.5921L62.3942 75.2495L60.8248 75.7479L59.0221 76.3841L57.1134 77.5398H57.1028ZM60.4855 74.836L61.5247 74.5285L63.9424 73.9454L63.9636 73.1713L60.4431 74.1044L60.4855 74.836ZM52.331 76.2568L56 74.9632L56.8801 74.115L52.8612 75.1859L52.331 76.2568ZM53.7625 73.6167L55.5228 72.9169L56.8059 72.4397L58.0996 72.0474L59.6584 71.7929L61.8746 71.2628L63.9848 70.7326L64.0696 69.9692L60.4007 70.9977L58.1526 71.4006L56.3817 71.9414L54.4942 72.3973L53.7519 73.6167H53.7625ZM60.231 72.5033L64.0484 71.6445L63.8258 72.4927L60.4537 73.2138L60.231 72.5033ZM59.1388 70.6266L60.5809 70.3827L62.7547 69.7466L64.0166 69.789L63.6561 68.8877L60.7612 69.789L59.3402 70.2131L59.1388 70.6372V70.6266ZM63.4864 68.6014L60.5067 69.2164L58.4919 69.6405L59.1918 69.1104L61.5459 68.3364L63.2955 68.1561L63.4864 68.6014ZM97.5572 68.1667L98.7024 67.8062L99.9431 67.5623L101.428 67.3821L103.368 67.4881L104.832 67.5942L106.274 67.7002L108.066 67.9865L109.381 68.2515L110.42 68.5272L111.692 69.1528L112.753 69.9798L112.032 69.895L110.197 69.121C110.197 69.121 108.734 68.7499 108.384 68.6969C108.034 68.6545 106.327 68.3258 106.327 68.3258L104.492 67.9334L102.88 67.732L100.272 67.9334L98.66 68.2515L96.7194 68.9937L97.5572 68.1667Z" fill="#00543F"/>
<path fill-rule="evenodd" clip-rule="evenodd" d="M101.831 67.4036L101.661 66.6402L102.202 65.0285C102.202 65.0285 102.647 62.9609 102.647 62.6641C102.647 62.3672 103.421 58.073 103.421 58.073L101.979 64.3817L100.982 67.4354L101.831 67.4036ZM108.055 67.9868L107.589 66.1737L106.974 63.2578L106.571 60.4268L105.903 56.281L105.606 53.397L105.362 51.8384L105.383 54.6376L106.019 58.794L106.348 62.1657L106.645 64.4348L107.122 66.3963L107.493 68.1352L108.066 67.9868H108.055ZM68.2158 63.3851L68.1734 62.7913L68.7036 61.1796C68.7036 61.1796 69.149 59.112 69.149 58.8152C69.149 58.5183 69.8913 54.2135 69.8913 54.2135L68.4809 60.5329L67.4947 63.5971L68.2158 63.3851ZM50.0405 74.8575L48.9059 74.4334L47.6864 74.1047L46.2019 73.8396L44.2719 73.8184H42.8086L41.3558 73.8608L39.5531 74.0305L38.2276 74.2213L37.1884 74.5076L35.8841 75.006L34.7495 75.7376L34.6647 76.1511L35.4812 75.6952L37.3581 75.0378C37.3581 75.0378 38.8427 74.7515 39.1926 74.7197C39.5425 74.6985 41.271 74.4864 41.271 74.4864L43.1267 74.2001C43.2539 74.1789 44.7491 74.0941 44.7491 74.0941L47.3365 74.4546L48.9271 74.8787L50.8146 75.727L50.0405 74.8469V74.8575Z" fill="#00543F"/>
<path fill-rule="evenodd" clip-rule="evenodd" d="M45.8095 73.829L46.0322 73.0868L45.5868 71.4327C45.5868 71.4327 45.2687 69.3439 45.2793 69.047C45.3005 68.7502 44.7915 64.4135 44.7915 64.4135L45.8519 70.8071L46.6684 73.9138L45.8201 73.829H45.8095ZM39.5531 74.0305L40.1363 72.2491L40.9316 69.3863L41.5042 66.5765L42.2465 62.3671L42.5859 59.4195L42.7131 57.4155L42.7555 61.4129L42.1511 64.9755L41.6209 68.326L41.1967 70.5633L40.6029 72.493L40.1257 74.2107L39.5637 74.0305H39.5531ZM82.7857 113.665L82.6797 116.283L83.2735 114.449L83.2311 111.13H82.7009L82.7857 113.675V113.665Z" fill="#00543F"/>
<path fill-rule="evenodd" clip-rule="evenodd" d="M83.1356 114.428L85.3413 114.226L88.7345 114.364L91.0144 114.279L97.1223 114.131L98.9568 113.982L101.767 114.449L104.747 114.491L101.3 114.958L96.6664 114.852L89.3708 114.862L84.1112 114.619L83.0508 114.693L83.1462 114.428H83.1356ZM75.3523 113.982L69.7639 114.407H63.8363L58.81 114.269L55.4591 114.449H52.5642L50.1677 114.375L45.8094 114.12L42.9146 114.449L47.8348 114.873L52.649 115.234L56.5831 115.053L60.9838 115.022L69.5943 115.138L72.5952 114.725L75.2674 114.831L75.3417 113.982H75.3523Z" fill="#00543F"/>
<path fill-rule="evenodd" clip-rule="evenodd" d="M74.5464 111.205L74.6843 112.975L74.8539 114.364L75.3523 113.983L75.2887 111.183L74.5464 111.205ZM34.9934 75.5785L36.478 75.059L38.8533 74.4228L39.8394 74.1153L40.2636 72.8218L41.4088 69.45L41.8118 66.2479L42.4692 62.3672L42.7449 60.0875L43.2115 55.6343L41.3876 60.1936L40.7514 62.9822L39.744 66.2691L38.2064 70.171L37.4853 71.9417L35.9371 73.5958L34.9828 75.5785H34.9934Z" fill="#00543F"/>
<path fill-rule="evenodd" clip-rule="evenodd" d="M50.1571 74.9953L48.1423 74.6666L43.9325 73.8184L41.3133 74.1577L39.8394 74.1259L40.3483 70.5844L40.4544 68.4108L41.2497 62.3671L43.1902 55.7932L45.8412 63.2578L45.9473 64.9118L47.3576 69.6832C47.3576 69.6832 48.2908 71.4963 48.1529 71.5917C48.0257 71.666 49.6799 73.9244 49.6799 73.9244L50.1677 74.9953H50.1571ZM75.0659 63.3638L74.5994 60.1193L73.9949 56.281L73.3163 53.2803L71.959 47.1836L73.2314 49.0603L74.6524 52.8562L75.7658 56.7687L77.1019 60.5858L78.2896 62.717L79.6575 64.5725L77.929 63.8727L76.349 63.4062L75.0553 63.3638H75.0659Z" fill="#00543F"/>
<path fill-rule="evenodd" clip-rule="evenodd" d="M64.5255 64.2753L66.1161 63.8936L68.7353 63.8088L74.3767 63.5543L76.4444 63.2574L74.5039 55.7823L73.8146 52.8771L72.6906 50.4702L72.4255 47.5544L71.6938 46.897L70.4744 48.7207L69.7321 51.9334L68.0036 56.7048L65.7026 62.5364L64.5255 64.2753ZM107.779 68.0606L109.762 68.718L111.438 69.3542L113.389 70.2024L110.844 65.3674L109.762 62.2501L108.299 58.7511L106.889 55.337L106.051 53.4284L105.362 51.838L104.556 51.0322L103.442 53.5981L105.181 55.6445L105.924 57.9029L106.57 61.7624L107.376 67.0745L107.779 68.0606Z" fill="#00543F"/>
<path fill-rule="evenodd" clip-rule="evenodd" d="M97.1648 68.4107L98.6494 68.2516L102.488 67.5837L105.436 67.9442L108.119 68.1668V66.131L108.373 64.0635L107.461 61.0946L106.804 57.7547L105.786 55.1781L104.895 53.0151L104.047 52.0608L102.562 55.9097L100.569 59.9813L99.8052 62.8653L97.9919 66.5764L97.1648 68.4107ZM74.1222 110.918L76.6036 111.385L82.966 111.141L84.1112 110.653L82.3192 107.875L81.4284 103.305L79.6257 98.7247L78.5653 101.269L76.5612 105.171L76.1688 106.953L74.1222 110.918ZM75.2357 42.8574L76.1158 42.921L76.19 43.4936C76.19 43.4936 74.8857 43.324 74.96 43.3876C75.0342 43.4406 75.2357 42.8574 75.2357 42.8574ZM74.6843 43.8541L76.0416 43.9495L75.8613 44.5327L74.1434 44.31L74.6736 43.8541H74.6843ZM73.9102 44.9144L75.7128 44.9992L75.8189 45.5082L73.4224 45.4764L73.9208 44.9144H73.9102ZM75.5538 46.1338L73.1255 45.9747L72.9452 46.5897L75.3523 46.4412L75.5432 46.208L75.5538 46.1338ZM72.7437 47.1198L75.0448 47.2471L74.8751 47.7666L72.8604 47.7878L72.7331 47.1198H72.7437ZM72.8922 48.371L74.6312 48.4982L74.3661 49.092L73.2209 48.986L72.9028 48.371H72.8922ZM73.3375 49.3359L74.1859 49.8236L73.8147 50.6082L73.3375 49.3359ZM68.1946 52.3683L69.7534 52.8561L69.8064 53.2802L67.5477 53.1105L68.1946 52.3683ZM69.6685 53.7573L67.5371 53.6089L67.3251 54.2557L69.4671 54.0648L69.6579 53.8315L69.6792 53.7573H69.6685ZM66.6146 54.807L69.1596 54.8282V55.369L66.4025 55.581L66.6146 54.807ZM65.4587 56.09L68.746 56.0264L68.3855 56.6838L65.8935 56.705L65.4694 56.1006L65.4587 56.09ZM65.0452 57.3199L67.5796 57.3517V57.8819L64.8225 58.094L65.0346 57.3199H65.0452Z" fill="#00543F"/>
<path fill-rule="evenodd" clip-rule="evenodd" d="M5.66262 112.901C54.3329 115.035 103.073 115.035 151.744 112.901L152.91 112.848L153.334 114.121C157.693 127.215 157.693 145.993 153.334 159.098L152.91 160.36L151.744 160.307C103.073 158.171 54.3329 158.171 5.66262 160.307L4.49618 160.36L4.07202 159.088C-0.797606 144.491 -0.797606 128.707 4.07202 114.11L4.49618 112.848L5.66262 112.901Z" fill="#FED69D"/>
<path fill-rule="evenodd" clip-rule="evenodd" d="M5.68381 112.434C30.0092 113.495 54.3547 114.029 78.7031 114.035C103.052 114.038 127.397 113.504 151.722 112.434L152.889 112.381L153.207 112.371L153.313 112.689L153.737 113.95C158.117 127.141 158.117 146.067 153.737 159.257L153.313 160.519L153.207 160.837L152.889 160.826L151.722 160.773C115.25 159.181 78.7349 158.778 42.2359 159.565C30.0837 159.83 17.9103 160.233 5.68381 160.773L4.50677 160.826L4.19925 160.837L4.09321 160.519L3.66905 159.247C-1.2292 144.545 -1.2292 128.652 3.66905 113.95L4.09321 112.689L4.19925 112.371L4.50677 112.381L5.67321 112.434H5.68381ZM42.2147 114.576C30.0413 114.311 17.8678 113.908 5.6414 113.367L4.78247 113.335L4.46435 114.269C0.148511 127.257 0.148511 145.95 4.46435 158.939L4.78247 159.872L5.6414 159.84C42.1318 158.248 78.6644 157.845 115.181 158.632C127.354 158.897 139.538 159.3 151.765 159.83L152.624 159.872L152.942 158.939C156.696 147.647 156.696 125.561 152.942 114.269L152.624 113.335L151.765 113.367C115.275 114.96 78.7419 115.363 42.2253 114.576H42.2147Z" fill="#00543F"/>
<path fill-rule="evenodd" clip-rule="evenodd" d="M6.25641 115.604C54.5285 117.672 102.867 117.672 151.139 115.604C154.32 124.861 154.32 148.336 151.139 157.592C102.871 155.525 54.5356 155.525 6.26702 157.592C2.44957 146.48 2.44957 126.738 6.26702 115.604H6.25641Z" fill="#00543F"/>
<path fill-rule="evenodd" clip-rule="evenodd" d="M19.7554 136.97C20.1265 136.005 20.6461 135.634 21.6959 135.411V122.221C21.2293 122.136 20.0523 121.903 19.7554 120.662C22.2261 120.662 24.7074 120.524 27.1464 120.524C27.8993 120.524 28.6309 120.577 29.352 120.683C30.0625 120.789 30.6987 120.991 31.2607 121.267C31.8015 121.553 32.2469 121.945 32.5862 122.444C32.915 122.953 33.0846 123.599 33.0846 124.395C33.0879 124.862 32.9976 125.324 32.8192 125.756C32.6407 126.188 32.3776 126.579 32.0454 126.907C31.7273 127.226 31.3456 127.501 30.9108 127.724C30.4616 127.946 29.9832 128.103 29.4899 128.19V128.286C29.9989 128.349 30.5079 128.466 31.0274 128.636C31.5364 128.805 32.003 129.06 32.4166 129.378C32.8663 129.728 33.2273 130.18 33.4704 130.695C33.7136 131.211 33.8321 131.777 33.8163 132.347C33.8163 133.174 33.6254 133.895 33.2437 134.499C32.7641 135.239 32.103 135.844 31.3234 136.256C30.5437 136.668 29.6716 136.874 28.79 136.853L19.7554 136.97ZM29.2778 134.722C29.808 134.096 30.1261 133.365 30.1261 132.41C30.1261 131.817 30.0413 131.329 29.8504 130.947C29.6715 130.584 29.4011 130.273 29.0657 130.046C28.7064 129.81 28.302 129.651 27.8781 129.579C27.4221 129.495 26.9237 129.452 26.3829 129.452H25.121V135.432C27.2948 135.549 28.6203 135.517 29.2778 134.722ZM25.8845 127.936C26.41 127.941 26.935 127.902 27.4539 127.819C28.0689 127.565 28.5673 127.183 28.9385 126.664C29.3308 126.133 29.5217 125.55 29.5217 124.882C29.5217 123.907 29.2778 123.154 28.737 122.73C27.9735 122.125 26.7646 122.03 25.1316 122.136V127.936H25.8739H25.8845ZM48.365 120.662L47.8878 124.925C45.9473 124.395 46.1488 123.175 45.8201 122.168H41.3558V127.894H44.2613C44.6642 126.6 45.099 126.345 46.064 126.091V131.244C44.9823 131.106 44.6536 130.555 44.2613 129.399H41.3664V135.464H46.0003C46.8168 133.524 46.6048 132.877 48.2272 132.495L48.7044 136.97H35.8629C35.9583 136.026 36.8385 135.443 37.814 135.411V122.221C37.0081 122.2 35.9795 121.829 35.8629 120.662H48.3544H48.365ZM55.4167 122.465C54.0594 122.242 52.9036 122.062 52.9036 120.662H66.6146C66.6146 121.956 65.9995 122.009 64.6634 122.221V135.411C65.9571 135.634 66.6146 135.719 66.6146 136.97H59.2978C59.2978 135.708 59.8068 135.729 61.1005 135.411V122.178H57.2194C57.1993 124.151 57.0932 126.121 56.9013 128.084C56.7694 129.398 56.5533 130.701 56.2544 131.986C55.9999 133.015 55.7242 133.821 55.4061 134.425C54.685 135.814 53.7307 137.256 51.9704 137.256L50.2844 134.011C51.3448 132.548 52.4688 133.269 53.7519 133.799C53.964 133.375 54.1654 132.845 54.3563 132.23C54.5684 131.615 54.7381 130.852 54.8865 129.961C55.0562 129.06 55.1834 128 55.2789 126.77C55.3743 125.54 55.4167 124.108 55.4167 122.454V122.465ZM75.4053 136.97H68.2476C68.2476 135.729 68.9156 135.591 70.1987 135.411V122.221C68.852 121.903 68.2476 122.041 68.2476 120.662H75.4053C75.4053 121.892 74.9069 121.998 73.6238 122.221L73.3799 132.898L74.5464 130.99L80.5376 122.783V122.221C79.1591 121.903 78.6607 121.966 78.6607 120.662H85.8078C85.8078 122.03 85.214 121.924 83.8567 122.221V135.411C85.1716 135.634 85.8078 135.697 85.8078 136.97H78.6607C78.6607 135.75 79.1485 135.697 80.4422 135.411V126.579L80.6755 124.744L79.6151 126.579L73.5284 134.902V135.411C74.8327 135.687 75.4053 135.719 75.4053 136.97ZM96.4543 120.662H102.817C102.817 121.935 102.255 122.009 100.95 122.221L96.4331 127.841C97.3447 129.086 98.296 130.303 99.2856 131.488C100.321 132.744 101.374 133.984 102.446 135.21C103.421 136.323 103.845 135.549 103.845 136.97H99.7097C97.5178 134.65 95.5967 132.089 93.9836 129.336H92.9656V135.411C94.238 135.644 94.6516 135.772 94.6516 136.97H87.4409C87.4409 135.697 88.0983 135.666 89.4026 135.411V122.221C88.0771 122.051 87.4515 121.935 87.4515 120.662H94.6516C94.6516 121.892 94.2487 121.924 92.955 122.221V128.148L94.3653 127.819L98.1827 122.221C96.9103 121.977 96.4543 121.86 96.4543 120.662ZM104.439 128.827C104.439 127.607 104.609 126.494 104.969 125.455C105.272 124.458 105.794 123.542 106.497 122.774C107.2 122.005 108.065 121.403 109.031 121.012C110.027 120.588 111.173 120.376 112.466 120.376C113.771 120.376 114.916 120.588 115.913 121.012C116.909 121.436 117.747 122.019 118.426 122.772C119.112 123.553 119.632 124.466 119.953 125.455C120.303 126.483 120.483 127.607 120.483 128.816C120.491 129.961 120.312 131.1 119.953 132.188C119.63 133.173 119.111 134.082 118.426 134.86C117.732 135.629 116.873 136.231 115.913 136.62C114.916 137.044 113.771 137.256 112.466 137.256C111.173 137.256 110.027 137.044 109.02 136.62C108.056 136.23 107.191 135.63 106.488 134.863C105.786 134.096 105.263 133.182 104.959 132.188C104.602 131.1 104.427 129.961 104.439 128.816V128.827ZM108.469 128.827C108.469 129.813 108.553 130.735 108.713 131.583C108.872 132.432 109.126 133.153 109.455 133.768C109.767 134.353 110.219 134.852 110.77 135.22C111.3 135.559 111.936 135.74 112.678 135.74C113.368 135.74 113.951 135.559 114.418 135.21C114.895 134.86 115.276 134.383 115.584 133.768C115.881 133.153 116.104 132.421 116.231 131.583C116.514 129.752 116.507 127.888 116.21 126.059C116.089 125.295 115.849 124.554 115.499 123.864C115.181 123.249 114.757 122.772 114.227 122.422C113.686 122.072 113.039 121.892 112.275 121.892C111.627 121.872 110.988 122.058 110.452 122.422C109.964 122.772 109.571 123.249 109.275 123.864C108.958 124.56 108.751 125.3 108.66 126.059C108.543 126.907 108.479 127.83 108.479 128.816L108.469 128.827ZM135.085 120.662L134.618 124.925C133.303 124.67 133.346 124.182 132.55 122.168H128.097V127.894H131.002C131.384 127.013 131.469 126.303 132.805 126.091V131.244C131.84 131.106 131.564 130.544 131.002 129.399H128.107V135.464H132.741C133.028 134.637 132.826 132.813 134.968 132.495L135.445 136.97H122.593C122.593 135.697 123.229 135.634 124.544 135.411V122.221C123.208 121.966 122.593 121.977 122.593 120.662H135.095H135.085ZM25.63 139.79H30.3594C30.3594 140.734 29.9352 140.787 28.9703 140.956L25.6194 145.123C26.2962 146.048 27.0036 146.95 27.7402 147.827C28.5694 148.833 29.4143 149.827 30.2746 150.807C31.0805 151.284 31.0168 151.104 31.1229 151.899H28.0477C26.3829 150.754 24.8029 147.923 23.8061 146.226H23.0426V150.743C23.997 150.913 24.2939 151.008 24.2939 151.899H18.9495C18.9495 150.944 19.4266 150.923 20.3916 150.732V140.946C19.416 140.819 18.9495 140.734 18.9495 139.79H24.2939C24.2939 140.702 23.9864 140.723 23.0426 140.956V145.346L24.0818 145.102L26.9237 140.946C25.9693 140.766 25.63 140.681 25.63 139.79ZM37.3262 151.899H31.9818C31.9818 150.944 32.4484 150.934 33.424 150.732V140.946C32.4272 140.787 31.9818 140.755 31.9818 139.79H37.3262C37.3262 140.66 37.0081 140.808 36.075 140.956V145.134H40.7407V140.946C39.8076 140.787 39.5001 140.681 39.5001 139.79H44.8339C44.8339 140.776 44.3885 140.766 43.3917 140.956V150.743C44.3779 150.913 44.8339 150.955 44.8339 151.899H39.5001C39.5001 151.019 39.8182 150.923 40.7513 150.732V146.258H36.0538V150.743C36.9763 150.923 37.305 150.997 37.305 151.899H37.3262ZM57.5163 139.79C57.5163 140.766 57.0921 140.744 56.0742 140.956V150.743C57.0497 150.923 57.5163 150.955 57.5163 151.899H52.0552C52.0552 150.955 52.4688 150.944 53.4338 150.732V146.937H51.9492C51.1327 148.76 50.4752 150.648 48.8422 151.899H45.7883C45.767 151.422 45.5656 151.432 46.5729 150.891C47.3152 150.096 47.9303 149.365 48.3968 148.697L49.6905 146.83C49.3694 146.721 49.0603 146.579 48.768 146.406C48.2489 146.103 47.8231 145.662 47.537 145.133C47.2509 144.604 47.1155 144.006 47.1456 143.406C47.1274 142.83 47.2683 142.26 47.5526 141.759C47.8369 141.257 48.2537 140.844 48.7574 140.564C49.2346 140.267 49.7966 140.055 50.4328 139.928C51.2285 139.77 52.0403 139.71 52.8505 139.748L53.4762 139.769L54.1336 139.779L54.7381 139.79H57.5163ZM52.3521 145.919C52.7144 145.911 53.0757 145.879 53.4338 145.823V140.946C53.1185 140.891 52.7993 140.863 52.4794 140.861C52.1401 140.861 51.8113 140.903 51.525 140.999C51.2273 141.084 50.9526 141.234 50.7212 141.44C50.4899 141.646 50.3079 141.901 50.1889 142.186C50.0405 142.494 49.9768 142.865 49.9768 143.321C49.9768 144.18 50.1889 144.837 50.6131 145.261C51.0372 145.696 51.6205 145.919 52.3521 145.919ZM66.1586 140.946C65.2466 140.734 65.0134 140.66 65.0134 139.79H69.6049C69.6049 140.67 69.4564 140.638 68.5657 140.956V145.357L69.764 145.102L72.3089 140.946C71.3546 140.723 71.0152 140.691 71.0152 139.79H75.681C75.681 140.691 75.3629 140.723 74.4085 140.956L71.2379 145.187C71.556 145.579 71.8742 146.014 72.2241 146.481L73.2951 147.944C74.0542 148.961 74.8573 149.944 75.7022 150.891C76.4445 151.316 76.3809 151.167 76.4233 151.899H73.4542C71.503 150.393 70.7077 148.262 69.5095 146.194H68.5551V150.743C69.4883 151.008 69.6897 150.987 69.6897 151.899H64.9285C64.9285 150.987 65.2254 150.955 66.1586 150.732V146.035L65.1618 146.29C64.112 148.262 63.1683 150.499 61.3656 151.899H58.3858C58.3646 151.549 58.1419 151.453 59.1069 150.891C59.5311 150.436 59.9446 149.958 60.3476 149.46C61.0988 148.529 61.8202 147.574 62.5108 146.597L63.3909 145.357L60.2415 140.946C59.319 140.723 59.0539 140.67 59.0539 139.79H63.7197C63.7197 140.691 63.4333 140.723 62.4896 140.956L65.0346 145.198H66.1586V140.956V140.946ZM86.5713 139.79L86.2214 142.96H85.4897L84.6838 140.914H81.386V145.155H83.5386C83.8461 144.519 83.7295 144.01 84.8747 143.819V147.636C83.9309 147.636 83.8779 146.958 83.5386 146.279H81.386V150.775H84.8217L85.7548 148.58H86.4759L86.8364 151.899H77.2928C77.2928 150.955 77.77 150.902 78.735 150.732V140.946C77.7488 140.755 77.2928 140.766 77.2928 139.79H86.5713ZM98.3418 148.273L98.6599 151.411C98.257 151.665 97.748 151.846 97.1223 151.941C96.5073 152.047 95.8711 152.111 95.2348 152.111C94.2486 152.111 93.3685 151.984 92.5838 151.75C91.8275 151.538 91.1307 151.153 90.5478 150.626C89.9712 150.085 89.5283 149.417 89.2542 148.675C88.9243 147.762 88.7661 146.795 88.7876 145.823C88.7876 144.731 88.9572 143.787 89.2966 143.003C89.5893 142.279 90.0388 141.629 90.6126 141.099C91.1865 140.569 91.8705 140.173 92.6156 139.939C93.3579 139.705 94.1426 139.589 94.9697 139.589C95.7438 139.589 96.4437 139.642 97.0693 139.748C97.7056 139.854 98.2146 140.002 98.6175 140.193L98.2146 143.512C97.1754 143.491 97.0799 142.462 96.4967 140.893C96.3907 140.84 96.221 140.787 95.9877 140.755C95.7487 140.724 95.5077 140.71 95.2666 140.713C94.7858 140.699 94.3086 140.8 93.875 141.009C93.4415 141.217 93.0641 141.526 92.7747 141.911C92.4566 142.314 92.1915 142.844 92.0006 143.501C91.8002 144.266 91.7075 145.054 91.7249 145.844C91.7249 147.488 92.0536 148.76 92.7217 149.651C93.4003 150.542 94.3123 150.976 95.4575 150.976C95.7862 150.976 96.0619 150.955 96.3058 150.902C96.5179 150.849 96.677 150.775 96.7618 150.69C97.3026 149.174 96.9739 148.315 98.3524 148.262L98.3418 148.273ZM108.543 151.899H102.477C102.477 150.838 103.008 150.923 104.185 150.732V140.914H102.149C101.778 142.208 101.958 143.544 100.293 143.872L99.9006 139.79H111.141L110.749 143.872C109.603 143.597 109.476 142.483 108.882 140.914H106.836V150.743C108.108 150.976 108.543 150.722 108.543 151.899ZM112.265 151.899C112.265 150.987 112.774 150.838 113.718 150.732V140.946C112.731 140.755 112.265 140.755 112.265 139.79H115.107C115.552 139.79 115.976 139.769 116.379 139.737C116.782 139.705 117.228 139.684 117.758 139.684C118.32 139.684 118.861 139.726 119.391 139.811C119.921 139.886 120.398 140.023 120.801 140.235C121.225 140.447 121.543 140.744 121.787 141.115C122.042 141.487 122.158 141.964 122.158 142.557C122.163 142.904 122.097 143.247 121.966 143.568C121.835 143.889 121.641 144.18 121.395 144.424C121.147 144.67 120.861 144.875 120.547 145.028C120.229 145.198 119.879 145.304 119.497 145.378V145.442C119.879 145.495 120.25 145.579 120.631 145.707C121.013 145.834 121.363 146.025 121.671 146.258C122.004 146.517 122.271 146.85 122.452 147.232C122.632 147.613 122.721 148.031 122.71 148.453C122.71 149.078 122.572 149.619 122.286 150.064C122 150.516 121.611 150.894 121.151 151.167C120.674 151.464 120.133 151.665 119.518 151.803C118.628 152.001 117.712 152.062 116.803 151.984L115.923 151.952C115.404 151.935 114.884 151.918 114.364 151.899H112.265ZM119.338 150.234C119.762 149.81 119.974 149.227 119.974 148.506C119.974 148.071 119.91 147.711 119.762 147.424C119.629 147.155 119.428 146.925 119.179 146.756C118.912 146.58 118.613 146.461 118.299 146.406C117.931 146.34 117.558 146.308 117.185 146.311H116.252V150.764C117.418 150.764 118.659 150.902 119.338 150.234ZM116.814 145.187C117.205 145.191 117.595 145.162 117.98 145.102C118.436 144.922 118.808 144.636 119.094 144.254C119.38 143.862 119.518 143.416 119.518 142.918C119.518 142.197 119.348 141.73 118.988 141.37C118.224 140.628 116.835 140.946 116.252 140.882V145.187H116.814ZM124.555 145.844C124.555 144.943 124.693 144.116 124.947 143.342C125.175 142.605 125.563 141.928 126.083 141.36C126.604 140.792 127.245 140.346 127.959 140.055C128.701 139.737 129.549 139.589 130.525 139.589C131.479 139.589 132.338 139.737 133.07 140.055C133.788 140.34 134.431 140.784 134.953 141.353C135.475 141.922 135.86 142.602 136.082 143.342C136.336 144.116 136.463 144.943 136.463 145.844C136.463 146.746 136.336 147.573 136.082 148.347C135.816 149.11 135.445 149.768 134.936 150.329C134.424 150.898 133.789 151.344 133.081 151.634C132.338 151.952 131.49 152.111 130.525 152.111C129.56 152.111 128.701 151.952 127.969 151.634C127.253 151.345 126.61 150.9 126.087 150.331C125.564 149.763 125.175 149.085 124.947 148.347C124.684 147.539 124.555 146.694 124.566 145.844H124.555ZM127.556 145.844C127.556 146.587 127.62 147.265 127.736 147.891C127.853 148.527 128.033 149.057 128.288 149.524C128.542 149.98 128.871 150.33 129.263 150.584C129.655 150.849 130.133 150.976 130.684 150.976C131.182 150.976 131.617 150.849 131.967 150.595C132.317 150.329 132.603 149.98 132.837 149.524C133.049 149.068 133.218 148.527 133.314 147.891C133.525 146.534 133.521 145.153 133.303 143.798C133.197 143.162 133.017 142.632 132.773 142.165C132.561 141.716 132.222 141.338 131.798 141.078C131.374 140.818 130.884 140.687 130.387 140.702C129.836 140.702 129.39 140.84 129.019 141.094C128.659 141.359 128.372 141.709 128.15 142.165C127.938 142.621 127.779 143.162 127.694 143.798C127.609 144.424 127.556 145.102 127.556 145.844Z" fill="white"/>
</svg>
