<svg width="200" height="212" viewBox="0 0 200 212" fill="none" xmlns="http://www.w3.org/2000/svg">
<path fill-rule="evenodd" clip-rule="evenodd" d="M154.239 104.586C154.239 125.207 146.531 143.642 134.423 155.88C133.966 159.734 132.108 162.803 129.138 165.236C146.392 152.979 157.964 130.402 157.964 104.586C157.964 97.3347 157.05 90.332 155.351 83.7564C155.093 86.6369 154.338 89.3585 153.226 91.7623C153.891 95.9143 154.239 100.195 154.239 104.586ZM105.895 156.158C108.905 161.223 112.53 165.574 117.696 165.475C117.934 166.349 118.172 167.213 118.411 168.077C112.689 167.471 108.309 163.965 105.706 156.605C105.389 155.601 105.538 155.641 105.895 156.158ZM118.033 160.379C117.07 159.346 117.259 159.962 117.735 161.293C119.682 166.716 120.854 169.517 122.215 171.305C125.572 175.716 129.397 171.832 129.695 168.345C129.923 166.657 129.585 166.587 128.671 168.157C125.642 173.55 121.788 166.22 118.033 160.379ZM135.754 106.334C135.406 104.804 135.654 104.715 136.509 106.096C137.591 108.658 138.098 111.142 138.475 113.615C141.793 117.24 140.045 123.905 133.926 126.766C124.42 135.795 133.102 143.652 132.595 153.476C132.347 158.522 129.993 162.187 123.943 166.001C123.318 165.455 122.702 164.899 122.086 164.342C126.288 161.819 129.307 158.83 129.983 154.896C130.32 147.168 125.811 140.652 126.685 134.206C129.754 122.376 139.935 124.452 135.754 106.334ZM108.498 128.435C108.438 128.326 111.716 129.428 111.716 129.428C111.636 130.262 110.445 130.58 109.868 130.392C109.302 130.203 108.299 128.832 108.498 128.435ZM107.067 128.147C106.859 136.361 113.047 136.153 113.911 129.845L118.868 129.468C119.871 129.597 119.851 129.339 118.798 128.713L102.756 122.376C101.406 122.167 101.733 122.703 102.299 123.359C103.601 125.266 105.26 126.796 107.067 128.147ZM90.082 140.563C87.1319 135.378 83.3375 130.819 82.5428 126.11C81.9071 122.336 82.4932 118.641 84.589 115.045C84.738 114.737 84.8672 114.459 84.2314 114.856C77.1095 120.886 76.8413 129.041 89.5853 141.209C90.4793 141.775 90.4793 141.387 90.082 140.563ZM98.376 154.181C93.0916 139.639 80.6357 138.149 68.0209 146.85C67.1567 147.675 67.4447 147.854 68.5274 147.586C84.6387 141.536 92.595 146.135 97.6012 154.598L98.376 154.181ZM114.825 168.584C109.908 170.342 104.703 171.286 99.3295 171.286C69.0042 171.286 44.4102 141.417 44.4102 104.586C44.4102 92.1795 47.2014 80.558 52.0685 70.6051C54.1843 64.7248 57.4621 56.848 60.8791 51.4246C48.5125 64.3374 40.6953 83.369 40.6953 104.586C40.6953 143.473 66.9481 175.01 99.3295 175.01C106.412 175.01 113.206 173.501 119.493 170.729C119.186 170.173 118.897 169.597 118.609 169.021C117.249 169.051 115.997 168.902 114.825 168.584ZM118.5 81.581C113.305 72.7407 106.819 64.9732 101.286 57.9506C90.1813 43.8458 74.9342 38.4124 64.6238 50.3916C59.8162 55.9739 55.7537 64.0792 51.0554 76.6046C53.0022 76.7437 61.4552 57.7718 64.6238 54.0866C74.9342 42.1075 89.3866 47.8984 101.286 61.6456C102.647 63.225 108.388 69.8204 112.501 75.3332C115.113 78.8296 116.742 82.0578 117.417 82.1373L117.556 82.0678L118.5 81.581ZM115.202 150.387C118.431 150.883 119.682 155.343 118.411 157.826C117.854 158.621 117.725 159.088 117.616 157.816C117.507 156.535 117.388 155.641 116.623 154.976C116.335 154.658 116.027 154.767 115.937 154.896C115.312 155.731 114.885 156.476 114.229 156.515C113.981 156.595 113.514 155.76 112.898 154.27C112.58 153.506 112.66 153.684 112.292 154.37C112.014 154.906 112.113 156.376 111.438 155.989C110.852 155.532 110.206 154.767 110.703 153.545C111.567 151.42 112.938 150.208 115.202 150.387ZM99.3295 37.8959C121.232 37.8959 140.144 53.4708 148.955 76.0087C149.888 75.1246 150.762 74.0221 151.587 72.6215C141.882 49.7956 122.126 34.1611 99.3295 34.1611C90.8269 34.1611 82.7415 36.3365 75.4507 40.25C78.5697 39.8428 81.4899 39.9421 84.1917 40.4586C88.9993 38.7899 94.075 37.8959 99.3295 37.8959ZM152.65 74.7472C152.133 88.5142 145.826 99.5994 136.846 97.4539L136.499 98.3677C144.892 102.619 150.812 94.6528 153.037 87.6898C154.199 84.0345 154.328 79.3064 153.186 73.2672C152.977 72.7606 152.739 72.4229 152.272 73.2374C150.961 76.4358 148.378 78.6906 144.693 80.1308C141.445 81.4023 136.956 80.5282 132.486 82.1274C132.734 82.3161 132.972 82.5147 133.201 82.7333C133.509 83.0114 133.787 83.3094 134.055 83.6074C140.929 82.773 149.113 86.031 152.65 74.7472ZM116.325 87.064C120.407 84.0842 125.165 83.0313 128.969 85.6138C133.549 88.7228 132.943 95.1197 127.986 103.97C147.246 84.6106 121.321 73.2175 114.904 87.6997C115.451 87.5408 115.947 87.3422 116.325 87.064ZM107.256 88.256C108.398 92.6265 107.107 98.04 102.597 104.824C104.207 107.824 106.889 108.638 112.928 102.669C119.732 105.718 122.92 101.288 124.47 93.4609C125.851 96.8679 126.546 100.265 126.417 103.662C127.38 105.063 128.999 99.9669 128.86 98.3975C128.224 95.9838 127.37 93.9674 125.125 92.1C124.917 91.8617 124.4 91.5637 123.844 92.4378C120.387 97.881 117.606 101.795 113.842 101.01C116.831 97.593 116.047 94.5138 114.587 90.9876C112.62 100.871 108.974 105.082 103.482 104.496C109.253 100.245 113.643 92.3484 108.12 88.0573C107.425 87.7792 107.028 87.7494 107.256 88.256ZM102.826 102.669C89.6052 104.993 84.9565 99.0928 84.738 91.216C84.6486 87.7693 84.9367 83.7762 86.6352 79.3561C87.9762 89.5473 93.1711 94.8713 106.432 90.3717C107.663 89.8651 107.018 88.3057 105.508 88.3553C90.1912 89.3486 88.0656 83.3392 88.6814 75.8795L87.4298 75.5716C83.0296 81.2632 82.1257 89.438 82.8508 94.9011C83.5858 100.404 88.0656 109.632 101.882 104.109L102.826 102.669Z" fill="#2B2A29"/>
<path fill-rule="evenodd" clip-rule="evenodd" d="M76.1758 52.4376C61.3161 49.8153 60.2632 76.684 50.0521 79.346C49.2873 79.4851 49.188 76.6542 49.5555 76.376C46.2577 84.9382 44.4102 94.5037 44.4102 104.586C44.4102 141.417 69.0042 171.285 99.3295 171.285C104.703 171.285 109.908 170.342 114.825 168.584C109.819 167.233 106.442 162.783 104.346 155.889C103.909 154.519 105.19 153.287 106.233 154.34C110.514 160.866 114.08 163.597 117.05 163.17C116.653 161.134 116.384 159.137 115.272 157.548L113.494 157.33C113.256 158.353 112.491 158.472 111.487 158.194C106.124 156.724 108.517 148.569 114.219 148.34C119.325 148.37 121.589 152.343 121.559 154.876C121.54 156.604 120.973 158.969 119.066 160.419L120.586 162.385C124.649 160.339 126.943 157.707 127.42 154.578C128.383 148.261 123.228 140.771 124.678 132.438C126.625 125.892 131.641 123.339 134.035 118.412C135.555 115.293 135.843 110.992 134.234 104.913C133.996 103.682 135.634 102.49 136.23 103.652C138.535 107.188 139.399 110.079 139.687 112.701C145.697 118.343 141.376 127.074 134.909 128.276C126.089 135.149 135.277 142.947 134.532 153.684C134.542 154.449 134.512 155.174 134.423 155.879C146.531 143.642 154.239 125.206 154.239 104.586C154.239 100.195 153.891 95.9142 153.226 91.7622C146.203 102.629 140.819 102.202 135.823 99.053C134.224 97.2352 135.336 96.8181 136.687 96.5201C144.157 97.6226 147.922 90.3716 150.643 80.7863C146.739 85.5144 140.978 85.564 134.949 84.9382C138.068 94.6825 133.717 100.156 128.701 105.241L127.38 105.509C125.622 105.261 124.957 103.016 124.639 99.9271C122.801 104.119 119.354 106.821 113.464 104.764C106.153 110.218 102.766 108.897 101.634 105.261C78.3809 114.38 76.1659 85.8123 87.6583 74.1312C88.0357 73.7438 89.7045 72.3929 89.7045 73.8034C89.3369 79.5248 90.4693 84.4615 96.9655 86.5573C100.303 87.2328 103.472 87.2526 106.61 87.1235C110.683 85.6335 112.56 93.2819 111.001 96.977C112.262 94.9705 113.037 92.5767 113.653 90.0636C114.149 89.1498 115.689 90.4411 116.166 90.8682C117.984 92.4873 118.381 95.0301 118.073 98.0299C120.079 96.8876 122.93 90.4113 124.619 90.9775C126.655 91.6231 127.976 93.0435 129.079 94.7023C130.787 90.1232 127.956 81.6306 117.09 88.5538C114.378 89.716 111.845 88.4446 113.196 85.9514L116.037 82.8325C103.809 66.3438 90.8269 54.3944 76.1758 52.4376ZM102.031 120.488L119.474 127.282C122.245 128.554 121.619 130.799 119.404 131.097C117.696 131.117 116.374 131.335 114.666 131.355C112.689 139.331 104.882 135.139 105.329 128.752C103.472 127.064 102.538 126.13 100.939 123.995C99.4388 122.127 100.243 119.664 102.031 120.488ZM82.4633 114.519C86.2776 111.866 86.2081 114.32 85.4234 116.108C84.2016 118.214 83.8043 120.896 84.3506 124.263C85.2346 129.756 89.327 135.348 91.1447 140.692C91.3931 141.427 91.403 141.953 91.1845 142.271C95.8331 145.271 98.5448 150.039 99.6672 156.257C99.9453 158.243 99.4189 158.522 98.0779 157.091C93.0419 151.211 90.8865 143.572 67.3851 148.996C65.7065 149.353 64.1668 148.201 66.0144 146.652C71.3484 142.4 77.4174 139.122 87.0126 140.533C76.9406 132.477 74.3879 121.839 82.4633 114.519ZM40.6953 104.586C40.6953 84.3224 47.8271 66.0458 59.2401 53.1925C59.3792 53.0435 59.5182 52.8846 59.6573 52.7257C59.995 52.239 60.5413 51.9012 60.879 51.4245C65.0707 45.4846 69.4412 40.5677 75.4507 40.2499C82.7415 36.3363 90.8269 34.161 99.3295 34.161C122.126 34.161 141.882 49.7955 151.587 72.6214C153.017 70.6845 153.375 71.2705 154.219 73.0386C155.53 76.5946 155.461 80.2996 155.351 83.7562C157.05 90.3318 157.964 97.3346 157.964 104.586C157.964 130.401 146.392 152.979 129.138 165.236C127.976 166.19 126.645 167.044 125.165 167.809C126.297 169.011 127.668 168.057 129.198 165.624C130.201 164.511 130.579 164.769 130.678 165.663L130.489 169.1C149.084 156.267 161.609 132.179 161.609 104.586C161.609 63.5228 133.876 30.2275 99.6871 30.2275C65.4879 30.2275 37.7551 63.5228 37.7551 104.586C37.7551 145.648 65.4879 178.944 99.6871 178.944C107.673 178.944 115.312 177.126 122.324 173.818L122.165 173.63C120.934 172.924 120.149 171.881 119.493 170.729C113.206 173.5 106.412 175.01 99.3295 175.01C66.9481 175.01 40.6953 143.473 40.6953 104.586ZM86.5557 85.4051C85.2843 96.2618 89.2674 102.708 102.627 101.288C104.634 98.606 105.915 95.189 106.412 91.9112C94.224 95.8943 88.5324 91.7125 86.5557 85.4051ZM84.2513 40.4386C99.399 43.3688 109.928 59.937 118.997 80.7962C123.546 78.3527 127.619 78.6606 131.353 80.8558C137.701 78.5911 146.66 80.5379 148.955 76.0085C140.144 53.4706 121.232 37.8958 99.3295 37.8958C94.1048 37.8958 89.0489 38.7798 84.2513 40.4386Z" fill="url(#paint0_radial_1030_8714)"/>
<path fill-rule="evenodd" clip-rule="evenodd" d="M17.4721 108.171L3.77452 97.2948C8.92972 95.3579 13.9459 94.2255 18.8627 93.7884C24.2265 93.3017 29.481 93.6494 34.6461 94.6626C34.6859 94.3447 34.7256 94.0268 34.7653 93.709C34.8051 93.3911 34.8448 93.0733 34.8845 92.7554C29.6002 91.7323 24.2165 91.3847 18.7037 91.8813C13.0916 92.378 7.37025 93.7388 1.51974 96.1227L0 96.7485L1.28135 97.7616L15.5053 109.055L7.69804 118.204L6.72461 119.346L8.16489 119.743L21.5247 123.438C21.4651 123.091 21.4055 122.743 21.336 122.395C21.2665 122.048 21.1969 121.69 21.1175 121.342L10.1217 118.303L17.6012 109.542L18.2468 108.787L17.4721 108.171ZM21.1572 108.39C23.114 106.761 27.3951 105.768 34.0005 106.393C34.0005 106.076 34.0005 105.758 34.0005 105.44C34.0005 105.112 34.0104 104.794 34.0104 104.476C26.9382 103.831 22.22 105.023 19.9354 106.92C18.813 107.844 18.217 108.956 18.1674 110.138C18.1276 110.933 18.3263 111.727 18.7633 112.502C18.9819 112.87 19.2401 113.237 19.5679 113.595C19.7864 113.843 20.0447 114.091 20.3328 114.34C20.7003 114.648 21.1175 114.956 21.5942 115.254C24.3357 116.992 28.7857 118.343 34.9243 118.68C34.8746 118.353 34.8349 118.035 34.7852 117.707C34.7455 117.389 34.7057 117.071 34.666 116.743C27.4348 116.306 22.8955 114.429 20.9883 112.313C20.7996 112.105 20.6506 111.906 20.5215 111.698C20.2235 111.231 20.0745 110.774 20.0745 110.347C20.0745 110.307 20.0745 110.267 20.0745 110.227C20.1043 109.592 20.4619 108.966 21.1572 108.39ZM24.5543 137.295C24.6635 132.547 24.2662 127.998 23.5014 123.607C23.0147 120.766 22.3591 117.985 21.5942 115.254C21.1175 114.956 20.7003 114.648 20.3328 114.34C20.0447 114.091 19.7864 113.843 19.5679 113.595C19.2401 113.237 18.9819 112.87 18.7633 112.502C19.6871 115.393 20.4917 118.333 21.1175 121.342C21.1969 121.69 21.2665 122.048 21.336 122.395C21.4055 122.743 21.4651 123.091 21.5247 123.438C21.5545 123.607 21.5843 123.766 21.6141 123.925C22.3988 128.435 22.7862 133.083 22.6173 137.95L22.5975 138.666L23.2729 138.884C26.6203 140.016 29.8585 140.831 33.0271 141.407C36.1857 141.973 39.2451 142.301 42.2548 142.45C42.0959 142.122 41.9369 141.794 41.7879 141.467C41.629 141.139 41.48 140.811 41.331 140.473C38.7187 140.314 36.0765 140.006 33.3648 139.52C30.5041 139.003 27.5739 138.288 24.5543 137.295Z" fill="#2B2A29"/>
<path fill-rule="evenodd" clip-rule="evenodd" d="M19.9354 106.92C22.22 105.023 26.9382 103.831 34.0104 104.476C34.0601 101.268 34.2687 98.0002 34.6462 94.6627C29.481 93.6496 24.2265 93.3019 18.8627 93.7886C13.9459 94.2257 8.92974 95.358 3.77454 97.2949L17.4721 108.172L18.2468 108.787L17.6012 109.542L10.1217 118.303L21.1175 121.343C20.4917 118.333 19.6871 115.393 18.7634 112.502C18.3263 111.728 18.1277 110.933 18.1674 110.138C18.217 108.956 18.813 107.844 19.9354 106.92Z" fill="url(#paint1_linear_1030_8714)"/>
<path fill-rule="evenodd" clip-rule="evenodd" d="M34.9243 118.68C28.7857 118.343 24.3357 116.992 21.5942 115.253C22.3591 117.985 23.0147 120.766 23.5014 123.607C24.2662 127.997 24.6635 132.547 24.5543 137.295C27.5739 138.288 30.5041 139.003 33.3648 139.52C36.0765 140.006 38.7187 140.314 41.331 140.473C38.2121 133.59 36.0566 126.329 34.9243 118.68Z" fill="url(#paint2_linear_1030_8714)"/>
<path fill-rule="evenodd" clip-rule="evenodd" d="M169.714 129.557C167.46 128.663 165.116 128.057 162.682 127.739C162.513 128.365 162.344 128.991 162.165 129.607C164.539 129.895 166.814 130.471 169.009 131.335C171.552 132.348 173.986 133.739 176.3 135.497C176.32 135.507 176.33 135.527 176.35 135.537L177.512 134.017C175.356 132.368 173.102 131.017 170.757 129.994C170.41 129.835 170.062 129.696 169.714 129.557ZM169.913 119.693C168.84 121.501 167.927 123.031 168.483 124.878C168.761 126.845 169.625 128.514 170.757 129.994C173.102 131.027 175.356 132.368 177.512 134.017L176.35 135.537C176.33 135.527 176.32 135.507 176.3 135.497C177.869 136.987 179.022 138.377 178.853 139.798C178.704 140.731 178.287 141.427 177.72 141.923C177.035 142.529 176.101 142.877 175.098 143.026C172.446 143.274 169.546 142.877 166.536 142.053C163.973 141.357 161.341 140.354 158.719 139.182C158.46 139.768 158.202 140.344 157.924 140.93C160.646 142.142 163.377 143.185 166.029 143.91C169.267 144.784 172.406 145.201 175.327 144.923H175.366C176.727 144.724 178.008 144.238 178.992 143.364C179.876 142.589 180.512 141.516 180.75 140.106V140.066C181.117 137.235 178.783 135.129 176.151 132.755C174.532 131.295 172.784 129.726 171.632 127.878C171.224 127.978 170.827 128.077 170.42 128.176L169.953 126.319C170.221 126.249 170.489 126.18 170.757 126.11C170.579 125.613 170.44 125.087 170.37 124.541L170.36 124.451L170.33 124.372C169.993 123.309 170.708 122.107 171.562 120.677C172.823 118.561 174.323 116.048 173.787 112.393C173.469 110.267 172.754 108.102 171.274 106.324C169.933 104.715 168.006 103.443 165.235 102.847C165.265 103.503 165.284 104.168 165.294 104.824C167.35 105.36 168.801 106.334 169.804 107.545C171.026 109.006 171.622 110.843 171.89 112.671C172.327 115.661 171.016 117.846 169.913 119.693ZM169.953 126.319L170.42 128.176C170.827 128.077 171.224 127.978 171.632 127.878C175.068 127.044 178.495 126.398 181.922 126.12C185.428 125.842 188.935 125.941 192.421 126.627L191.597 131.99L190.623 138.357L190.534 138.944L191.031 139.281C191.905 139.887 192.67 140.354 193.355 140.781C195.669 142.231 197.1 143.115 197.745 145.996C189.729 145.489 180.224 148.241 171.085 150.883C163.02 153.217 155.252 155.472 149.292 155.234C148.825 155.839 148.359 156.445 147.882 157.051C154.358 157.727 162.811 155.273 171.622 152.721C181.058 149.989 190.892 147.138 198.788 148.012L200 148.141L199.841 146.94C199.215 142.172 197.467 141.089 194.368 139.162C193.822 138.814 193.226 138.447 192.61 138.04L193.494 132.279L194.457 126.021L194.587 125.137L193.722 124.948C189.729 124.044 185.746 123.895 181.773 124.213C178.098 124.511 174.423 125.216 170.757 126.11L169.953 126.319Z" fill="#2B2A29"/>
<path fill-rule="evenodd" clip-rule="evenodd" d="M162.682 127.739C165.116 128.057 167.46 128.663 169.714 129.557C170.062 129.696 170.41 129.835 170.757 129.994C169.625 128.514 168.761 126.845 168.483 124.878C167.927 123.031 168.84 121.501 169.913 119.693C171.016 117.846 172.327 115.661 171.89 112.671C171.622 110.843 171.026 109.006 169.804 107.545C168.801 106.334 167.35 105.36 165.294 104.824C165.433 112.859 164.559 120.498 162.682 127.739Z" fill="url(#paint3_linear_1030_8714)"/>
<path fill-rule="evenodd" clip-rule="evenodd" d="M176.151 132.755C178.783 135.129 181.117 137.235 180.75 140.066V140.106C180.512 141.516 179.876 142.589 178.992 143.364C178.008 144.238 176.727 144.725 175.366 144.923H175.327C172.406 145.201 169.267 144.784 166.029 143.91C163.377 143.185 160.646 142.142 157.924 140.93C155.6 145.907 152.719 150.674 149.292 155.234C155.252 155.472 163.02 153.217 171.085 150.883C180.224 148.241 189.729 145.489 197.745 145.996C197.1 143.115 195.669 142.231 193.355 140.781C192.67 140.354 191.905 139.887 191.031 139.281L190.534 138.944L190.623 138.358L191.597 131.991L192.421 126.627C188.935 125.941 185.428 125.842 181.922 126.12C178.495 126.398 175.068 127.044 171.631 127.878C172.784 129.726 174.532 131.295 176.151 132.755Z" fill="url(#paint4_linear_1030_8714)"/>
<path d="M26.6302 64.7643C27.4845 65.0226 28.1698 65.4497 28.7062 66.0656C29.2426 66.6913 29.62 67.4164 29.8286 68.2806C30.0372 69.105 30.1068 69.9692 30.0571 70.883C30.0074 71.7869 29.8386 72.7008 29.5704 73.6146L26.3322 84.5607L25.3985 84.2826C25.4482 84.0045 25.3191 84.3223 25.4085 83.8753C25.4879 83.4284 25.5277 83.1006 25.5078 82.9118C25.4979 82.5543 25.4085 82.2761 25.2495 82.0874C25.0807 81.9086 24.8423 81.7596 24.5344 81.6702L12.4857 78.1043C12.2175 78.0248 11.9592 78.0149 11.7209 78.0646C11.4825 78.1242 11.2441 78.303 11.0057 78.6208C10.8269 78.8393 10.6382 79.1473 10.4395 79.5446C10.2309 79.9419 10.3004 79.783 10.211 79.9916L9.08862 79.5048L13.4095 64.5259L19.0514 64.377L18.7435 65.4199C17.6906 65.549 16.9059 66.0556 16.0119 66.4529C15.108 66.8403 14.5617 67.2575 14.3531 67.7144C14.224 67.9925 14.0849 68.3104 13.9458 68.6879C13.8068 69.0653 13.6379 69.4328 13.5585 69.85L12.9823 72.9988L16.9059 74.1609C17.0151 72.8498 17.5912 71.4095 18.2965 69.7606C19.0812 67.923 21.3658 65.1716 24.1668 64.7643C24.9218 64.5061 25.7363 64.5061 26.6302 64.7643ZM25.0608 70.5255C21.2863 69.4726 18.952 72.3233 18.4256 74.6079L26.2428 76.9223C28.5274 76.6442 28.14 71.3896 25.0608 70.5255Z" fill="#2B2A29"/>
<path d="M29.5703 44.3819L29.0439 45.1269C27.991 44.9978 25.0012 45.4845 24.286 46.6169C24.0973 46.8354 23.8688 47.1532 23.6106 47.5903C23.3523 48.0273 23.1139 48.375 22.9749 48.673C22.508 49.6464 22.5875 50.3119 22.8457 51.4343L25.6568 53.0335L26.1236 52.2091C26.3819 51.7522 26.5607 51.3151 26.6799 50.888C26.7991 50.4708 26.809 50.0239 26.7097 49.5669C26.6501 49.2888 26.4613 48.9213 26.1534 48.4942C25.8356 48.0571 25.5376 47.7293 25.2594 47.491L25.7859 46.5573L32.4807 49.9643L31.9542 50.9079C31.4675 50.7291 29.5703 50.7688 29.0836 50.9079C28.6664 51.037 28.2989 51.2555 27.991 51.5635C27.6831 51.8813 27.395 52.2786 27.1169 52.7753L26.6501 53.5898L32.6893 57.0067C36.732 59.2913 37.2684 50.7688 36.881 49.3385C36.1658 47.8982 35.5996 47.7691 36.295 46.5275L40.2085 51.5237L31.6364 66.0358L30.7822 65.559C30.9014 65.3206 31.0504 64.9928 31.2291 64.5657C31.4079 64.1485 31.5172 63.8406 31.547 63.6419C31.6066 63.2645 31.5768 62.9665 31.4576 62.7579C31.3483 62.5493 31.1497 62.3705 30.8716 62.2116L19.9354 56.0333C19.6771 55.8843 19.4288 55.8048 19.2103 55.7949C18.9917 55.7949 18.7136 55.924 18.3759 56.1922C18.1673 56.3611 17.919 56.6094 17.621 56.9571C17.3329 57.3047 17.1244 57.5729 16.9853 57.7517L16.141 57.2749L24.147 43.1006L29.5703 44.3819Z" fill="#2B2A29"/>
<path d="M34.4971 32.2538L33.7223 33.1478L38.3114 37.2104C39.0166 35.78 40.3079 32.7505 38.3511 31.2506C37.2883 30.4361 35.6394 30.6745 34.4971 32.2538ZM40.6257 37.0415L39.7318 38.4321L44.3705 42.4748C44.5989 42.6635 44.8373 42.7927 45.0856 42.8423C45.334 42.892 45.632 42.8225 45.9697 42.6337C46.1385 42.5344 46.3968 42.3457 46.7246 42.0775L47.5093 42.9019L41.9965 49.2789L41.2317 48.4644C41.3906 48.2161 41.4899 48.0273 41.5396 47.8883C41.6786 47.5307 41.7184 47.2327 41.6488 47.0142C41.5793 46.8056 41.4204 46.5871 41.1621 46.3586L31.2292 37.6375C31.0007 37.4487 30.7723 37.3296 30.5339 37.27C30.3054 37.2203 30.0074 37.2898 29.6498 37.4785C29.4412 37.5878 29.2128 37.7467 28.9446 37.9553L28.0705 37.1408L34.517 29.701C41.5892 21.5461 45.473 26.9496 40.6257 37.0415Z" fill="#2B2A29"/>
<path d="M60.1738 15.5268L59.3692 15.9738C58.4852 15.4076 55.5748 14.5633 54.4425 15.2785C54.1743 15.3977 53.8365 15.5964 53.4094 15.8745C52.9922 16.1526 52.6247 16.3711 52.3665 16.5797C51.5321 17.2552 51.3235 17.8909 51.0653 19.0232L52.9327 21.6654L53.6975 21.1191C54.1345 20.8211 54.4822 20.5032 54.7702 20.1754C55.0583 19.8377 55.257 19.4404 55.3662 18.9835C55.4258 18.7054 55.4159 18.2981 55.3166 17.7717C55.2172 17.2452 55.0881 16.8181 54.9391 16.4903L55.8231 15.8645L60.4122 21.8243L59.5281 22.4402C59.1705 22.0726 57.4323 21.2979 56.9257 21.2085C56.4986 21.1489 56.0814 21.1886 55.6642 21.3376C55.257 21.4965 54.8199 21.7349 54.363 22.0528L53.5882 22.5991L57.5813 28.2708C60.2532 32.0652 64.3853 24.5956 64.6436 23.1355C64.6237 21.5263 64.1668 21.1687 65.329 20.3443L66.7196 26.5425L52.7539 35.9788L52.1877 35.1742C52.4062 35.0153 52.6744 34.7769 53.022 34.469C53.3598 34.171 53.5882 33.9425 53.7074 33.7737C53.9259 33.4558 54.0253 33.1777 54.0054 32.9393C53.9855 32.7009 53.8862 32.4526 53.7074 32.1943L46.4762 21.9236C46.2974 21.6753 46.1186 21.5065 45.9101 21.4071C45.7213 21.2979 45.4134 21.2979 44.9962 21.3972C44.738 21.4568 44.4002 21.5859 43.9831 21.7747C43.5758 21.9634 43.2679 22.1024 43.0692 22.2216L42.5031 21.4171L55.8231 12.0503L60.1738 15.5268Z" fill="#2B2A29"/>
<path d="M83.6553 18.2087C82.4435 20.0165 80.2781 21.2382 77.6558 22.5196C75.401 23.6221 73.4343 24.1188 71.7457 23.9996L71.0603 24.7445L67.3156 20.4237L67.4745 19.7483L73.4641 21.4965C74.5964 21.6157 75.401 21.5958 76.3347 21.0197C78.4603 19.6787 80.1688 17.7517 78.2418 14.5533C76.9704 13.0038 74.9838 13.7587 73.6429 14.0865L70.8517 14.7619L69.7889 13.0535C71.0007 12.5071 72.7986 11.782 73.7323 10.7887C75.5103 8.87168 74.6064 5.58387 70.6729 6.94469C69.481 7.35194 68.2195 8.14658 67.7725 9.46766C67.5142 10.2027 66.9779 11.4244 66.9381 12.239L65.6667 12.3383L65.18 6.92482L66.0243 6.08052C66.4415 6.40831 66.9381 6.80563 67.4447 6.43811C68.1897 5.90173 68.8552 5.42495 70.5041 4.62038C72.6992 3.53769 77.6856 1.74975 79.6126 5.37528C80.9635 7.90819 78.1028 11.3053 76.3248 11.5536L76.3943 11.7026C77.03 11.4046 77.7154 11.1563 78.4703 10.9576C83.0295 10.0736 86.655 14.2454 83.6553 18.2087Z" fill="#2B2A29"/>
<path fill-rule="evenodd" clip-rule="evenodd" d="M96.6873 0.011528C102.379 -0.246729 107.196 3.86551 107.445 9.19951C107.693 14.5335 103.273 19.0729 97.5912 19.3411C91.8997 19.5993 87.0822 15.4871 86.8338 10.1531C86.5855 4.81908 90.9958 0.279718 96.6873 0.011528ZM96.7966 2.48483C99.2798 2.28617 101.545 5.38526 101.852 9.39817C102.17 13.421 100.412 16.8379 97.9389 17.0465C95.4556 17.2452 93.1909 14.1461 92.8731 10.1332C92.5652 6.11036 94.3134 2.68349 96.7966 2.48483Z" fill="#2B2A29"/>
<path d="M122.384 12.2391C121.212 12.1993 120.308 12.398 119.036 12.2093L116.752 18.467C117.11 19.8279 119.176 19.9073 121.083 19.7683C124.132 19.5497 124.37 14.3747 122.384 12.2391ZM125.066 7.41167C124.659 6.66669 123.844 6.06078 122.632 5.62373C122.463 5.5542 122.235 5.48467 121.957 5.39528C121.679 5.30588 121.699 5.53434 121.5 5.47474L119.781 10.1631C121.083 9.99423 126.615 10.5902 125.066 7.41167ZM128.701 19.9868C127.529 23.2051 124.162 22.9667 121.867 22.48C120.745 22.2416 119.464 21.8542 118.013 21.3277L108.964 18.0399L109.411 16.997C109.858 17.1062 110.176 17.1658 110.375 17.1559C110.752 17.1658 111.04 17.0864 111.239 16.9374C111.428 16.7884 111.587 16.55 111.706 16.2321L116.106 4.18346C116.206 3.8954 116.245 3.63714 116.216 3.40868C116.186 3.18023 116.007 2.92197 115.679 2.63391C115.431 2.42532 115.143 2.21673 114.795 2.01807L115.262 0.945312C119.255 2.39552 123.228 3.82587 127.271 5.13702C128.552 5.5542 129.863 6.16011 130.43 7.21301C132.446 10.9478 126.526 11.9212 125.006 11.9014C125.771 13.0536 126.884 13.431 127.748 14.5137C128.85 15.9043 129.486 17.8512 128.701 19.9868Z" fill="#2B2A29"/>
<path d="M132.794 20.1058C133.111 18.8642 133.717 17.6921 134.601 16.6094C135.485 15.5367 136.518 14.7122 137.691 14.1461C138.863 13.5799 140.114 13.272 141.435 13.2322C142.727 13.1826 144.048 13.411 145.399 13.9176C146.759 14.4242 148.031 15.1692 149.233 16.1525C150.107 16.8677 150.822 17.6127 151.388 18.3874L152.64 18.7848L153.176 19.1523L150.345 26.1649L149.501 25.4597C150.097 21.4965 150.454 20.5926 147.961 18.5563C145.14 16.2419 141.743 17.1359 139.618 19.8178C137.293 22.7679 136.638 27.4264 139.379 29.562C140.432 30.3765 141.207 31.34 142.419 31.4989C143.63 31.6678 145.349 31.5287 146.62 30.7738L147.782 31.6082C146.988 31.9261 143.621 34.8165 142.846 34.9357C142.319 34.4192 141.813 34.1312 141.495 34.0517C136.32 32.7704 130.559 25.718 132.794 20.1058Z" fill="#2B2A29"/>
<path d="M158.232 51.2261L152.61 45.018L153.395 44.2035C153.663 44.2929 154.14 44.571 154.467 44.7597C155.649 43.1506 157.219 40.568 157.606 38.939C157.715 38.4821 157.745 38.0351 157.705 37.5682C157.586 36.2273 157.696 35.4327 156.335 35.6313L151.716 39.6939C151.507 39.8826 151.358 40.1011 151.279 40.3495C151.199 40.6077 151.219 40.8958 151.348 41.2335C151.388 41.3328 151.517 41.6606 151.666 41.9089L150.832 42.7334L145.18 36.2472L145.945 35.5121C146.283 35.83 146.551 36.0386 146.739 36.1578C147.047 36.3366 147.326 36.4061 147.584 36.3564C147.832 36.3068 148.08 36.1876 148.299 35.9889L157.755 27.6651C157.974 27.4664 158.113 27.2578 158.192 27.0393C158.262 26.8109 158.232 26.5129 158.103 26.1354C158.003 25.8573 157.835 25.5295 157.606 25.1322C157.388 24.7448 157.209 24.4667 157.09 24.3078L157.825 23.6621L165.016 31.827L164.291 32.4726C164.082 32.264 163.814 32.0257 163.496 31.7674C163.179 31.5091 162.93 31.3204 162.741 31.1913C162.414 30.9926 162.126 30.9231 161.867 30.9827C161.609 31.0622 161.381 31.1814 161.182 31.3601L158.371 33.8335L165.503 34.5884L165.125 33.3368L165.9 32.6316L171.264 38.0649C170.936 38.0152 170.489 38.3629 170.161 38.5417C168.224 38.1543 164.897 36.5054 162.771 36.6842L162.861 37.3199C163.844 40.6773 160.308 44.7299 159.255 48.3455C159.036 48.9216 158.957 49.3686 159.007 49.6964C159.066 50.0242 159.136 50.2626 159.235 50.4116L158.232 51.2261Z" fill="#2B2A29"/>
<path d="M167.589 69.0656L164.152 62.4701L165.105 61.9436C165.374 62.2019 165.89 62.5992 166.129 62.629C166.377 62.6588 166.635 62.5992 166.923 62.4601L176.002 57.9406L167.211 55.2389C166.705 55.4971 163.834 56.9871 163.725 57.1857C163.616 57.3745 163.576 57.6625 163.616 58.04C163.625 58.179 163.655 58.3479 163.705 58.5565L162.632 59.0631L159.166 52.11C159.325 51.9908 160.069 51.4743 160.218 51.6928C160.338 51.8517 160.437 51.9809 160.526 52.0603C160.775 52.3186 161.023 52.4577 161.281 52.4775C161.54 52.4974 161.808 52.4378 162.076 52.3087L173.35 46.6965C173.618 46.5674 173.807 46.3986 173.936 46.2098C174.065 46.0112 174.115 45.7132 174.085 45.3159C174.065 45.0973 174.015 44.8391 173.946 44.5312L175.029 44.0146L178.495 50.9776L177.412 51.5438C177.343 51.4544 177.273 51.3849 177.224 51.3154C176.955 51.0372 176.697 50.8982 176.429 50.8982C176.161 50.8982 175.913 50.9578 175.674 51.077L169.794 53.9973L178.336 56.8182C178.724 56.6196 178.753 56.5401 178.853 56.3315C178.942 56.1328 178.982 55.8448 178.952 55.4872C178.952 55.3581 178.823 54.9608 178.753 54.8217L179.955 54.3251L183.402 61.1391L182.29 61.7946C182.131 61.3874 181.564 61.0497 181.296 61.0497C181.038 61.0397 180.78 61.0993 180.531 61.2185L169.238 66.8406C168.969 66.9697 168.761 67.1386 168.642 67.3472C168.503 67.5458 168.572 68.0226 168.612 68.41L167.589 69.0656Z" fill="#2B2A29"/>
<path d="M173.29 89.7158L171.254 82.5641L172.307 82.2363C172.516 82.5442 172.933 83.0409 173.171 83.1104C173.4 83.1899 173.668 83.1899 173.976 83.1104L183.789 80.5378L175.734 76.1077C175.178 76.2467 172.069 77.1208 171.929 77.2996C171.78 77.4685 171.681 77.7367 171.631 78.1141C171.622 78.2433 171.622 78.4221 171.631 78.6406L170.469 78.9187L168.493 71.3995C168.671 71.32 169.506 70.9624 169.605 71.2008C169.685 71.3796 169.764 71.5286 169.834 71.6279C170.022 71.9259 170.241 72.1146 170.489 72.1941C170.738 72.2636 171.006 72.2636 171.304 72.1842L183.481 68.9957C183.77 68.9162 183.988 68.797 184.157 68.6282C184.316 68.4593 184.425 68.1812 184.475 67.7839C184.505 67.5653 184.515 67.2971 184.505 66.9892L185.677 66.7012L187.643 74.2304L186.471 74.5581C186.422 74.4588 186.372 74.3694 186.332 74.2999C186.134 73.9721 185.905 73.7834 185.647 73.7337C185.379 73.6741 185.12 73.684 184.862 73.7436L178.505 75.4124L186.302 79.912C186.73 79.8027 186.759 79.7233 186.898 79.5445C187.037 79.3657 187.137 79.0876 187.177 78.7399C187.196 78.6108 187.157 78.1936 187.117 78.0446L188.388 77.7963L190.385 85.1665L189.163 85.5936C189.084 85.1566 188.597 84.7096 188.339 84.66C188.08 84.5904 187.822 84.6003 187.554 84.6699L175.356 87.8683C175.068 87.9478 174.83 88.0669 174.661 88.2457C174.492 88.4146 174.462 88.8914 174.423 89.2788L173.29 89.7158ZM192.719 72.1246C192.918 71.3697 192.779 70.4956 191.746 71.6875C189.998 74.9058 190.117 77.0612 193.534 78.9088C194.745 79.4154 194.785 78.6108 194.348 78.1638C192.57 76.6242 191.766 74.7171 192.719 72.1246Z" fill="#2B2A29"/>
<path fill-rule="evenodd" clip-rule="evenodd" d="M4.75791 168.842V193.178C4.51952 193.992 4.1818 194.459 3.70502 194.489V195.492H7.62853V194.668C7.04249 194.429 6.64517 193.982 6.58557 193.188V173.143L9.85352 188.281L13.479 173.61V193.118L12.6447 194.568V195.264H17.9489V194.479L17.1443 193.079V170.193L17.9191 169.19V168.296C16.0815 167.859 14.2141 167.63 12.3368 167.561L12.3169 168.574L12.8235 169.001L12.7738 171.286L10.8468 178.189L9.35687 170.65V168.753L9.94291 168.296L9.93298 167.273C8.25431 167.144 6.12866 167.014 3.74475 167.054L3.70502 168.018L4.75791 168.842Z" fill="#2B2A29"/>
<path fill-rule="evenodd" clip-rule="evenodd" d="M31.5868 171.027C28.5771 170.183 25.9945 169.577 23.2531 169.11C18.9719 168.246 18.7435 175.12 22.6173 179.868C20.7698 184.318 19.5481 189.344 18.9918 194.261L18.2965 194.439V195.204H24.2066V194.638C23.5709 194.549 23.2332 194.131 23.2431 193.327C23.6504 189.84 24.6337 186.344 25.786 183.334L26.8289 184.089V193.377C26.67 194.042 26.372 194.419 25.9449 194.519V195.224H31.3981V194.618C30.8816 194.439 30.524 194.151 30.514 193.605V172.726C30.6332 172.1 30.9908 171.772 31.5868 171.753V171.027ZM26.8587 181.08V172.597C25.2297 171.683 24.0278 171.474 23.5212 173.61C23.2729 177.871 24.8721 179.729 26.8587 181.08Z" fill="#2B2A29"/>
<path fill-rule="evenodd" clip-rule="evenodd" d="M43.1885 173.411C43.5659 176.371 43.9434 179.331 44.3208 182.291C44.0526 182.37 43.7844 182.44 43.5162 182.519C42.3938 176.232 40.2483 174.792 39.1159 175.199C35.113 176.639 35.8579 185.38 36.7022 188.529C37.9141 193.038 41.0827 195.83 44.3009 189.602C44.4599 189.612 44.6188 189.622 44.7777 189.631C44.3208 191.747 43.9732 194.111 43.5162 196.227C43.258 196.167 42.7713 196.118 42.513 196.058C42.3144 196.018 41.8078 195.959 41.6091 195.919C36.0268 197.002 32.0636 191.251 32.2721 181.904C32.6993 175.596 34.3481 169.259 41.4999 173.639C41.917 173.848 42.1753 173.639 42.5329 173.411C42.7117 173.351 42.9501 173.371 43.1885 173.411Z" fill="#2B2A29"/>
<path fill-rule="evenodd" clip-rule="evenodd" d="M51.3037 175.696C55.1279 175.289 58.525 179.55 58.8825 185.222C59.2401 190.903 56.4192 195.84 52.595 196.257C48.7609 196.664 45.3737 192.403 45.0161 186.731C44.6586 181.05 47.4696 176.113 51.3037 175.696ZM51.4626 178.328C53.1314 178.06 54.7703 181.298 55.118 185.569C55.4755 189.84 54.4127 193.526 52.744 193.804C51.0852 194.072 49.4462 190.834 49.0886 186.563C48.7311 182.291 49.7939 178.606 51.4626 178.328Z" fill="#2B2A29"/>
<path d="M73.2853 196.098L67.3454 196.197L67.2759 195.224C67.4447 195.114 67.8222 194.965 68.0804 194.856C67.7725 193.187 67.1368 190.714 66.4514 189.542C66.2627 189.214 66.0342 188.936 65.7661 188.708C64.9913 188.022 64.6238 187.506 64.0874 188.489V193.764C64.0874 194.002 64.1371 194.221 64.2364 194.419C64.3357 194.608 64.5046 194.757 64.733 194.866C64.8125 194.896 65.041 194.995 65.2495 195.055L65.2992 196.048L59.1805 196.008L59.1606 195.105C59.4884 195.065 59.7169 195.015 59.8659 194.956C60.1142 194.866 60.2731 194.717 60.3725 194.528C60.4619 194.34 60.5115 194.121 60.5115 193.863V180.602C60.5115 179.967 60.144 179.619 59.707 179.42L59.6672 178.318L65.2893 180.106V180.94C64.6238 180.99 64.0874 181.626 64.0874 182.957V186.155L67.8321 182.003L66.8785 181.437L66.8587 180.533L71.6066 181.914C71.4278 182.102 71.4477 182.261 71.3881 182.579C70.067 182.808 68.3089 183.374 67.405 185.122L67.7824 185.43C70.0372 186.691 70.4147 190.972 71.5768 193.923C71.7854 194.389 72.6397 194.578 72.8383 194.727C73.037 194.886 73.2058 194.965 73.325 194.995L73.2853 196.098Z" fill="#2B2A29"/>
<path fill-rule="evenodd" clip-rule="evenodd" d="M79.3841 182.808C83.1189 182.857 86.1485 185.947 86.1683 189.711C86.1882 193.476 83.1785 196.495 79.4537 196.446C75.7288 196.396 72.6893 193.297 72.6695 189.532C72.6496 185.768 75.6593 182.758 79.3841 182.808ZM79.3941 184.546C81.0131 184.516 82.4137 186.781 82.513 189.622C82.6124 192.463 81.3707 194.807 79.7417 194.846C78.1127 194.876 76.7221 192.612 76.6228 189.771C76.5235 186.93 77.7651 184.586 79.3941 184.546Z" fill="#2B2A29"/>
<path d="M100.005 196.267L94.959 196.346L94.9292 195.651C95.1676 195.571 95.5649 195.393 95.6543 195.263C95.7537 195.124 95.7934 194.965 95.7934 194.757L95.8033 189.522L91.6215 189.512C91.6116 189.88 91.5421 194.955 91.6315 195.075C91.7109 195.194 91.8699 195.303 92.1083 195.393C92.1977 195.422 92.3069 195.452 92.4559 195.482L92.436 196.237L87.1616 196.227C87.1418 196.108 87.0524 195.542 87.2312 195.512C87.3603 195.492 87.4696 195.472 87.549 195.452C87.7775 195.373 87.9364 195.273 88.0357 195.134C88.1251 194.985 88.1649 194.826 88.1649 194.628L88.1947 186.592C88.1947 186.403 88.145 186.254 88.0655 186.125C87.9861 185.996 87.8272 185.887 87.5788 185.787C87.4298 185.738 87.261 185.688 87.0623 185.638L87.0723 184.874L92.3466 184.883L92.3566 185.658C92.2871 185.678 92.2175 185.688 92.1679 185.708C91.9295 185.768 91.7209 185.936 91.6315 186.085L91.6215 187.963L95.843 187.973V186.642C95.843 186.354 95.7934 186.324 95.704 186.205C95.6047 186.095 95.4457 185.996 95.2272 185.907C95.1378 185.877 94.8597 185.827 94.7604 185.827L94.82 185.003L99.995 184.973L100.065 185.797C99.7666 185.777 99.3891 186.006 99.2997 186.155C99.2203 186.304 99.1805 186.463 99.1805 186.642L99.1507 194.687C99.1507 194.876 99.1904 195.045 99.2798 195.174C99.3593 195.303 99.6772 195.402 99.9156 195.492L100.005 196.267Z" fill="#2B2A29"/>
<path d="M101.773 191.777C101.535 191.072 101.485 190.327 101.624 189.532C101.753 188.748 102.051 188.032 102.508 187.417C102.965 186.791 103.551 186.274 104.256 185.867C104.952 185.47 105.746 185.192 106.65 185.043C107.554 184.894 108.498 184.884 109.471 185.023C110.176 185.112 110.812 185.271 111.378 185.49L112.183 185.321L112.6 185.341L113.335 189.622L112.65 189.522C111.676 187.397 111.577 186.85 109.56 186.572C107.266 186.264 105.697 187.695 105.408 189.642C105.101 191.767 106.253 194.25 108.448 194.499C109.292 194.588 110.027 194.836 110.742 194.568C111.458 194.29 112.352 193.724 112.799 192.979L113.703 193.049C113.375 193.436 112.481 195.84 112.093 196.128C111.636 196.028 111.259 196.038 111.07 196.088C107.822 196.972 102.369 195.194 101.773 191.777Z" fill="#2B2A29"/>
<path d="M125.314 186.533L124.708 186.463C124.44 185.818 123.079 184.804 122.195 184.755C121.689 184.645 119.325 185.51 119.225 185.599L119.334 188.261C119.871 188.261 121.669 187.784 121.967 187.129C122.116 186.811 122.205 186.523 122.255 186.284H122.97L123.437 190.754L122.543 190.953C122.483 190.615 121.768 189.86 121.53 189.622C121.321 189.423 121.073 189.274 120.785 189.205C120.546 189.145 119.732 189.195 119.334 189.195L119.354 194.092C119.354 194.986 119.881 194.668 120.616 194.708C122.245 194.777 124.301 192.88 125.235 191.519C125.642 190.923 126.258 191.38 126.228 191.529L124.241 196.277L113.782 196.436V195.78C113.951 195.77 114.189 195.751 114.497 195.711C114.795 195.681 115.014 195.641 115.133 195.602C115.381 195.512 115.54 195.393 115.62 195.254C115.699 195.125 115.739 194.946 115.739 194.737V186.384C115.739 186.185 115.709 186.016 115.639 185.887C115.57 185.758 115.401 185.639 115.133 185.53C114.974 185.46 114.745 185.4 114.447 185.341C114.149 185.291 113.931 185.251 113.782 185.241V184.586L124.281 182.967L125.314 186.533Z" fill="#2B2A29"/>
<path d="M132.237 182.688L131.413 182.917L131.383 187.258C132.595 186.94 134.84 185.698 134.572 183.652C134.452 182.728 133.618 182.192 132.237 182.688ZM131.393 189.244L131.403 194.548C131.403 194.767 131.453 194.936 131.542 195.075C131.631 195.204 131.81 195.283 132.059 195.303C132.198 195.313 132.416 195.303 132.714 195.273L132.635 196.098L126.675 196.108L126.754 195.293C126.953 195.204 127.102 195.134 127.201 195.075C127.46 194.906 127.628 194.747 127.718 194.588C127.797 194.429 127.837 194.221 127.837 193.982L127.877 184.168C127.877 183.96 127.837 183.801 127.748 183.672C127.668 183.543 127.499 183.463 127.231 183.433C127.072 183.414 126.903 183.414 126.675 183.433V182.579L133.638 180.692C136.876 179.808 137.998 180.543 138.296 181.536C138.704 182.917 137.552 185.46 135.336 187.297C134.164 188.261 132.535 188.767 131.393 189.244Z" fill="#2B2A29"/>
<path d="M145.399 185.291C144.664 185.758 144.137 186.324 143.303 186.721V192.959C143.591 194.081 145.697 193.873 146.442 193.456C147.653 192.79 147.931 190.168 147.475 188.141C147.107 186.572 146.243 185.46 145.399 185.291ZM146.491 179.689C146.054 179.242 145.418 179.093 144.554 179.242C144.147 179.321 143.77 179.47 143.303 179.689V184.367C144.097 183.801 147.693 181.437 146.491 179.689ZM151.408 189.274C151.388 192.502 150.027 195.969 147.345 195.998L138.336 195.988L138.376 194.926C138.684 194.826 138.892 194.727 139.012 194.638C139.25 194.479 139.419 194.29 139.508 194.081C139.588 193.873 139.637 193.605 139.637 193.287V181.258C139.637 180.97 139.598 180.741 139.528 180.563C139.459 180.374 139.29 180.245 139.012 180.145C138.813 180.076 138.763 180.046 138.505 180.026L138.515 179.232C141.306 178.586 144.256 177.493 147.117 176.947C148.011 176.748 148.974 176.679 149.57 177.324C151.686 179.579 147.922 183.225 146.968 183.86C148.557 184.734 151.378 185.46 151.408 189.274Z" fill="#2B2A29"/>
<path d="M164.847 195.85H159.791L159.772 194.747C160 194.608 160.407 194.28 160.497 194.052C160.586 193.813 160.626 193.515 160.626 193.148L160.636 181.149L156.653 182.073C156.653 182.738 156.573 193.505 156.663 193.714C156.752 193.923 156.911 194.111 157.149 194.28C157.229 194.33 157.348 194.389 157.487 194.439L157.467 195.81L152.203 195.79C152.183 195.571 152.083 194.548 152.262 194.499C152.401 194.459 152.501 194.419 152.58 194.38C152.818 194.25 152.977 194.072 153.067 193.813C153.156 193.555 153.206 193.257 153.206 192.909L153.226 178.457C153.226 178.119 153.186 177.841 153.107 177.603C153.027 177.374 152.858 177.176 152.61 176.997C152.471 176.907 152.302 176.818 152.093 176.739L152.103 175.358L157.378 173.828L157.398 175.159C157.318 175.179 157.259 175.209 157.199 175.229C156.97 175.348 156.762 175.646 156.663 175.924V179.291L160.675 178.348V175.775C160.675 175.278 160.626 175.209 160.536 175C160.437 174.802 160.278 174.613 160.06 174.464C159.97 174.404 159.762 174.335 159.652 174.335L159.642 173.292L164.897 172.11V173.669C164.599 173.62 164.222 174.027 164.142 174.305C164.053 174.563 164.013 174.861 164.013 175.179L163.993 193.019C163.993 193.356 164.033 193.654 164.112 193.893C164.192 194.131 164.51 194.3 164.748 194.469L164.847 195.85Z" fill="#2B2A29"/>
<path d="M170.708 193.674L170.718 181.258C174.522 182.182 175.376 193.674 170.708 193.674ZM171.9 178.656L170.728 178.348L170.787 174.116C170.807 173.153 171.045 172.676 171.453 172.388C171.582 172.308 171.81 172.209 172.108 172.12L172.029 170.64L166 171.732L166.079 173.192C166.278 173.242 166.437 173.302 166.526 173.361C166.784 173.54 166.963 173.749 167.042 174.007C167.122 174.255 167.162 174.603 167.162 175.05L167.152 192.303C167.152 192.691 167.102 193.019 167.023 193.297C166.943 193.575 166.764 193.803 166.496 193.992C166.347 194.101 166.149 194.201 165.92 194.29L165.94 195.849L172.913 195.83C179.667 194.628 178.694 181.377 171.9 178.656Z" fill="#2B2A29"/>
<path fill-rule="evenodd" clip-rule="evenodd" d="M182.965 179.331C182.965 176.262 182.975 173.183 182.985 170.123C183.074 169.845 183.283 169.547 183.511 169.438C183.571 169.408 183.64 169.378 183.71 169.358L183.7 168.027L178.416 168.892L178.406 170.272C178.604 170.352 178.773 170.441 178.922 170.54C179.171 170.709 179.33 170.908 179.409 171.146C179.488 171.375 179.538 171.653 179.538 171.991L179.508 192.949C179.508 193.287 179.469 193.595 179.379 193.843C179.28 194.101 179.121 194.29 178.892 194.419C178.813 194.459 178.704 194.499 178.575 194.528C178.396 194.578 178.485 195.611 178.505 195.83L183.779 195.84L183.799 194.479C183.65 194.419 183.541 194.37 183.452 194.31C183.213 194.151 183.054 193.962 182.975 193.754C182.886 193.535 182.955 182.768 182.965 182.112V179.331Z" fill="#2B2A29"/>
<path d="M197.845 195.8L192.749 195.81L192.719 194.32C192.958 194.131 193.345 193.674 193.434 193.357C193.524 193.029 193.573 192.612 193.573 192.115L193.553 175.477L189.302 186.622C189.302 187.536 189.342 192.641 189.431 192.939C189.511 193.227 189.68 193.486 189.918 193.704C189.997 193.784 190.107 193.853 190.256 193.923L190.236 195.81L185.001 195.84C184.981 195.532 184.882 194.121 185.061 194.052C185.19 194.002 185.299 193.953 185.379 193.893C185.607 193.714 185.766 193.456 185.855 193.098C185.945 192.751 185.995 192.333 185.995 191.857L185.975 171.921C185.975 171.454 185.935 171.067 185.855 170.749C185.766 170.431 185.607 170.153 185.359 169.915C185.22 169.786 185.051 169.666 184.842 169.557L184.852 167.879L190.137 167.392L190.156 169.339C190.077 169.369 190.017 169.408 189.958 169.448C189.709 169.617 189.551 169.885 189.471 170.262C189.392 170.65 189.352 171.047 189.352 171.464L189.322 182.103L193.573 171.375C193.573 170.69 193.633 170.024 193.345 169.329C193.146 168.862 192.669 168.753 192.56 168.743L192.55 167.332L197.705 167.153V169.041C197.407 168.991 197.04 169.547 196.96 169.925C196.871 170.292 196.901 170.858 196.901 171.286L196.911 191.896C196.911 192.373 196.951 192.78 197.04 193.108C197.119 193.436 197.606 194.151 197.845 194.37V195.8ZM189.362 160.667C188.905 160.041 188.309 159.912 188.915 161.978C190.713 165.932 192.133 166.607 193.921 162.117C194.457 160.469 193.941 160.071 193.573 160.578C192.272 162.684 190.891 163.141 189.362 160.667Z" fill="#2B2A29"/>
<path d="M21.0678 211.544L14.8299 211.613L14.7703 210.868C14.9392 210.779 15.3365 210.67 15.6047 210.59C15.2868 209.309 14.6213 207.412 13.8962 206.508C13.7075 206.259 13.4691 206.051 13.181 205.872C12.3765 205.345 11.9891 204.948 11.4229 205.703V209.746C11.4229 209.935 11.4726 210.103 11.5818 210.242C11.6811 210.391 11.85 210.511 12.0983 210.59C12.1778 210.62 12.4261 210.689 12.6347 210.739L12.6844 211.504L6.28755 211.464L6.25775 210.769C6.59547 210.739 6.8438 210.709 7.00272 210.66C7.25105 210.59 7.42984 210.481 7.52917 210.332C7.6285 210.183 7.67816 210.014 7.67816 209.815V201.541C7.67816 201.343 7.6285 201.184 7.54903 201.054C7.45964 200.925 7.27091 200.806 7.00272 200.707C6.79413 200.637 6.57561 200.598 6.28755 200.518V199.763H13.5783V200.409C13.3598 200.419 13.1016 200.449 12.7936 200.498C12.4956 200.538 12.2573 200.578 12.0983 200.617C11.8301 200.687 11.6414 200.796 11.552 200.955C11.4726 201.114 11.4229 201.283 11.4229 201.452V203.915L15.3563 200.727L14.4723 200.369V199.763L20.0248 199.773C20.005 200.012 19.9752 200.19 19.9056 200.429C18.7435 201.213 16.1311 201.859 15.1775 202.991L15.5848 203.22C17.9389 204.193 18.4554 207.7 19.9553 209.786C20.1738 210.143 20.3824 210.382 20.591 210.491C20.7996 210.61 20.9685 210.679 21.1075 210.689L21.0678 211.544Z" fill="#2B2A29"/>
<path fill-rule="evenodd" clip-rule="evenodd" d="M39.0265 199.813C43.0395 199.952 46.1783 202.743 46.0193 206.031C45.8704 209.319 42.4832 211.862 38.4604 211.722C34.4475 211.573 31.3186 208.792 31.4676 205.504C31.6265 202.217 35.0037 199.664 39.0265 199.813ZM38.9471 201.333C40.7052 201.343 42.1058 203.369 42.076 205.852C42.0561 208.335 40.6059 210.342 38.8478 210.332C37.0996 210.322 35.6891 208.296 35.7189 205.812C35.7487 203.329 37.189 201.323 38.9471 201.333Z" fill="#2B2A29"/>
<path fill-rule="evenodd" clip-rule="evenodd" d="M58.2866 200.607V210.749C58.0383 211.097 57.6807 211.285 57.184 211.305V211.722H61.3261V211.375C60.7003 211.275 60.2831 211.087 60.2136 210.759V202.395L63.6702 208.713L67.4944 202.395L67.5044 210.729L66.6203 211.335V211.623H72.2225V211.295L71.3683 210.709L71.3881 200.876L72.2126 200.458V199.853L66.2925 199.872L66.2627 200.3L66.7991 200.478L66.7395 201.432L64.7231 204.501L63.1537 201.362V200.389L63.7696 200.3V199.872L57.2238 199.862L57.184 200.26L58.2866 200.607Z" fill="#2B2A29"/>
<path d="M94.6511 210.858C93.3797 211.375 91.6613 211.534 89.923 211.583C87.1716 211.673 84.3208 211.623 83.5262 211.623V210.977C83.705 210.967 83.4865 210.938 83.7845 210.908C84.0825 210.878 84.0924 210.838 84.2116 210.799C84.4301 210.719 84.589 210.61 84.6784 210.471C84.7678 210.332 84.8076 210.153 84.8076 209.944V201.66C84.8076 201.471 84.7678 201.313 84.6884 201.164C84.6089 201.025 84.45 200.905 84.2116 200.816C84.0328 200.746 84.003 200.687 83.7149 200.637C83.4269 200.578 83.5361 200.587 83.3871 200.578L83.4865 199.773L94.5518 199.783L95.704 203.319H94.9789C94.7107 202.673 94.2439 202.276 93.8267 201.779C93.4095 201.283 93.042 201.015 92.7142 200.975C91.5024 200.766 89.5456 200.885 88.3338 201.015V203.488C89.7939 203.19 92.3467 203.597 93.7472 204.243C94.3134 204.501 95.1478 204.809 95.6146 205.266C97.3827 206.984 97.1741 209.845 94.6511 210.858ZM92.7639 207.809C92.7241 205.226 89.8734 204.67 88.3338 204.759V210.133C89.2873 210.54 92.7937 209.915 92.7639 207.809Z" fill="#2B2A29"/>
<path d="M121.957 211.623L116.464 211.722L116.424 211.007C116.682 210.928 117.119 210.739 117.219 210.61C117.318 210.471 117.358 210.302 117.358 210.093V203.428L112.689 207.809C112.689 208.186 112.729 210.302 112.828 210.431C112.918 210.55 113.097 210.66 113.355 210.749C113.444 210.779 113.573 210.809 113.722 210.838L113.712 211.623H107.971C107.941 211.504 107.842 210.908 108.041 210.888C108.18 210.868 108.299 210.838 108.388 210.818C108.637 210.749 108.806 210.64 108.915 210.491C109.004 210.342 109.054 210.173 109.054 209.974V201.71C109.054 201.521 109.004 201.362 108.915 201.223C108.825 201.094 108.647 200.975 108.378 200.886C108.22 200.826 108.041 200.776 107.812 200.727L107.822 199.942H113.573L113.583 200.746C113.504 200.756 113.434 200.776 113.375 200.786C113.107 200.856 112.928 200.975 112.838 201.124C112.749 201.283 112.709 201.452 112.709 201.631V205.941L117.378 201.74C117.378 201.452 117.328 201.412 117.229 201.293C117.129 201.174 116.951 201.074 116.702 200.985C116.613 200.955 116.315 200.915 116.196 200.905L116.255 200.061L121.897 200.021L121.977 200.866C121.649 200.846 121.242 201.074 121.152 201.233C121.053 201.382 121.013 201.551 121.013 201.73L121.023 210.004C121.023 210.203 121.063 210.371 121.152 210.511C121.252 210.65 121.589 210.739 121.848 210.838L121.957 211.623Z" fill="#2B2A29"/>
<path d="M146.978 211.613L141.584 211.623V210.978C141.843 210.898 142.28 210.719 142.369 210.58C142.468 210.451 142.518 210.282 142.518 210.074V204.392L137.989 204.382C137.989 204.76 137.919 210.272 138.008 210.392C138.108 210.521 138.277 210.62 138.535 210.719C138.624 210.749 138.753 210.779 138.912 210.809L138.883 211.583L133.181 211.574C133.161 211.454 133.062 210.868 133.251 210.838C133.4 210.819 133.519 210.799 133.598 210.779C133.847 210.699 134.025 210.6 134.125 210.451C134.224 210.302 134.274 210.133 134.274 209.945L134.294 201.72C134.294 201.531 134.254 201.372 134.164 201.233C134.075 201.104 133.896 200.985 133.628 200.896C133.479 200.836 133.29 200.786 133.072 200.737L133.082 199.962H138.793L138.803 200.766C138.724 200.776 138.654 200.796 138.594 200.806C138.346 200.876 138.118 201.045 138.018 201.204L138.008 203.121H142.568V201.76C142.568 201.472 142.528 201.442 142.419 201.323C142.319 201.204 142.141 201.104 141.902 201.015C141.813 200.975 141.515 200.935 141.396 200.935L141.465 200.091L147.067 200.061L147.137 200.906C146.809 200.886 146.402 201.114 146.312 201.263C146.223 201.422 146.183 201.581 146.183 201.76L146.153 209.994C146.153 210.193 146.193 210.362 146.293 210.491C146.382 210.63 146.71 210.729 146.978 210.819V211.613Z" fill="#2B2A29"/>
<path d="M173.39 211.653H166.089V210.967C166.437 210.948 166.834 210.888 167.291 210.799C167.748 210.699 167.976 210.59 167.976 210.461C167.976 210.411 167.976 210.352 167.966 210.302C167.956 210.242 167.946 210.153 167.887 210.063C166.536 207.819 164.738 206.656 162.642 206.239C162.533 206.478 161.897 207.997 161.758 208.325C161.639 208.643 161.52 208.931 161.43 209.179C161.311 209.507 161.242 209.746 161.212 209.895C161.192 210.044 161.182 210.143 161.182 210.203C161.182 210.391 161.331 210.55 161.639 210.679C161.947 210.808 162.453 210.908 163.169 210.967V211.653H157.666V210.967C157.874 210.957 158.113 210.928 158.371 210.878C158.52 210.848 159.325 210.103 159.434 209.974C159.613 209.765 159.762 209.527 159.881 209.239C160.606 207.59 161.331 206.07 162.066 204.422C162.513 203.398 163.278 202.058 163.337 200.816C163.347 200.647 162.881 200.627 162.891 200.468L162.92 199.833L168.413 199.852L168.403 200.667C167.122 200.975 170.618 207.66 171.542 209.676C171.632 209.855 171.731 210.014 171.86 210.163C172.218 210.57 172.049 210.739 172.764 210.878C172.992 210.928 173.201 210.957 173.39 210.967V211.653ZM166.357 206.607L164.39 202.405L163.02 205.365C164.162 205.405 165.284 205.762 166.357 206.607Z" fill="#2B2A29"/>
<path d="M195.302 203.269H194.666C193.941 202.316 193.663 201.452 192.789 201.213C192.62 201.164 192.401 201.174 192.133 201.154C191.875 201.134 191.656 201.134 191.468 201.134H191.07V209.855C191.07 210.054 191.11 210.232 191.18 210.381C191.259 210.53 191.398 210.65 191.607 210.739C191.736 210.789 191.934 210.838 192.203 210.898C192.471 210.948 192.699 210.987 192.888 211.007V211.653H185.25V211.007C185.408 210.987 185.637 210.967 185.925 210.938C186.213 210.908 186.412 210.868 186.521 210.828C186.73 210.739 186.879 210.62 186.948 210.471C187.018 210.322 187.057 210.143 187.057 209.944V201.134C186.511 201.134 185.855 201.044 185.339 201.213C184.465 201.501 183.958 202.266 183.462 203.269H182.826L183.779 199.912H194.15L195.302 203.269Z" fill="#2B2A29"/>
<defs>
<radialGradient id="paint0_radial_1030_8714" cx="0" cy="0" r="1" gradientUnits="userSpaceOnUse" gradientTransform="translate(80.7298 64.8285) rotate(-129.078) scale(285.494 285.357)">
<stop stop-color="#FEFEFE"/>
<stop offset="1" stop-color="#A2A2A2"/>
</radialGradient>
<linearGradient id="paint1_linear_1030_8714" x1="11.5918" y1="98.7849" x2="26.8389" y2="116.128" gradientUnits="userSpaceOnUse">
<stop stop-color="#B9B7B7"/>
<stop offset="1" stop-color="#E5E4E5"/>
</linearGradient>
<linearGradient id="paint2_linear_1030_8714" x1="32.4212" y1="140.92" x2="30.5041" y2="114.806" gradientUnits="userSpaceOnUse">
<stop stop-color="#E5E4E5"/>
<stop offset="1" stop-color="#FEFEFE"/>
</linearGradient>
<linearGradient id="paint3_linear_1030_8714" x1="161.897" y1="129.358" x2="172.754" y2="105.459" gradientUnits="userSpaceOnUse">
<stop stop-color="#DCDCDC"/>
<stop offset="0.490196" stop-color="#FEFEFE"/>
<stop offset="1" stop-color="#E1E1E1"/>
</linearGradient>
<linearGradient id="paint4_linear_1030_8714" x1="177.134" y1="152.671" x2="169.893" y2="128.554" gradientUnits="userSpaceOnUse">
<stop stop-color="#AEAEAE"/>
<stop offset="1" stop-color="#DADADA"/>
</linearGradient>
</defs>
</svg>
