<svg width="358" height="211" viewBox="0 0 358 211" fill="none" xmlns="http://www.w3.org/2000/svg">
<path d="M84.4505 189.806V198.999H82.3917V191.579H77.9797V198.999H75.9209V189.806H84.4505ZM88.2949 189.818V195.641L94.2182 189.818H95.249V198.999H93.1955V193.175L87.2655 198.999H86.2362V189.818H88.2949ZM105.554 189.811V198.999H103.495V194.867H99.0814V198.999H97.028V189.811H99.0814V193.092H103.493V189.811H105.554ZM116.798 195.777C116.207 197.705 114.272 198.999 112.02 198.999C109.282 198.999 107.003 197.031 107.003 194.405C107.003 191.829 109.178 189.806 112.02 189.806C114.197 189.806 116.161 191.01 116.798 193.034L114.841 193.591C114.491 192.393 113.392 191.542 112.019 191.542C110.311 191.542 109.137 192.791 109.137 194.405C109.137 195.95 110.283 197.263 112.019 197.263C113.398 197.263 114.463 196.469 114.841 195.212L116.798 195.777ZM125.694 189.806L122.111 193.816L126.448 198.999H123.985L120.223 194.436V198.999H118.164V189.806H120.223V193.29L123.285 189.806H125.694ZM129.899 189.818V195.641L135.822 189.818H136.853V198.999H134.799V193.175L128.869 198.999H127.84V189.818H129.899ZM147.311 189.806V199H145.259V193.17L139.322 199H138.292V189.806H140.353V195.637L146.283 189.806H147.311ZM145.183 188.223L142.981 190.389L141.607 189.165L143.811 187L145.184 188.223H145.183ZM166.501 189.818V198.999H164.449V193.271L161.168 196.763L157.889 193.271V198.999H155.835V189.818H156.866L161.168 194.411L165.472 189.818H166.501ZM172.603 195.276L170.27 198.999H167.964L170.407 195.097C169.233 194.712 168.493 193.861 168.493 192.566C168.493 190.914 169.789 189.818 171.478 189.818H176.482V198.999H174.43V195.276H172.603ZM174.43 191.586H171.739C171.148 191.586 170.502 191.925 170.502 192.566C170.502 193.167 171.101 193.547 171.731 193.547H174.429L174.43 191.586ZM187.728 195.777C187.137 197.705 185.203 198.999 182.95 198.999C180.211 198.999 177.933 197.031 177.933 194.405C177.933 191.829 180.11 189.806 182.95 189.806C185.127 189.806 187.089 191.01 187.729 193.034L185.772 193.591C185.422 192.393 184.323 191.542 182.95 191.542C181.242 191.542 180.068 192.791 180.068 194.405C180.068 195.95 181.214 197.263 182.95 197.263C184.329 197.263 185.394 196.469 185.772 195.212L187.728 195.777ZM193.787 189.811C196.781 189.811 198.804 191.913 198.804 194.406C198.804 197.123 196.54 198.999 193.787 198.999C190.809 198.999 188.77 196.916 188.77 194.406C188.77 191.798 190.979 189.811 193.787 189.811ZM193.787 197.263C195.62 197.263 196.664 195.95 196.664 194.406C196.664 192.708 195.422 191.548 193.787 191.548C191.968 191.548 190.905 192.863 190.905 194.406C190.905 195.963 192.037 197.263 193.787 197.263ZM207.795 189.806L204.212 193.816L208.551 198.999H206.086L202.325 194.436V198.999H200.266V189.806H202.325V193.29L205.386 189.806H207.795ZM214.637 189.811C217.631 189.811 219.656 191.913 219.656 194.406C219.656 197.123 217.39 198.999 214.637 198.999C211.659 198.999 209.62 196.916 209.62 194.406C209.62 191.798 211.83 189.811 214.637 189.811ZM214.637 197.263C216.47 197.263 217.514 195.95 217.514 194.406C217.514 192.708 216.272 191.548 214.637 191.548C212.818 191.548 211.755 192.863 211.755 194.406C211.754 195.963 212.887 197.263 214.637 197.263ZM231.781 189.818V198.999H229.729V193.271L226.449 196.763L223.168 193.271V198.999H221.116V189.818H222.146L226.449 194.411L230.753 189.818H231.781ZM238.561 193.54C240.244 193.54 241.547 194.622 241.547 196.249C241.547 197.903 240.257 198.999 238.569 198.999H233.559V189.818H240.628V191.586H235.611V193.54H238.561ZM235.611 197.23H238.301C238.885 197.23 239.537 196.89 239.537 196.249C239.537 195.634 238.946 195.269 238.308 195.269H235.611V197.23ZM245.095 189.818V195.641L251.018 189.818H252.047V198.999H249.995V193.175L244.065 198.999H243.036V189.818H245.095ZM262.359 189.811V198.999H260.298V194.867H255.885V198.999H253.833V189.811H255.885V193.092H260.298V189.811H262.359ZM269.546 189.811L273.445 198.999H271.42L270.823 197.61H266.231L265.639 198.999H263.609L267.515 189.811H269.546ZM266.965 195.872H270.089L268.531 192.049L266.965 195.872ZM282.705 189.806V191.579H279.466V198.999H277.406V191.579H274.173V189.806H282.705Z" fill="black"/>
<path d="M68.5598 194.001L64.248 198L59.9375 194.001L64.2493 190.003L68.5598 194.001ZM297.69 193.998L293.379 197.997L289.069 193.998L293.379 190L297.69 193.998Z" fill="#BA944D"/>
<path d="M269.833 98.2259L207.048 144.272L178.812 120.413L150.589 144.272L87.7924 98.2259L156.194 24.4116L161.593 18.5805L178.812 0L269.833 98.2259Z" fill="#AA091C"/>
<path d="M170.804 153.041V150.33H174.011V147.619H170.804V144.91H167.6V142.2H161.187V144.91H157.982V147.621H154.776V150.332H157.982V153.043H161.187V155.754H167.6V153.043H170.806L170.804 153.041ZM164.391 150.33H161.185V147.619H167.598V150.33H164.391ZM174.005 142.2H177.211V144.91H180.418V142.2H183.622V139.489H186.829V134.067H183.622V131.356H180.418V128.646H177.211V131.356H174.005V134.067H170.798V139.489H174.005V142.2ZM177.211 136.78V134.069H180.418V139.491H177.211V136.78Z" fill="#BA944D"/>
<path d="M177.211 144.91H174.007V147.619H177.213L177.211 144.91ZM174.013 142.201H170.806V144.91H174.013V142.201ZM170.804 139.489H167.6V142.2L170.806 142.201L170.804 139.489ZM177.211 150.33H174.007V153.041H177.213V150.328L177.211 150.33Z" fill="#BA944D"/>
<path d="M174.013 153.039H170.806V155.75H174.013V153.039ZM170.804 155.752H167.6V158.461H170.806V155.75L170.804 155.752ZM180.422 147.62H177.217V150.33H180.424L180.422 147.62ZM199.659 147.62V144.911H196.455V142.2H190.041V144.911H186.835V147.621H183.628V150.332H186.835V153.043H190.041V155.754H196.455V153.043H199.661V150.332H202.868V147.621L199.659 147.62ZM196.455 150.329H190.041V147.618H196.455V150.329Z" fill="#BA944D"/>
<path d="M183.63 155.752H180.426V153.039H177.217V155.752H174.011V158.463H170.804V163.884H174.011V166.595H177.217V169.306H180.424V166.595H183.628V163.883H186.835V158.459H183.628V155.75L183.63 155.752ZM180.424 161.173V163.884H177.217V158.461H180.424V161.173ZM183.628 144.909H180.424V147.618H183.628V144.909ZM186.839 142.2H183.632V144.91H186.839V142.2ZM190.039 139.489H186.833V142.2H190.039V139.489Z" fill="#BA944D"/>
<path d="M183.628 150.33H180.424V153.041H183.628V150.33ZM186.839 153.039H183.632V155.75H186.839V153.039ZM190.039 155.752H186.833V158.461H190.039V155.752Z" fill="#BA944D"/>
<path d="M146.52 99.9229C146.021 100.255 145.469 100.54 144.863 100.781C144.259 101.023 143.708 101.142 143.208 101.142C142.543 101.138 141.884 101.031 141.261 100.826C140.597 100.613 139.99 100.283 139.475 99.8567C138.915 99.389 138.477 98.8191 138.192 98.1866C137.872 97.5107 137.713 96.706 137.713 95.7726V87.1574H132.429V95.7744C132.429 95.955 132.447 96.3001 132.482 96.8115C132.518 97.3229 132.643 97.9094 132.855 98.5692C133.07 99.2309 133.399 99.9157 133.843 100.624C134.288 101.33 134.91 101.976 135.71 102.562C136.511 103.149 137.517 103.631 138.727 104.007C139.935 104.382 141.43 104.57 143.208 104.57C143.815 104.57 144.437 104.511 145.077 104.391C145.716 104.272 146.199 104.089 146.518 103.85V104.615H151.961V87.1556H146.518L146.52 99.9229ZM125.062 89.3675C124.058 88.6257 122.897 88.0666 121.648 87.7224C120.266 87.3368 118.825 87.1455 117.376 87.1556C116.738 87.1556 116.14 87.2164 115.588 87.3362C115.037 87.4578 114.495 87.5937 113.962 87.7421V87.1556H108.626V104.615H113.96V91.7582C114.495 91.3094 115.035 91.0072 115.588 90.857C116.14 90.7068 116.736 90.6317 117.376 90.6317C118.088 90.6317 118.773 90.7676 119.431 91.0358C120.79 91.5911 121.859 92.5834 122.422 93.811C122.721 94.4583 122.874 95.1575 122.874 95.9085V104.617H128.158V95.9085C128.158 94.4637 127.881 93.1941 127.329 92.0962C126.817 91.0465 126.042 90.1135 125.062 89.3675ZM179.723 104.611H172.837L164.997 98.6175L161.589 101.557V104.611H156.19V24.4135L161.589 18.5806V51.2802C164.165 43.2121 174.692 45.1129 178.876 41.4133C176.817 51.8667 171.255 57.0201 161.589 55.924V95.862L171.132 87.8869H177.213L168.257 95.7368L179.723 104.611ZM199.263 101.232V87.1538H194.192V87.5597C193.005 87.2973 191.788 87.161 190.565 87.1538C189.148 87.1468 187.744 87.385 186.431 87.8547C185.177 88.2959 184.021 88.929 183.016 89.7251C182.045 90.4992 181.256 91.4349 180.693 92.4789C180.123 93.5349 179.831 94.6917 179.84 95.862C179.84 97.0654 180.123 98.1937 180.695 99.2469C181.259 100.295 182.047 101.236 183.014 102.02C184.01 102.828 185.168 103.463 186.429 103.893C187.747 104.346 189.15 104.576 190.565 104.568C191.454 104.568 192.167 104.493 192.7 104.343C193.345 104.15 193.97 103.908 194.567 103.621C194.638 103.803 194.709 103.968 194.782 104.118C194.852 104.27 195.03 104.434 195.315 104.615H201.134C200.65 104.233 200.219 103.802 199.851 103.329C199.459 102.832 199.265 102.131 199.265 101.23L199.263 101.232ZM193.929 99.9676C193.411 100.321 192.846 100.616 192.246 100.847C191.66 101.074 191.1 101.187 190.565 101.187C189.817 101.187 189.114 101.044 188.457 100.758C187.808 100.478 187.228 100.087 186.75 99.6082C186.257 99.1085 185.869 98.5351 185.604 97.9148C185.318 97.2602 185.174 96.5639 185.178 95.862C185.178 95.1396 185.32 94.4565 185.602 93.8092C185.887 93.1637 186.269 92.6004 186.75 92.1176C187.231 91.6366 187.801 91.254 188.457 90.9679C189.114 90.6818 189.819 90.5387 190.565 90.5387C191.171 90.5387 191.747 90.6514 192.3 90.8785C192.85 91.1038 193.393 91.4131 193.927 91.8029L193.929 99.9676ZM218.787 94.4887H210.091V87.1574H204.753V104.617H210.091V97.9184H218.787V104.617H224.23V87.1574H218.787V94.4887ZM228.461 87.1556V90.6836H236.04V104.615H241.429V90.6836H249.008V87.1538L228.461 87.1556Z" fill="white"/>
</svg>
